<?xml version="1.0" encoding="UTF-8"?><svg xmlns="http://www.w3.org/2000/svg" xmlns:xlink="http://www.w3.org/1999/xlink" viewBox="0 0 466.85 198.8"><defs><style>.cls-1,.cls-2,.cls-3,.cls-4,.cls-5{fill:none;}.cls-2{mix-blend-mode:hard-light;opacity:.62;}.cls-3{clip-path:url(#clippath-1);}.cls-4{isolation:isolate;}.cls-6{fill:#015371;}.cls-7{fill:#fff;}.cls-8{fill:#7e4084;}.cls-9{fill:#a15089;}.cls-10{fill:#b87797;}.cls-11{fill:#a686b2;}.cls-12{fill:#de8d38;}.cls-13{fill:#111c3b;}.cls-14{fill:#40a2b2;}.cls-15{fill:#407bb0;}.cls-16{fill:#807cac;}.cls-17{fill:#8a6298;}.cls-18{fill:#5296a3;}.cls-19{fill:#5b8199;}.cls-20{fill:#279cae;}.cls-21{fill:#5c5d93;}.cls-22{fill:#48a689;}.cls-23{fill:#7bac83;}.cls-24{fill:url(#_名称未設定グラデーション_202);opacity:.13;}.cls-25{fill:url(#gradient2-reverse-2);}.cls-26{fill:url(#gradient2-reverse-4);}.cls-27{fill:url(#gradient2-reverse-3);}.cls-28{fill:url(#_名称未設定グラデーション_8);opacity:.24;}.cls-29{fill:url(#gradient2-reverse);}.cls-30{fill:url(#gradient-1);filter:url(#drop-shadow-1);}.cls-5{clip-path:url(#clippath);}</style><linearGradient id="_名称未設定グラデーション_8" x1="308.77" y1="83.43" x2="387.56" y2="83.43" gradientUnits="userSpaceOnUse"><stop offset="0" stop-color="#8cc4c5"/><stop offset=".13" stop-color="#b7c6e1"/><stop offset=".24" stop-color="#9ec1d1"/><stop offset=".37" stop-color="#9dc6d5"/><stop offset=".56" stop-color="#ddbcbf"/><stop offset=".71" stop-color="#ead4a0"/><stop offset=".82" stop-color="#e4bf7b"/><stop offset=".96" stop-color="#e3b090"/></linearGradient><linearGradient id="gradient2-reverse" x1="165.6" y1="121.02" x2="442.22" y2="121.02" gradientUnits="userSpaceOnUse"><stop offset=".04" stop-color="#e3b090"/><stop offset=".18" stop-color="#e4bf7b"/><stop offset=".29" stop-color="#ead4a0"/><stop offset=".44" stop-color="#ddbcbf"/><stop offset=".57" stop-color="#9dc6d5"/><stop offset=".7" stop-color="#9ec1d1"/><stop offset=".83" stop-color="#b7c6e1"/><stop offset="1" stop-color="#8cc4c5"/></linearGradient><linearGradient id="gradient2-reverse-2" x1="206.54" y1="134.92" x2="271.76" y2="134.92" xlink:href="#gradient2-reverse"/><linearGradient id="gradient2-reverse-3" x1="281.74" y1="113.31" x2="351.88" y2="113.31" xlink:href="#gradient2-reverse"/><linearGradient id="gradient2-reverse-4" x1="365.45" y1="117.03" x2="392.67" y2="117.03" xlink:href="#gradient2-reverse"/><linearGradient id="_名称未設定グラデーション_202" x1="168.1" y1="125.51" x2="444.85" y2="125.51" gradientUnits="userSpaceOnUse"><stop offset="0" stop-color="#e1a993"/><stop offset=".04" stop-color="#e1ad8c"/><stop offset=".28" stop-color="#dfbe7e"/><stop offset=".42" stop-color="#e6d49d"/><stop offset=".62" stop-color="#debabc"/><stop offset=".74" stop-color="#9fc7d5"/><stop offset=".83" stop-color="#9abfd2"/><stop offset=".92" stop-color="#b9c2dc"/><stop offset="1" stop-color="#84bebf"/></linearGradient><linearGradient id="gradient-1" x1="158.85" y1="142.31" x2="448.39" y2="142.31" gradientUnits="userSpaceOnUse"><stop offset="0" stop-color="#8d6099"/><stop offset=".08" stop-color="#8a5f98"/><stop offset=".12" stop-color="#835f98"/><stop offset=".16" stop-color="#755e98"/><stop offset=".18" stop-color="#635c97"/><stop offset=".21" stop-color="#4b5b96"/><stop offset=".22" stop-color="#3a5a96"/><stop offset=".29" stop-color="#5f879e"/><stop offset=".39" stop-color="#8482b3"/><stop offset=".46" stop-color="#77ac82"/><stop offset=".52" stop-color="#a06596"/><stop offset=".55" stop-color="#af8fb8"/><stop offset=".55" stop-color="#a491b3"/><stop offset=".56" stop-color="#8a99a6"/><stop offset=".56" stop-color="#74a09c"/><stop offset=".57" stop-color="#63a594"/><stop offset=".58" stop-color="#57a88f"/><stop offset=".58" stop-color="#50aa8b"/><stop offset=".61" stop-color="#4fab8b"/><stop offset=".62" stop-color="#5798a1"/><stop offset=".68" stop-color="#d0bfbe"/><stop offset=".72" stop-color="#68a789"/><stop offset=".82" stop-color="#49a6b6"/><stop offset=".89" stop-color="#31a0b4"/><stop offset="1" stop-color="#175473"/></linearGradient><filter id="drop-shadow-1" filterUnits="userSpaceOnUse"><feOffset dx="1.91" dy="1.91"/><feGaussianBlur result="blur" stdDeviation="0"/><feFlood flood-color="#111c3b" flood-opacity="1"/><feComposite in2="blur" operator="in"/><feComposite in="SourceGraphic"/></filter><clipPath id="clippath"><path class="cls-1" d="m33.04,166.31c-.71-.85-1.57-.45-2.37-.39-2.32.19-4.49-.31-6.54-1.37-1.27-.66-2.13-1.65-2.51-3.06-1.31-4.9-1.09-9.76.59-14.51,1.17-3.31,4.55-5.73,7.69-5.6.91.04,1.91.32,2.69.8,1.28.78,2.56.5,3.86.39,1.58-.13,2.39.61,2.62,2.17.27,1.85-.77,2.94-2.11,3.77-1.68,1.04-3.43,1.93-5.46,2.19-2.63.34-4.12,2.07-4.3,4.75-.04.61-.07,1.23-.05,1.84.05,1.87,1.12,2.93,2.98,2.68,1.95-.26,3.92-.58,5.78-1.2,2.53-.83,4.85-2.17,6.85-3.99.89-.81,1.86-1.54,2.77-2.33.7-.6,1.42-1.2,2.06-1.87,1.36-1.43,2.7-2.89,4.01-4.38.59-.67,1.2-1.37,1.6-2.16,1.86-3.66,3.94-7.25,5.39-11.08,1.12-2.97,1.66-6.21,2.06-9.39.8-6.26,1.21-12.58,2.01-18.84.36-2.83,1.15-5.63,1.94-8.38.79-2.73,1.8-5.39,2.77-8.06,1.02-2.78,1.78-5.72,4.61-7.42-.04-.07-.08-.15-.12-.22-.3.01-.62-.03-.9.05-1.72.5-3.44,1-5.14,1.57-5.86,1.97-11.08,5.19-16.33,8.35-.71.43-1.34,1-1.94,1.58-2.07,1.96-4.1,3.96-6.16,5.92-2.06,1.97-3.04,4.56-4.04,7.12-1.37,3.51-1.84,7.24-2.4,10.94-.14.94.1,1.98.34,2.92.34,1.31,1.2,2.26,2.56,2.55,1.11.24,2.26.52,3.37.44,1.99-.13,3.87-2.11,4.03-4.09.3-3.6,1.89-6.33,5.26-7.79,1.21-.52,1.78-1.38,2.25-2.51.29-.7.82-1.41,1.43-1.85,1.27-.91,2.7-.57,3.49.79.34.59.63,1.35.58,2.01-.15,1.71-.49,3.4-.77,5.1-.07.43-.16.85-.24,1.27-.7,3.77-2.75,6.59-6.08,8.44-2.85,1.59-5.81,2.87-9.07,3.38-2.35.36-4.7.01-6.69-1.02-3.1-1.6-4.98-4.29-5.45-7.92-.42-3.25,0-6.36,1.05-9.4,1.89-5.41,4.03-10.71,7.14-15.55,1.11-1.73,2.44-3.36,3.88-4.83,1.99-2.03,4.17-3.88,6.29-5.78.6-.53,1.24-1.05,1.93-1.45,6.48-3.76,13.04-7.32,20.42-9.13,2.87-.7,5.64-1.84,8.43-2.85,5.17-1.87,10.47-3.09,15.93-3.72,5.27-.61,10.54-.93,15.83-.36,1.65.18,3.29.56,4.93.88,2.94.59,5.15,2.26,7.23,4.39,3.89,3.98,4.29,8.72,3.48,13.8-.2,1.29-.61,2.55-.96,3.96.89-.65,1.67-1.26,2.49-1.8,2.73-1.82,5.67-3.06,9-3.07,3.36,0,5.94,1.61,6.31,4.53.12.99-.01,2.16-.44,3.06-1.33,2.75-2.8,5.43-4.31,8.09-.84,1.47-1.51,2.97-1.69,4.67-.19,1.8.79,2.65,2.46,1.96,2.35-.97,4.36-2.47,5.98-4.44,2.21-2.71,4.41-5.43,6.56-8.19.33-.43.4-1.08.55-1.64.45-1.71.76-3.49,2.49-4.47.95-.54,1.95-1.15,3.03-.49,1.14.69,1.2,1.9,1.03,3.07-.43,2.9-1.52,5.6-2.74,8.24-1.46,3.17-2.86,6.37-4.43,9.49-.8,1.59-1.91,3.02-2.89,4.54,1.12-.25,2.25-.56,3.39-.72.74-.1,1.51.03,2.27.05.4,0,.79-.03,1.2-.04.46-2.56.87-5.06,1.37-7.54.25-1.24.57-2.47,1-3.66,1.34-3.66,2.54-7.38,4.16-10.9,2.32-5.03,5-9.89,8.77-14.03,2.96-3.26,6.29-6.1,9.85-8.72,3.74-2.75,7.95-4.54,12.17-6.28,1.69-.7,3.66-.77,5.53-.92,1.59-.13,3.22-.1,4.8.12,3.59.51,5.86,3.26,5.63,6.88-.1,1.58-.51,3.17-1.02,4.68-1.54,4.49-3.78,8.58-7.17,12-1.68,1.69-3.71,2.56-6.02,2.75-1.92.16-2.86-1.23-2.21-3.11.43-1.27,1.29-2.22,2.44-2.81,1.09-.56,2.25-1.02,3.43-1.32,1.06-.27,1.98-.68,2.74-1.44,2.02-2.03,3.04-4.56,3.57-7.31.26-1.35-.37-2.33-1.78-2.89-2.74-1.09-5.56-1.26-8.35-.26-5.43,1.95-10.32,4.87-14.44,8.9-3.55,3.47-6.21,7.6-7.91,12.3,0,0,.03-.02.03-.02-.88,2.05-1.95,4.05-2.6,6.17-.8,2.65-1.33,5.4-1.83,8.13-.49,2.65-.28,5.31.3,7.92.34,1.53,2.18,3.15,3.81,3.27,5.11.38,9.9-.62,14.24-3.45.8-.52,1.64-.99,2.47-1.48,1.44-.86,2.58-1.97,3.25-3.55.59-1.39,1.28-2.74,1.91-4.12,1.67-3.66,4.34-6.52,7.59-8.71,3.22-2.18,6.67-4.04,10.64-4.6,2.03-.29,4.05-.12,5.98.41,2.54.7,4.02,2.63,4.83,5.04,2.2-1.71,4.31-3.47,6.55-5.07,3.4-2.43,7.03-4.42,11.29-4.84.97-.1,1.99-.03,2.96.12,2.11.34,3.24,1.91,3.87,3.73.26.76-.13,1.79-.34,2.67-.12.51-.48.97-.66,1.3,1.64-.91,3.31-1.95,5.09-2.78,2.24-1.04,4.68-1.4,7.14-1.42.88,0,1.8.14,2.65.38,2.16.59,3.18,2.41,2.59,4.6-.22.8-.51,1.61-.95,2.3-1.19,1.88-2.41,3.75-3.75,5.52-1.79,2.37-3.7,4.65-5.55,6.97-1.31,1.64-1.86,3.54-1.93,5.6-.03.82.43,1.33,1.11,1.66,1.39.69,2.85.76,4.35.5,2.72-.47,5.26-1.43,7.55-2.96.66-.44,1.29-1.12,1.6-1.84.68-1.58,1.21-3.24,1.66-4.9.19-.72.07-1.53,0-2.3-.2-2.51,1.76-5.02,4.1-5.22,1.74-.15,3.07.85,3.21,2.59.28,3.49-.09,6.83-2.75,9.47-1.09,1.09-2.17,2.2-3.35,3.18-4.29,3.54-9.41,4.79-14.82,5.14-.7.05-1.42-.1-2.13-.17-1.7-.17-2.86-1.1-3.65-2.56-.22-.41-.45-.81-.66-1.23-.41-.8-.66-1.57-.4-2.55.34-1.29.22-2.71.64-3.96,1.09-3.3,3.25-6.02,5.14-8.87.6-.91,1.18-1.84,1.76-2.76l-.24-.35c-1.02.26-2.1.39-3.06.8-2.74,1.18-5.03,3.04-7.08,5.16-2.17,2.24-4.21,4.61-6.25,6.97-.87,1-1.53,2.18-2.38,3.19-1.15,1.36-2.37,2.67-3.63,3.94-.66.67-1.56.86-2.5.64-.96-.22-1.6-.93-1.59-1.9.01-2.13.9-3.92,2.18-5.57.3-.38.58-.82.72-1.28,1.5-4.91,4.49-9.07,6.8-13.57.24-.47.5-.93.67-1.42.5-1.41-.17-2.32-1.66-2.07-1.17.2-2.42.48-3.4,1.09-4.66,2.9-9.12,6.11-12.79,10.24-1.12,1.26-1.99,2.86-2.6,4.45-1.21,3.15-3.37,5.54-5.79,7.72-.99.89-2.27,1.5-3.49,2.08-2.66,1.26-5.43,2.26-8.4,2.5-2.32.19-4.62-.12-6.62-1.35-.95-.59-1.63-1.62-2.51-2.53-.32.26-.84.67-1.34,1.11-2.38,2.09-4.85,4.03-7.75,5.38-4.88,2.27-9.91,2.91-15.19,1.72-3.4-.76-6.44-2.18-8.92-4.65-.58-.58-1.06-1.29-1.48-2-.25-.43-.49-.61-.95-.44-2.08.77-4.23,1.39-6.22,2.35-2.94,1.42-5.64,3.26-7.75,5.8-.89,1.08-1.62,2.33-2.28,3.57-1.26,2.41-2.88,4.52-4.79,6.45-3.01,3.04-5.98,6.1-9.61,8.43-2.58,1.65-5.32,2.77-8.42,2.7-.78-.02-1.59-.27-2.33-.55-1.77-.66-2.54-1.97-2.32-3.86.51-4.38,2.21-8.01,5.81-10.87,4.94-3.92,10.28-7.07,16.02-9.63,2.11-.94,4.09-2.18,6.12-3.3.24-.13.49-.33.6-.56.69-1.4,1.34-2.81,2-4.22-.09-.06-.19-.12-.28-.18-.87.62-1.76,1.21-2.6,1.86-1.71,1.3-3.64,2.09-5.7,2.59-4.39,1.06-8.2-2.06-8.04-6.59.16-4.45,1.9-8.34,4.31-11.97,1.06-1.6,2.32-3.06,3.38-4.66.65-.98,1.08-2.1,1.61-3.16-.09-.08-.17-.17-.26-.25-.3.09-.6.18-.89.28-2.44.89-4.64,2.19-6.65,3.82-2.28,1.85-4.6,3.64-6.82,5.57-.7.61-1.12,1.54-1.65,2.34-4.75,7.23-10.39,13.58-18.05,17.82-4.44,2.46-8.96,4.89-14.08,5.53-2.85.36-5.8.15-8.69-.01-1.74-.1-3.45-.59-5.23-.91-.46,2.07-1.02,4.31-1.45,6.58-.91,4.78-2.47,9.31-4.89,13.54-.64,1.13-1.12,2.35-1.8,3.45-.88,1.41-1.78,2.83-2.88,4.06-3.21,3.62-7.18,6.32-11.13,9.06-4.48,3.11-9.44,4.8-14.75,5.67-.32.05-.63.15-.93.36m75.98-82.1c.13-3.53-.05-6.39-2.26-8.71-.4-.42-.78-.59-1.28-.48-2.56.54-5.16.96-7.66,1.72-1.69.52-3.42,1.29-4.79,2.38-2.36,1.88-4.5,4.05-6.64,6.18-2.73,2.72-4.79,5.96-7.02,9.08-1.96,2.75-3.54,5.62-4.61,8.82-1.24,3.71-2.3,7.44-2.67,11.35-.16,1.73-.12,1.74,1.55,1.78.09,0,.18.03.28.03,1.53-.02,3.08.12,4.59-.08,3.6-.48,7.17-1.27,10.36-3.03,5.19-2.86,9.66-6.53,13.18-11.44,3.94-5.5,5.72-11.7,6.99-17.6Zm103.32,17.8c-3.84-.29-6.98-3.57-5.15-8.23-1.23.72-2.46,1.48-3.58,2.36-2.17,1.69-3.4,4.14-4.99,6.3-1.12,1.53-1.62,3.32-1.8,5.2-.19,1.93.42,3.07,2.27,3.62,1.09.33,2.34.49,3.46.34,4.48-.62,9.41-4.58,9.79-9.59Zm-78.71,22.6c-.05-.07-.09-.13-.14-.2-.3.11-.6.2-.88.34-1.97,1.03-3.97,2.03-5.9,3.13-2.09,1.2-4.16,2.43-6.14,3.8-.72.49-1.26,1.36-1.65,2.17-.4.8-.01,1.33.87,1.21,1.02-.14,2.08-.39,2.99-.85,3.21-1.62,5.89-3.98,8.38-6.54.91-.94,1.65-2.04,2.47-3.07Zm82.77-30.49c.05-.03.1-.06.15-.09-.23-.47-.36-1.16-.73-1.34-.38-.19-1.07,0-1.5.25-.46.25-.94.7-1.11,1.17-.18.51-.24,1.35.06,1.68.38.43,1.18.7,1.77.65.4-.04.81-.7,1.09-1.16.2-.32.19-.77.27-1.16Zm-89.22,75.25c0-.2-.31-.53-.5-.54-.18-.01-.51.29-.54.49-.03.21.23.46.48.89.29-.41.57-.63.56-.84Z"/></clipPath><clipPath id="clippath-1"><path class="cls-1" d="m268.12,76.02l.63,19.41-12.46-16.19,11.83-3.22Zm-8.67,38.19l2.13-17.52-6.24,9.93,4.11,7.59Zm-9.53-29.11l-2.69,5.59,3.49,6.93-.8-12.52Zm-10.75,25.63l11.16-1.57-11.22-9.2.07,10.77Zm-16.95-3.83l8.48-10.53-8.58-8.27.1,18.8Zm12.84-3.21l-8.15,7.94,7.01-.51,1.15-7.43Zm-28.79-9.56l-10.22-6.69-14.88,19.53-2.58-18.87-3.37,34.21,5.8-3.94,12.51-11.42,5.52,12.8,7.22-25.62Zm.66,10.64l-6.24,9.93,6.33,2.24-.09-12.17Zm-78.47-9.56l-5.54,16.43,13.7,11.92-8.59-30,.42,1.66Zm-5.34,31.75l-2.29-9.98s-3.09,5.2-4.17,6.54l6.46,3.44Zm-9.89-33.03l6.52,8.55,3.83-9.67-10.35,1.12Zm-2.64,4.91c-1.49,1.69-5.32,9.34-5.32,9.34l7.91,10.11-2.58-19.45Zm-46.43,3.06l5.44,12.08,3.82-7.47,4.84,6.54,4.54-14.37-18.65,3.23Zm-1.82,23.82l12.75-6,3.14-4.72-32.13,13.69,16.24-2.97Zm98.47-18.79l-5.71,9.32s5.38,2.79,5.46,3.51,10.3-8.42,10.3-8.42l3.82-7.47-4.01-16.86-13.17,30.43,3.3-10.51Zm76.03-26.26c-.54.06-.32,11.45-.32,11.45l8.13-10.1s-7.27-1.41-7.82-1.35Zm-153.12,40.07c1.1-1.09,7.27-7.12,7.27-7.12l-.76,4.22-3.39,13.76-3.12-10.87Zm63.6-4.66l5.62-7.78-3.88,14.82-1.74-7.04Z"/></clipPath></defs><g class="cls-4"><g id="_レイヤー_2"><g id="_レイヤー_1-2"><rect class="cls-7" x="4.22" y="29.5" width="462.63" height="169.3" rx="11.77" ry="11.77"/><path d="m148.51,175.78h2.61v9.24h-2.61v-9.24Z"/><path d="m165.73,175.78v9.24h-2.15l-4.08-4.92v4.92h-2.56v-9.24h2.15l4.08,4.92v-4.92h2.56Z"/><path d="m181.29,177.85h-2.84v-2.07h8.28v2.07h-2.82v7.17h-2.61v-7.17Z"/><path d="m191.06,180.4c0-2.77,2.18-4.8,5.13-4.8s5.13,2.03,5.13,4.8-2.18,4.8-5.13,4.8-5.13-2.03-5.13-4.8Zm7.63,0c0-1.6-1.1-2.64-2.5-2.64s-2.49,1.04-2.49,2.64,1.09,2.64,2.49,2.64,2.5-1.04,2.5-2.64Z"/><path d="m210.22,181.67l-.98,1.04v2.31h-2.59v-9.24h2.59v3.84l3.58-3.84h2.88l-3.77,4.09,3.97,5.15h-3.04l-2.64-3.35Z"/><path d="m224.79,181.71v3.31h-2.61v-3.35l-3.52-5.89h2.76l2.19,3.67,2.19-3.67h2.53l-3.54,5.93Z"/><path d="m232.07,180.4c0-2.77,2.18-4.8,5.13-4.8s5.13,2.03,5.13,4.8-2.18,4.8-5.13,4.8-5.13-2.03-5.13-4.8Zm7.63,0c0-1.6-1.1-2.64-2.5-2.64s-2.49,1.04-2.49,2.64,1.09,2.64,2.49,2.64,2.5-1.04,2.5-2.64Z"/><path d="m249.84,183.65c0,.37-.05.66-.44,1.52l-.83,1.93h-1.57l.62-2.15c-.48-.22-.78-.67-.78-1.29,0-.9.63-1.48,1.5-1.48s1.49.58,1.49,1.48Z"/><path d="m255.78,183.84l1.42-1.69c.49.63,1,.96,1.6.96.75,0,1.16-.46,1.16-1.35v-3.97h-3.19v-2.02h5.78v5.83c0,2.4-1.24,3.59-3.56,3.59-1.35,0-2.49-.48-3.21-1.36Z"/><path d="m274.27,183.22h-3.91l-.73,1.79h-2.67l4.08-9.24h2.57l4.09,9.24h-2.72l-.73-1.79Zm-.77-1.93l-1.19-2.96-1.19,2.96h2.38Z"/><path d="m290.74,179.2c0,2.1-1.58,3.41-4.1,3.41h-1.61v2.42h-2.61v-9.24h4.22c2.52,0,4.1,1.31,4.1,3.42Zm-2.64,0c0-.86-.54-1.36-1.62-1.36h-1.45v2.71h1.45c1.08,0,1.62-.5,1.62-1.35Z"/><path d="m301.69,183.22h-3.91l-.73,1.79h-2.67l4.08-9.24h2.57l4.09,9.24h-2.72l-.73-1.79Zm-.77-1.93l-1.19-2.96-1.19,2.96h2.38Z"/><path d="m318.62,175.78v9.24h-2.15l-4.08-4.92v4.92h-2.56v-9.24h2.15l4.08,4.92v-4.92h2.56Z"/><path class="cls-28" d="m387.56,50.2c0-5.77-4.69-10.46-10.48-10.46s-10.46,4.69-10.46,10.46,4.69,10.48,10.46,10.48,10.48-4.69,10.48-10.48m-19.28,14.67c0-2.45-1.99-4.44-4.45-4.44s-4.44,1.99-4.44,4.44,1.99,4.45,4.44,4.45,4.45-1.99,4.45-4.45m5.14,23.01c0-8.62-7-15.62-15.64-15.62s-15.62,7-15.62,15.62,7,15.64,15.62,15.64,15.64-7,15.64-15.64m-32.09,11.33c0-4.33-3.52-7.85-7.86-7.85s-7.85,3.52-7.85,7.85,3.52,7.86,7.85,7.86,7.86-3.52,7.86-7.86m-21.22,7.34c0-3.13-2.54-5.67-5.68-5.67s-5.67,2.54-5.67,5.67,2.54,5.68,5.67,5.68,5.68-2.54,5.68-5.68m-.77,16.65c0-2.16-1.76-3.92-3.93-3.92s-3.92,1.76-3.92,3.92,1.76,3.93,3.92,3.93,3.93-1.76,3.93-3.93"/><g id="zPLdeR"><path class="cls-29" d="m392.64,113.33c.58-.35,1.12-.82,1.75-1.05,5.01-1.81,9-5.07,12.82-8.65,2.11-1.98,4.33-3.9,6.74-5.47,1.16-.76,2.89-.97,4.33-.9,3.51.19,6.73-.09,9.4-2.77.57-.57,1.64-.69,2.5-.9,4.8-1.15,9.51-4.91,10.69-10.06.4-1.76-.42-3.05-1.62-4.17-1.16-1.09-2.39-.6-3.6-.09-2.66,1.12-5.19,1.31-7.96-.04-4.65-2.25-9.49-1.71-14.22-.09-4.9,1.68-8.51,4.91-11.52,9.16-3.58,5.06-7.94,9.23-14.23,11.17-8.44,2.62-16.87,5.13-25.68,6.19-5.86.71-11.61-.06-17.39-.77-8.89-1.09-17.42-3.71-26.12-5.63-13.17-2.91-26.57-4.01-39.92-1.35-5.76,1.15-11.35,3.28-16.93,5.21-11.1,3.85-20.69,10.05-28.84,18.57-4.78,5-9.97,9.6-14.93,14.43-3.73,3.63-7.17,7.57-11.12,10.93-4.06,3.45-8.39,6.67-12.94,9.42-5.83,3.52-12.23,5.64-19.21,4.97-2.01-.19-3.98-.85-6.18-1.06.76.53,1.47,1.14,2.27,1.58,4.28,2.34,8.84,2.97,13.58,1.96,4.33-.92,8.62-2.02,12.94-3.01.41-.09.89.09,1.34.14-.33.31-.6.77-.99.9-5.9,1.99-11.93,3.63-18.18,3.53-5.46-.09-10.48-1.67-13.57-6.76-.25-.41-.18-1.02-.26-1.54.5.14,1.06.16,1.48.43,5.05,3.24,10.48,3.49,16.1,2.06,4.14-1.06,8.06-2.65,11.65-5,6.7-4.38,12.81-9.41,18.38-15.19,6.28-6.53,13.04-12.61,19.37-19.1,5.84-5.99,12.4-10.99,19.91-14.53,10.07-4.75,20.47-8.75,31.66-9.96,9.83-1.06,19.66-.56,29.36,1.3,6.31,1.21,12.47,3.2,18.79,4.37,7.31,1.35,14.68,2.57,22.08,3.12,9.2.69,18.09-1.64,26.82-4.36,2.64-.82,5.25-1.74,7.87-2.62,3.59-1.22,6.3-3.49,8.65-6.49,2.68-3.42,5.57-6.74,8.76-9.68,5.79-5.34,15.46-6.46,22.64-3.14.92.42,2.13.46,3.16.33,1.41-.17,2.77-.69,4.17-1.01,3.45-.78,6.44,2.29,5.66,5.75-1.24,5.52-5.05,8.7-9.92,10.85-1.98.88-4.09,1.37-5.92,2.7-2.08,1.51-4.66,1.76-7.15,1.4-2.82-.41-5.02.6-7.01,2.41-1.38,1.25-2.82,2.43-4.15,3.73-3.93,3.84-8.26,7.05-13.49,8.91-.51.18-1.05.25-1.58.37-.07-.17-.15-.35-.22-.52Z"/><path class="cls-25" d="m271.76,112.63c-.6.37-.84.58-1.12.68-3.66,1.35-7.47,2.39-10.95,4.09-4.57,2.24-8.9,4.99-13.3,7.56-.86.5-1.58,1.22-2.37,1.84-1.76,1.38-3.56,2.71-5.27,4.15-1.56,1.31-3.09,2.66-4.52,4.1-3.85,3.9-7.41,8.12-11.53,11.72-3.86,3.37-8.27,6.1-12.44,9.12-.81.59-1.59,1.23-2.46,1.72-.32.19-.84.03-1.27.03.15-.43.18-1.03.48-1.27.67-.52,1.49-.85,2.23-1.28,9.39-5.47,17.26-12.67,24.25-20.93,1.36-1.61,3.13-2.89,4.77-4.25,1.61-1.34,3.22-2.69,4.95-3.86,3.47-2.35,6.97-4.64,10.54-6.84,4.57-2.81,9.51-4.84,14.59-6.53.68-.23,1.37-.45,2.07-.55.32-.04.67.23,1.34.49Z"/><path class="cls-27" d="m281.85,110.05c4.78-.4,9.56-.95,14.35-1.18,5.92-.28,11.6,1.38,17.35,2.55,8.5,1.72,17.03,3.29,25.6,4.6,3.55.54,7.22.22,10.84.29.24,0,.51-.09.71,0,.42.2.8.48,1.19.73-.39.26-.79.76-1.17.75-3.67-.12-7.37-.05-10.99-.58-7.11-1.04-14.19-2.39-21.26-3.7-4.4-.82-8.76-1.87-13.16-2.7-5.62-1.07-11.28-1.11-16.94-.24-1.79.27-3.59.5-5.39.66-.39.04-.82-.31-1.24-.48.04-.23.08-.46.12-.69Z"/><path class="cls-26" d="m374.46,119.78c-2.64-.35-5.38-.69-8.11-1.09-.33-.05-.6-.45-.9-.68.39-.14.78-.43,1.15-.4,1.28.1,2.55.3,3.82.48,6.52.95,12.65-.64,18.71-2.79.71-.25,1.34-.77,2.06-.98.44-.13.98.11,1.48.18-.31.4-.53.99-.93,1.17-4.05,1.72-8.28,2.82-12.64,3.41-1.51.2-3,.46-4.63.71Z"/></g><path class="cls-24" d="m291.14,113.81c.18.14.36.29.9.72-1.71.2-3.07.42-4.45.5-8.27.45-16.15,2.47-23.72,5.8-4.14,1.82-7.9,4.34-11.87,6.43-4.47,2.36-7.8,6.03-11.49,9.28-3.82,3.37-7.12,7.32-10.97,10.66-4.82,4.18-9.84,8.15-15.02,11.86-2.25,1.61-4.65,3.29-7.59,3.76-.67.11-1.17,1.04-1.83,1.46-1.07.67-2.15,1.47-3.35,1.79-3.66,1.01-7.35,2.02-11.09,2.66-4.06.69-8.15,1.64-12.33.51-3.38-.91-6.51-2.2-8.87-4.92-.47-.54-.96-1.09-1.28-1.71-.17-.34-.1-.92.09-1.26.09-.16.79-.1,1.13.06.6.28,1.16.66,1.68,1.07,3.61,2.85,7.8,2.7,12.01,2.31,1.45-.14,2.87-.67,4.31-1.02.05-.01.1-.06.13-.05,2.79.81,4.38-1.64,6.43-2.61,6.63-3.12,12.35-7.72,17.69-12.69,3.87-3.6,7.43-7.52,11.17-11.25,2.36-2.36,4.63-4.86,7.26-6.88,3.46-2.66,5.88-6.28,9.17-9.09,4.07-3.49,8.43-6.54,13.02-9.27,5.53-3.3,11.58-5.36,17.67-7.32,2.03-.65,3.98-1.6,6.05-2.05,4.18-.91,8.38-1.78,12.62-2.28,7.47-.88,14.95-.2,22.39.61,4.88.53,9.71,1.47,14.56,2.23,1.66,1.78,4.31.81,6.13,2.21.35.27.89.34,1.36.41,6.39,1.04,12.8,2.01,19.18,3.11,8.49,1.46,16.77-.08,24.93-2.03,5.68-1.36,11.19-3.48,16.72-5.44,2.67-.94,4.51-3.03,6.32-5.19,3.06-3.67,6.18-7.31,9.61-10.63,2.93-2.83,6.82-3.95,10.85-4.21,2.55-.16,5.14-.12,7.69.07,1.02.07,2.11.6,2.96,1.2,1.98,1.39,3.95.57,5.91.16,1.11-.23,2.17-.74,3.28-.96.5-.1,1.2.02,1.61.31,1.96,1.38,3.46,3.85,2.34,6.64-2.36,5.89-6.77,9.15-12.69,10.84-1.41.4-2.61,1.54-4.01,2.04-1.39.5-2.96.98-4.38.84-3.55-.34-6.58.33-9.13,2.98-1.65,1.71-3.47,3.26-5.31,4.76-.71.57-1.74.73-2.54,1.21-1.21.72-2.3,1.64-3.52,2.34-3.87,2.22-7.85,4.26-11.65,6.6-4.88,3.01-10.31,3.35-15.7,3.2-4.12-.11-8.35-.09-12.4-1.54-1.49-.54-3.27-.38-4.91-.36-7.12.1-14.24.36-21.3-1.03-7.76-1.53-15.54-2.97-23.31-4.45-3.46-.66-6.9-1.45-10.38-1.94-2.1-.3-4.26-.18-6.4-.16-1.89.01-3.83.89-5.7-.28Z"/><path class="cls-30" d="m353.42,151.2v6.03h-20.94v-4.76l10.07-9.41c2.15-2,2.46-3.23,2.46-4.34,0-1.73-1.15-2.77-3.46-2.77-1.96,0-3.73.88-4.8,2.61l-5.65-3.15c2.04-3.38,5.84-5.61,11.14-5.61,6.19,0,10.45,3.19,10.45,8.18,0,2.61-.73,4.99-4.57,8.53l-5.07,4.69h10.37Zm9.87-7.41c0-8.87,4.99-13.98,11.87-13.98s11.83,5.11,11.83,13.98-4.99,13.98-11.83,13.98-11.87-5.11-11.87-13.98Zm16.06,0c0-5.65-1.77-7.76-4.19-7.76s-4.22,2.11-4.22,7.76,1.77,7.76,4.22,7.76,4.19-2.11,4.19-7.76Zm38.42,7.41v6.03h-20.94v-4.76l10.07-9.41c2.15-2,2.46-3.23,2.46-4.34,0-1.73-1.15-2.77-3.46-2.77-1.96,0-3.73.88-4.8,2.61l-5.65-3.15c2.04-3.38,5.84-5.61,11.14-5.61,6.19,0,10.45,3.19,10.45,8.18,0,2.61-.73,4.99-4.57,8.53l-5.07,4.69h10.37Zm30.62-2.38c0,4.57-3.61,8.95-11.72,8.95-3.73,0-7.68-.92-10.45-2.65l2.77-5.72c2.15,1.46,4.92,2.23,7.45,2.23s4.26-1,4.26-2.8c0-1.61-1.19-2.61-4.11-2.61h-3.19v-4.8l4.8-5.19h-10.6v-5.88h19.44v4.76l-5.57,5.99c4.53.96,6.91,3.88,6.91,7.72Zm-237.16-19.96c1.84,0,3.68,0,5.52,0,2.12,0,4.12.57,6.05,1.45,1.98.9,3.24,2.38,3.53,4.77.26,2.14.48,4.26-.11,6.37-.52,1.89-1.51,3.28-3.23,4.19-3.38,1.79-6.93,2.54-10.67,2.53-1.44,0-1.47.05-1.45,1.61.03,2.23.13,4.47.17,6.7.03,1.45-.12,1.49-1.45,1.41-2.11-.13-4.22-.11-6.33-.18-2.12-.07-2.19-.09-2.1-2.39.28-7.49.62-14.98.93-22.47.04-1.04.05-2.08.17-3.11.03-.27.37-.7.59-.71,2.79-.19,5.59-.32,8.38-.46,0,.1,0,.2,0,.3Zm-.05,10.37h-.14c0,.75.01,1.49,0,2.24-.01.64.31,1.05.84,1.04,1.72,0,3.48.02,5.01-.92.56-.35,1.07-1.19,1.2-1.9.33-1.89-.74-3.43-2.51-3.71-.97-.15-1.98-.11-2.97-.02-1.38.13-1.38.18-1.43,1.7-.02.52,0,1.04,0,1.56Zm93.51,9.92c-1.72-.11-3.44-.17-5.15-.18-.21,0-.59.38-.6.6-.04,1.12-.63,1.84-1.52,2.04-2.06.46-4.15.77-6.23,1.12-.72.12-.97-.37-1.04-1.02-.03-.32.02-.65.04-.97.21-5.03.42-10.06.63-15.09.01-.26-.06-.56.03-.77.13-.31.34-.74.59-.81,1.34-.35,2.67-.37,3.94.43,1.68,1.07,2.95,2.53,3.9,4.36.12.22.48.42.72.42,1.78,0,3.56-.05,5.33-.12.39-.02.98-.12,1.11-.38.25-.53.37-1.12.01-1.82-1.21-2.36-2.89-4.23-4.82-5.87-3.39-2.88-7.3-3.88-11.43-2.93-5.59,1.29-9.4,5.07-11.45,10.84-2.02,5.67-.02,11.94,4.79,15.11,3.28,2.17,6.85,3.36,10.68,3.66.8.06,1.71.3,2.39,0,2.17-.95,4.34-1.97,6.36-3.24,1.6-1.01,2.51-2.75,2.83-4.84-.37-.19-.73-.51-1.11-.54Zm-37.94,8.36c-3.47,0-6.94.03-10.41-.01-1.65-.02-1.89-.38-2.41-2.03-.4-1.28-.98-2.51-1.51-3.74-.57-1.32-1.78-1.17-2.82-1.27-1.41-.15-2.83-.13-4.25-.23-.54-.04-.75.18-.86.72-.28,1.49-.57,2.98-.9,4.46-.31,1.36-.82,1.68-2.08,1.5-.92-.13-1.86-.15-2.79-.26-.27-.03-.6-.13-.76-.33-.09-.11.09-.51.2-.76.47-1.04.95-2.07,1.44-3.1,1.82-3.85,3.69-7.67,5.43-11.56,1.11-2.48,1.93-5.12,3.03-7.61.89-2.02,1.99-3.93,3.06-5.85.2-.35.75-.77,1.03-.69.43.11.89.56,1.12,1,.7,1.35,1.24,2.8,1.95,4.14,1.81,3.45,3.68,6.86,5.52,10.29,2.01,3.73,4.03,7.46,6.04,11.19.38.7.78,1.39,1.08,2.12.2.49.5,1.18.32,1.55-.2.43-.9.49-1.45.49m-17.56-17.33c-.7,1.11-1.3,1.99-1.81,2.93-.11.2.09.87.18.88.9.09,1.83.44,2.75-.23-.36-1.14-.71-2.26-1.12-3.58Zm-74.6-11.59c.91,1.78,1.65,3.34,2.47,4.84,2.06,3.74,4.09,7.51,6.25,11.18,2.18,3.7,4.51,7.29,6.73,10.95.25.42.48,1.15.3,1.48-.17.32-.88.42-1.35.42-2.84.03-5.67,0-8.51.01-.3,0-.62.04-.89.16-1.41.62-1.77.25-2.36-1.3-.43-1.13-.64-2.37-.99-3.54-.71-2.37-.1-2.1-2.65-2.24-1.87-.1-3.74-.05-5.61-.11-.67-.02-1.05.25-1.29.92-.31.88-.71,1.72-1.04,2.59-.1.25-.11.55-.13.83-.07.81-.07,1.63-.21,2.43-.03.19-.5.43-.77.42-1.45-.05-2.9-.11-4.33-.3-.48-.06-1.01-.44-1.33-.84-.12-.15.25-.86.52-1.21,1.65-2.14,3.06-4.44,4.02-7.03,1.02-2.77,2.45-5.26,4-7.72,2.24-3.54,4.27-7.24,6.39-10.86.2-.34.45-.64.78-1.1Zm-4.84,16.68c1.21-.13,2.12.04,3.04-.11.15-.02,1.97.05,1.92-.08-.4-.99-1.83-3.4-2.41-4.66-.69,1.49-1.87,3.38-2.55,4.85Z"/><path class="cls-13" d="m425.03,85.7c-.89.69-1.36,1.26-1.95,1.42-.33.09-.85-.49-1.28-.77.49-.45.93-1.02,1.5-1.28.29-.13.83.28,1.73.64Z"/><g class="cls-5"><rect class="cls-13" x="5.92" y="10.42" width="299.07" height="176.92" transform="translate(7.43 -10.81) rotate(4.08)"/><g class="cls-2"><g class="cls-3"><polygon class="cls-23" points="148.56 107.76 150.23 123.26 146.49 122.8 148.34 107.73 148.56 107.76"/><polygon class="cls-23" points="150.23 123.26 148.56 107.76 152.94 108.29 151.09 123.36 150.23 123.26"/><polygon class="cls-21" points="84.65 113.17 86.08 113.02 90.99 113.62 88.76 131.84 82.46 131.06 84.65 113.17"/><polygon class="cls-14" points="236.06 82.68 237.09 92.19 234.93 91.92 236.06 82.68"/><polygon class="cls-20" points="243.98 81.42 244.33 84.69 243.37 92.51 241.43 92.72 237.09 92.19 236.06 82.68 236.33 80.48 243.98 81.42"/><polygon class="cls-20" points="244.33 84.69 243.98 81.42 244.72 81.51 244.33 84.69"/><polygon class="cls-23" points="155.74 111.04 156.71 120 154.68 119.75 155.74 111.04"/><polygon class="cls-10" points="158.67 87.17 159.99 87.03 163.63 120.84 156.71 120 155.74 111.04 158.67 87.17"/><polygon class="cls-10" points="159.99 87.03 165.77 86.41 168.68 86.76 172.3 120.35 165.56 121.08 163.63 120.84 159.99 87.03"/><polygon class="cls-8" points="172.67 120.31 172.3 120.35 168.68 86.76 176.66 87.74 172.67 120.31"/><polygon class="cls-17" points="47.51 117.18 69.72 114.78 71.05 127.13 51.01 129.29 47.51 117.18"/><polygon class="cls-21" points="69.72 114.78 73.32 114.39 78.23 114.99 76.82 126.5 71.05 127.13 69.72 114.78"/><polygon class="cls-17" points="64.45 99.52 68.03 99.13 69.63 113.98 62.78 113.14 64.45 99.52"/><polygon class="cls-21" points="68.03 99.13 77.89 98.07 82.8 98.67 80.94 113.88 74.51 114.58 69.63 113.98 68.03 99.13"/><polygon class="cls-19" points="109.36 98.69 111.45 118.08 104.16 117.19 106.46 98.34 109.36 98.69"/><polygon class="cls-19" points="111.45 118.08 109.36 98.69 115.47 99.44 113.17 118.29 111.45 118.08"/><polygon class="cls-19" points="113.36 92.79 118.66 92.22 119.26 92.29 120.37 102.56 112.29 101.57 113.36 92.79"/><polygon class="cls-16" points="120.37 102.56 119.26 92.29 123.57 92.82 122.35 102.8 120.37 102.56"/><polygon class="cls-19" points="121.94 117.12 123 126.95 116.33 126.13 117.5 116.57 121.94 117.12"/><polygon class="cls-16" points="123 126.95 121.94 117.12 124.28 117.4 123.11 126.96 123 126.95"/><polygon class="cls-19" points="122.08 118.49 122.44 121.82 121.69 121.73 122.08 118.49"/><polygon class="cls-16" points="130.01 93.79 133.17 123.13 122.44 121.82 122.08 118.49 125.18 93.2 130.01 93.79"/><polygon class="cls-16" points="138.65 94.85 139.35 101.34 136.63 123.55 133.17 123.13 130.01 93.79 138.65 94.85"/><polygon class="cls-23" points="139.35 101.34 138.65 94.85 140.12 95.03 139.35 101.34"/><polygon class="cls-9" points="201.98 104.18 202.02 104.17 202.9 104.28 204.23 116.6 200.52 116.14 201.98 104.18"/><polygon class="cls-12" points="207.78 104.88 208.12 107.99 207.02 116.94 204.23 116.6 202.9 104.28 207.78 104.88"/><polygon class="cls-12" points="208.12 107.99 207.78 104.88 208.49 104.96 208.12 107.99"/><polygon class="cls-8" points="178.03 92.64 181.28 122.79 180.12 122.92 174.41 122.22 178.03 92.64"/><polygon class="cls-8" points="178.73 86.96 179.03 86.93 182.87 122.62 181.28 122.79 178.03 92.64 178.73 86.96"/><rect class="cls-22" x="180.95" y="86.74" width="1.6" height="35.9" transform="translate(-10.17 20.08) rotate(-6.15)"/><rect class="cls-22" x="182.54" y="86.57" width="1.58" height="35.9" transform="translate(-10.15 20.25) rotate(-6.15)"/><rect class="cls-18" x="184.11" y="86.4" width="1.58" height="35.9" transform="translate(-10.12 20.42) rotate(-6.15)"/><polygon class="cls-18" points="183.76 86.42 185.85 86.19 189.99 86.7 193.73 121.45 187.61 122.11 183.76 86.42"/><polygon class="cls-9" points="196.27 87.47 199.86 120.79 193.73 121.45 189.99 86.7 196.27 87.47"/><polygon class="cls-9" points="201.15 88.06 203.9 113.52 203.05 120.45 199.86 120.79 196.27 87.47 201.15 88.06"/><polygon class="cls-12" points="206.04 88.66 206.46 92.58 203.9 113.52 201.15 88.06 206.04 88.66"/><polygon class="cls-12" points="206.46 92.58 206.04 88.66 206.93 88.77 206.46 92.58"/><polygon class="cls-14" points="227.92 103.33 230.15 103.09 230.21 103.1 231.19 112.15 226.91 111.63 227.92 103.33"/><polygon class="cls-14" points="234.02 112.24 232.88 112.36 231.19 112.15 230.21 103.1 235.06 103.69 234.02 112.24"/><polygon class="cls-14" points="228.68 88.9 230.05 101.65 229.37 107.26 227.13 107.5 219.85 106.61 222.12 88.1 228.68 88.9"/><polygon class="cls-14" points="230.05 101.65 228.68 88.9 231.57 89.26 230.05 101.65"/><polygon class="cls-14" points="238.48 105.09 239.08 110.72 237.81 110.57 238.48 105.09"/><polygon class="cls-20" points="246.07 100.82 247.17 111 244.08 111.34 239.08 110.72 238.48 105.09 239.11 99.97 246.07 100.82"/><polygon class="cls-20" points="250.14 110.68 247.17 111 246.07 100.82 251.27 101.45 250.14 110.68"/><rect class="cls-20" x="243.17" y="89.09" width="12.33" height="4.3" transform="translate(128.48 327.65) rotate(-83.02)"/><polygon class="cls-20" points="256.64 96.09 256.67 96.09 257.94 96.24 259.68 112.38 259.45 114.21 254.49 113.6 256.64 96.09"/><polygon class="cls-6" points="259.68 112.38 257.94 96.24 261.6 96.69 259.68 112.38"/><polygon class="cls-20" points="256.19 80.05 257.71 94.08 254.52 93.69 256.19 80.05"/><polygon class="cls-6" points="256.67 76.12 263.21 75.42 268.12 76.02 269.53 89.08 268.75 95.43 257.71 94.08 256.19 80.05 256.67 76.12"/><polygon class="cls-6" points="269.53 89.08 268.12 76.02 271.08 76.38 269.53 89.08"/></g><polygon class="cls-11" points="29.23 148.98 23.82 150.02 22.02 155.24 25.63 159.4 31.04 158.35 32.84 153.14 29.23 148.98"/><polygon class="cls-15" points="48.94 158.59 44.63 153.63 45.9 149.93 45.89 149.93 39.34 155.61 40.98 164.12 49.18 166.96 55.73 161.28 54.99 157.42 48.94 158.59"/></g></g><path class="cls-7" d="m52.59,113.08c-.17.71-.17,1.19-.4,1.51-.13.18-.63.1-.96.13.07-.43.05-.89.23-1.26.09-.18.54-.2,1.13-.38Z"/><path class="cls-7" d="m31.09,144.73c.11.13.06.33-.1.4-.38.16-.65.3-.89.28-.13,0-.23-.23-.33-.44-.06-.12-.01-.27.11-.34.25-.13.5-.28.76-.31.12-.01.25.16.45.4Z"/></g></g></g></svg>