<?xml version="1.0" standalone="no"?>
<svg xmlns="http://www.w3.org/2000/svg" width="500" height="500"><defs><clipPath id="clip-path-dot-color"><rect x="28" y="148" width="12" height="12" transform="rotate(0,34,154)"/><rect x="28" y="184" width="12" height="12" transform="rotate(0,34,190)"/><rect x="28" y="196" width="12" height="12" transform="rotate(0,34,202)"/><rect x="28" y="256" width="12" height="12" transform="rotate(0,34,262)"/><rect x="28" y="280" width="12" height="12" transform="rotate(0,34,286)"/><rect x="28" y="304" width="12" height="12" transform="rotate(0,34,310)"/><rect x="28" y="316" width="12" height="12" transform="rotate(0,34,322)"/><rect x="28" y="328" width="12" height="12" transform="rotate(0,34,334)"/><rect x="28" y="340" width="12" height="12" transform="rotate(0,34,346)"/><rect x="28" y="364" width="12" height="12" transform="rotate(0,34,370)"/><rect x="40" y="160" width="12" height="12" transform="rotate(0,46,166)"/><rect x="40" y="172" width="12" height="12" transform="rotate(0,46,178)"/><rect x="40" y="184" width="12" height="12" transform="rotate(0,46,190)"/><rect x="40" y="256" width="12" height="12" transform="rotate(0,46,262)"/><rect x="40" y="268" width="12" height="12" transform="rotate(0,46,274)"/><rect x="40" y="292" width="12" height="12" transform="rotate(0,46,298)"/><rect x="40" y="316" width="12" height="12" transform="rotate(0,46,322)"/><rect x="40" y="364" width="12" height="12" transform="rotate(0,46,370)"/><rect x="52" y="136" width="12" height="12" transform="rotate(0,58,142)"/><rect x="52" y="148" width="12" height="12" transform="rotate(0,58,154)"/><rect x="52" y="160" width="12" height="12" transform="rotate(0,58,166)"/><rect x="52" y="184" width="12" height="12" transform="rotate(0,58,190)"/><rect x="52" y="244" width="12" height="12" transform="rotate(0,58,250)"/><rect x="52" y="256" width="12" height="12" transform="rotate(0,58,262)"/><rect x="52" y="280" width="12" height="12" transform="rotate(0,58,286)"/><rect x="52" y="292" width="12" height="12" transform="rotate(0,58,298)"/><rect x="52" y="304" width="12" height="12" transform="rotate(0,58,310)"/><rect x="52" y="316" width="12" height="12" transform="rotate(0,58,322)"/><rect x="52" y="328" width="12" height="12" transform="rotate(0,58,334)"/><rect x="52" y="340" width="12" height="12" transform="rotate(0,58,346)"/><rect x="52" y="364" width="12" height="12" transform="rotate(0,58,370)"/><rect x="64" y="124" width="12" height="12" transform="rotate(0,70,130)"/><rect x="64" y="160" width="12" height="12" transform="rotate(0,70,166)"/><rect x="64" y="172" width="12" height="12" transform="rotate(0,70,178)"/><rect x="64" y="184" width="12" height="12" transform="rotate(0,70,190)"/><rect x="64" y="196" width="12" height="12" transform="rotate(0,70,202)"/><rect x="64" y="220" width="12" height="12" transform="rotate(0,70,226)"/><rect x="64" y="232" width="12" height="12" transform="rotate(0,70,238)"/><rect x="64" y="280" width="12" height="12" transform="rotate(0,70,286)"/><rect x="64" y="292" width="12" height="12" transform="rotate(0,70,298)"/><rect x="64" y="316" width="12" height="12" transform="rotate(0,70,322)"/><rect x="64" y="328" width="12" height="12" transform="rotate(0,70,334)"/><rect x="64" y="352" width="12" height="12" transform="rotate(0,70,358)"/><rect x="76" y="136" width="12" height="12" transform="rotate(0,82,142)"/><rect x="76" y="220" width="12" height="12" transform="rotate(0,82,226)"/><rect x="76" y="232" width="12" height="12" transform="rotate(0,82,238)"/><rect x="76" y="244" width="12" height="12" transform="rotate(0,82,250)"/><rect x="76" y="256" width="12" height="12" transform="rotate(0,82,262)"/><rect x="76" y="268" width="12" height="12" transform="rotate(0,82,274)"/><rect x="76" y="292" width="12" height="12" transform="rotate(0,82,298)"/><rect x="76" y="364" width="12" height="12" transform="rotate(0,82,370)"/><rect x="88" y="124" width="12" height="12" transform="rotate(0,94,130)"/><rect x="88" y="136" width="12" height="12" transform="rotate(0,94,142)"/><rect x="88" y="148" width="12" height="12" transform="rotate(0,94,154)"/><rect x="88" y="160" width="12" height="12" transform="rotate(0,94,166)"/><rect x="88" y="172" width="12" height="12" transform="rotate(0,94,178)"/><rect x="88" y="184" width="12" height="12" transform="rotate(0,94,190)"/><rect x="88" y="220" width="12" height="12" transform="rotate(0,94,226)"/><rect x="88" y="244" width="12" height="12" transform="rotate(0,94,250)"/><rect x="88" y="280" width="12" height="12" transform="rotate(0,94,286)"/><rect x="88" y="292" width="12" height="12" transform="rotate(0,94,298)"/><rect x="88" y="340" width="12" height="12" transform="rotate(0,94,346)"/><rect x="88" y="364" width="12" height="12" transform="rotate(0,94,370)"/><rect x="100" y="124" width="12" height="12" transform="rotate(0,106,130)"/><rect x="100" y="148" width="12" height="12" transform="rotate(0,106,154)"/><rect x="100" y="172" width="12" height="12" transform="rotate(0,106,178)"/><rect x="100" y="196" width="12" height="12" transform="rotate(0,106,202)"/><rect x="100" y="220" width="12" height="12" transform="rotate(0,106,226)"/><rect x="100" y="244" width="12" height="12" transform="rotate(0,106,250)"/><rect x="100" y="268" width="12" height="12" transform="rotate(0,106,274)"/><rect x="100" y="292" width="12" height="12" transform="rotate(0,106,298)"/><rect x="100" y="316" width="12" height="12" transform="rotate(0,106,322)"/><rect x="100" y="340" width="12" height="12" transform="rotate(0,106,346)"/><rect x="100" y="364" width="12" height="12" transform="rotate(0,106,370)"/><rect x="112" y="124" width="12" height="12" transform="rotate(0,118,130)"/><rect x="112" y="136" width="12" height="12" transform="rotate(0,118,142)"/><rect x="112" y="148" width="12" height="12" transform="rotate(0,118,154)"/><rect x="112" y="160" width="12" height="12" transform="rotate(0,118,166)"/><rect x="112" y="184" width="12" height="12" transform="rotate(0,118,190)"/><rect x="112" y="196" width="12" height="12" transform="rotate(0,118,202)"/><rect x="112" y="208" width="12" height="12" transform="rotate(0,118,214)"/><rect x="112" y="220" width="12" height="12" transform="rotate(0,118,226)"/><rect x="112" y="232" width="12" height="12" transform="rotate(0,118,238)"/><rect x="112" y="244" width="12" height="12" transform="rotate(0,118,250)"/><rect x="112" y="256" width="12" height="12" transform="rotate(0,118,262)"/><rect x="112" y="268" width="12" height="12" transform="rotate(0,118,274)"/><rect x="112" y="292" width="12" height="12" transform="rotate(0,118,298)"/><rect x="112" y="316" width="12" height="12" transform="rotate(0,118,322)"/><rect x="112" y="352" width="12" height="12" transform="rotate(0,118,358)"/><rect x="112" y="364" width="12" height="12" transform="rotate(0,118,370)"/><rect x="124" y="40" width="12" height="12" transform="rotate(0,130,46)"/><rect x="124" y="52" width="12" height="12" transform="rotate(0,130,58)"/><rect x="124" y="100" width="12" height="12" transform="rotate(0,130,106)"/><rect x="124" y="136" width="12" height="12" transform="rotate(0,130,142)"/><rect x="124" y="160" width="12" height="12" transform="rotate(0,130,166)"/><rect x="124" y="172" width="12" height="12" transform="rotate(0,130,178)"/><rect x="124" y="196" width="12" height="12" transform="rotate(0,130,202)"/><rect x="124" y="316" width="12" height="12" transform="rotate(0,130,322)"/><rect x="124" y="328" width="12" height="12" transform="rotate(0,130,334)"/><rect x="124" y="340" width="12" height="12" transform="rotate(0,130,346)"/><rect x="124" y="364" width="12" height="12" transform="rotate(0,130,370)"/><rect x="124" y="388" width="12" height="12" transform="rotate(0,130,394)"/><rect x="124" y="400" width="12" height="12" transform="rotate(0,130,406)"/><rect x="124" y="424" width="12" height="12" transform="rotate(0,130,430)"/><rect x="136" y="40" width="12" height="12" transform="rotate(0,142,46)"/><rect x="136" y="52" width="12" height="12" transform="rotate(0,142,58)"/><rect x="136" y="64" width="12" height="12" transform="rotate(0,142,70)"/><rect x="136" y="76" width="12" height="12" transform="rotate(0,142,82)"/><rect x="136" y="88" width="12" height="12" transform="rotate(0,142,94)"/><rect x="136" y="112" width="12" height="12" transform="rotate(0,142,118)"/><rect x="136" y="172" width="12" height="12" transform="rotate(0,142,178)"/><rect x="136" y="184" width="12" height="12" transform="rotate(0,142,190)"/><rect x="136" y="208" width="12" height="12" transform="rotate(0,142,214)"/><rect x="136" y="220" width="12" height="12" transform="rotate(0,142,226)"/><rect x="136" y="232" width="12" height="12" transform="rotate(0,142,238)"/><rect x="136" y="244" width="12" height="12" transform="rotate(0,142,250)"/><rect x="136" y="256" width="12" height="12" transform="rotate(0,142,262)"/><rect x="136" y="268" width="12" height="12" transform="rotate(0,142,274)"/><rect x="136" y="292" width="12" height="12" transform="rotate(0,142,298)"/><rect x="136" y="304" width="12" height="12" transform="rotate(0,142,310)"/><rect x="136" y="328" width="12" height="12" transform="rotate(0,142,334)"/><rect x="136" y="352" width="12" height="12" transform="rotate(0,142,358)"/><rect x="136" y="364" width="12" height="12" transform="rotate(0,142,370)"/><rect x="136" y="388" width="12" height="12" transform="rotate(0,142,394)"/><rect x="136" y="400" width="12" height="12" transform="rotate(0,142,406)"/><rect x="136" y="424" width="12" height="12" transform="rotate(0,142,430)"/><rect x="136" y="460" width="12" height="12" transform="rotate(0,142,466)"/><rect x="148" y="40" width="12" height="12" transform="rotate(0,154,46)"/><rect x="148" y="52" width="12" height="12" transform="rotate(0,154,58)"/><rect x="148" y="100" width="12" height="12" transform="rotate(0,154,106)"/><rect x="148" y="112" width="12" height="12" transform="rotate(0,154,118)"/><rect x="148" y="124" width="12" height="12" transform="rotate(0,154,130)"/><rect x="148" y="148" width="12" height="12" transform="rotate(0,154,154)"/><rect x="148" y="160" width="12" height="12" transform="rotate(0,154,166)"/><rect x="148" y="196" width="12" height="12" transform="rotate(0,154,202)"/><rect x="148" y="208" width="12" height="12" transform="rotate(0,154,214)"/><rect x="148" y="232" width="12" height="12" transform="rotate(0,154,238)"/><rect x="148" y="256" width="12" height="12" transform="rotate(0,154,262)"/><rect x="148" y="280" width="12" height="12" transform="rotate(0,154,286)"/><rect x="148" y="304" width="12" height="12" transform="rotate(0,154,310)"/><rect x="148" y="316" width="12" height="12" transform="rotate(0,154,322)"/><rect x="148" y="352" width="12" height="12" transform="rotate(0,154,358)"/><rect x="148" y="376" width="12" height="12" transform="rotate(0,154,382)"/><rect x="148" y="388" width="12" height="12" transform="rotate(0,154,394)"/><rect x="148" y="400" width="12" height="12" transform="rotate(0,154,406)"/><rect x="148" y="424" width="12" height="12" transform="rotate(0,154,430)"/><rect x="148" y="436" width="12" height="12" transform="rotate(0,154,442)"/><rect x="148" y="460" width="12" height="12" transform="rotate(0,154,466)"/><rect x="160" y="28" width="12" height="12" transform="rotate(0,166,34)"/><rect x="160" y="40" width="12" height="12" transform="rotate(0,166,46)"/><rect x="160" y="76" width="12" height="12" transform="rotate(0,166,82)"/><rect x="160" y="148" width="12" height="12" transform="rotate(0,166,154)"/><rect x="160" y="172" width="12" height="12" transform="rotate(0,166,178)"/><rect x="160" y="220" width="12" height="12" transform="rotate(0,166,226)"/><rect x="160" y="232" width="12" height="12" transform="rotate(0,166,238)"/><rect x="160" y="244" width="12" height="12" transform="rotate(0,166,250)"/><rect x="160" y="256" width="12" height="12" transform="rotate(0,166,262)"/><rect x="160" y="268" width="12" height="12" transform="rotate(0,166,274)"/><rect x="160" y="316" width="12" height="12" transform="rotate(0,166,322)"/><rect x="160" y="340" width="12" height="12" transform="rotate(0,166,346)"/><rect x="160" y="364" width="12" height="12" transform="rotate(0,166,370)"/><rect x="160" y="400" width="12" height="12" transform="rotate(0,166,406)"/><rect x="160" y="412" width="12" height="12" transform="rotate(0,166,418)"/><rect x="160" y="424" width="12" height="12" transform="rotate(0,166,430)"/><rect x="172" y="28" width="12" height="12" transform="rotate(0,178,34)"/><rect x="172" y="64" width="12" height="12" transform="rotate(0,178,70)"/><rect x="172" y="88" width="12" height="12" transform="rotate(0,178,94)"/><rect x="172" y="100" width="12" height="12" transform="rotate(0,178,106)"/><rect x="172" y="112" width="12" height="12" transform="rotate(0,178,118)"/><rect x="172" y="124" width="12" height="12" transform="rotate(0,178,130)"/><rect x="172" y="148" width="12" height="12" transform="rotate(0,178,154)"/><rect x="172" y="172" width="12" height="12" transform="rotate(0,178,178)"/><rect x="172" y="208" width="12" height="12" transform="rotate(0,178,214)"/><rect x="172" y="220" width="12" height="12" transform="rotate(0,178,226)"/><rect x="172" y="232" width="12" height="12" transform="rotate(0,178,238)"/><rect x="172" y="244" width="12" height="12" transform="rotate(0,178,250)"/><rect x="172" y="268" width="12" height="12" transform="rotate(0,178,274)"/><rect x="172" y="292" width="12" height="12" transform="rotate(0,178,298)"/><rect x="172" y="304" width="12" height="12" transform="rotate(0,178,310)"/><rect x="172" y="316" width="12" height="12" transform="rotate(0,178,322)"/><rect x="172" y="388" width="12" height="12" transform="rotate(0,178,394)"/><rect x="172" y="400" width="12" height="12" transform="rotate(0,178,406)"/><rect x="172" y="424" width="12" height="12" transform="rotate(0,178,430)"/><rect x="172" y="448" width="12" height="12" transform="rotate(0,178,454)"/><rect x="172" y="460" width="12" height="12" transform="rotate(0,178,466)"/><rect x="184" y="52" width="12" height="12" transform="rotate(0,190,58)"/><rect x="184" y="88" width="12" height="12" transform="rotate(0,190,94)"/><rect x="184" y="112" width="12" height="12" transform="rotate(0,190,118)"/><rect x="184" y="160" width="12" height="12" transform="rotate(0,190,166)"/><rect x="184" y="172" width="12" height="12" transform="rotate(0,190,178)"/><rect x="184" y="196" width="12" height="12" transform="rotate(0,190,202)"/><rect x="184" y="208" width="12" height="12" transform="rotate(0,190,214)"/><rect x="184" y="232" width="12" height="12" transform="rotate(0,190,238)"/><rect x="184" y="268" width="12" height="12" transform="rotate(0,190,274)"/><rect x="184" y="280" width="12" height="12" transform="rotate(0,190,286)"/><rect x="184" y="304" width="12" height="12" transform="rotate(0,190,310)"/><rect x="184" y="316" width="12" height="12" transform="rotate(0,190,322)"/><rect x="184" y="328" width="12" height="12" transform="rotate(0,190,334)"/><rect x="184" y="340" width="12" height="12" transform="rotate(0,190,346)"/><rect x="184" y="352" width="12" height="12" transform="rotate(0,190,358)"/><rect x="184" y="376" width="12" height="12" transform="rotate(0,190,382)"/><rect x="184" y="388" width="12" height="12" transform="rotate(0,190,394)"/><rect x="184" y="400" width="12" height="12" transform="rotate(0,190,406)"/><rect x="184" y="436" width="12" height="12" transform="rotate(0,190,442)"/><rect x="184" y="448" width="12" height="12" transform="rotate(0,190,454)"/><rect x="184" y="460" width="12" height="12" transform="rotate(0,190,466)"/><rect x="196" y="28" width="12" height="12" transform="rotate(0,202,34)"/><rect x="196" y="52" width="12" height="12" transform="rotate(0,202,58)"/><rect x="196" y="64" width="12" height="12" transform="rotate(0,202,70)"/><rect x="196" y="88" width="12" height="12" transform="rotate(0,202,94)"/><rect x="196" y="100" width="12" height="12" transform="rotate(0,202,106)"/><rect x="196" y="112" width="12" height="12" transform="rotate(0,202,118)"/><rect x="196" y="124" width="12" height="12" transform="rotate(0,202,130)"/><rect x="196" y="136" width="12" height="12" transform="rotate(0,202,142)"/><rect x="196" y="148" width="12" height="12" transform="rotate(0,202,154)"/><rect x="196" y="196" width="12" height="12" transform="rotate(0,202,202)"/><rect x="196" y="232" width="12" height="12" transform="rotate(0,202,238)"/><rect x="196" y="244" width="12" height="12" transform="rotate(0,202,250)"/><rect x="196" y="256" width="12" height="12" transform="rotate(0,202,262)"/><rect x="196" y="304" width="12" height="12" transform="rotate(0,202,310)"/><rect x="196" y="352" width="12" height="12" transform="rotate(0,202,358)"/><rect x="196" y="364" width="12" height="12" transform="rotate(0,202,370)"/><rect x="196" y="376" width="12" height="12" transform="rotate(0,202,382)"/><rect x="196" y="388" width="12" height="12" transform="rotate(0,202,394)"/><rect x="196" y="400" width="12" height="12" transform="rotate(0,202,406)"/><rect x="196" y="424" width="12" height="12" transform="rotate(0,202,430)"/><rect x="196" y="436" width="12" height="12" transform="rotate(0,202,442)"/><rect x="196" y="460" width="12" height="12" transform="rotate(0,202,466)"/><rect x="208" y="28" width="12" height="12" transform="rotate(0,214,34)"/><rect x="208" y="64" width="12" height="12" transform="rotate(0,214,70)"/><rect x="208" y="76" width="12" height="12" transform="rotate(0,214,82)"/><rect x="208" y="112" width="12" height="12" transform="rotate(0,214,118)"/><rect x="208" y="136" width="12" height="12" transform="rotate(0,214,142)"/><rect x="208" y="160" width="12" height="12" transform="rotate(0,214,166)"/><rect x="208" y="184" width="12" height="12" transform="rotate(0,214,190)"/><rect x="208" y="196" width="12" height="12" transform="rotate(0,214,202)"/><rect x="208" y="208" width="12" height="12" transform="rotate(0,214,214)"/><rect x="208" y="256" width="12" height="12" transform="rotate(0,214,262)"/><rect x="208" y="268" width="12" height="12" transform="rotate(0,214,274)"/><rect x="208" y="280" width="12" height="12" transform="rotate(0,214,286)"/><rect x="208" y="352" width="12" height="12" transform="rotate(0,214,358)"/><rect x="208" y="376" width="12" height="12" transform="rotate(0,214,382)"/><rect x="208" y="388" width="12" height="12" transform="rotate(0,214,394)"/><rect x="208" y="400" width="12" height="12" transform="rotate(0,214,406)"/><rect x="208" y="412" width="12" height="12" transform="rotate(0,214,418)"/><rect x="208" y="424" width="12" height="12" transform="rotate(0,214,430)"/><rect x="208" y="460" width="12" height="12" transform="rotate(0,214,466)"/><rect x="220" y="28" width="12" height="12" transform="rotate(0,226,34)"/><rect x="220" y="64" width="12" height="12" transform="rotate(0,226,70)"/><rect x="220" y="100" width="12" height="12" transform="rotate(0,226,106)"/><rect x="220" y="112" width="12" height="12" transform="rotate(0,226,118)"/><rect x="220" y="136" width="12" height="12" transform="rotate(0,226,142)"/><rect x="220" y="148" width="12" height="12" transform="rotate(0,226,154)"/><rect x="220" y="160" width="12" height="12" transform="rotate(0,226,166)"/><rect x="220" y="268" width="12" height="12" transform="rotate(0,226,274)"/><rect x="220" y="280" width="12" height="12" transform="rotate(0,226,286)"/><rect x="220" y="316" width="12" height="12" transform="rotate(0,226,322)"/><rect x="220" y="352" width="12" height="12" transform="rotate(0,226,358)"/><rect x="220" y="364" width="12" height="12" transform="rotate(0,226,370)"/><rect x="220" y="376" width="12" height="12" transform="rotate(0,226,382)"/><rect x="220" y="388" width="12" height="12" transform="rotate(0,226,394)"/><rect x="220" y="400" width="12" height="12" transform="rotate(0,226,406)"/><rect x="232" y="40" width="12" height="12" transform="rotate(0,238,46)"/><rect x="232" y="64" width="12" height="12" transform="rotate(0,238,70)"/><rect x="232" y="136" width="12" height="12" transform="rotate(0,238,142)"/><rect x="232" y="220" width="12" height="12" transform="rotate(0,238,226)"/><rect x="232" y="232" width="12" height="12" transform="rotate(0,238,238)"/><rect x="232" y="244" width="12" height="12" transform="rotate(0,238,250)"/><rect x="232" y="256" width="12" height="12" transform="rotate(0,238,262)"/><rect x="232" y="268" width="12" height="12" transform="rotate(0,238,274)"/><rect x="232" y="316" width="12" height="12" transform="rotate(0,238,322)"/><rect x="232" y="352" width="12" height="12" transform="rotate(0,238,358)"/><rect x="232" y="364" width="12" height="12" transform="rotate(0,238,370)"/><rect x="232" y="376" width="12" height="12" transform="rotate(0,238,382)"/><rect x="232" y="388" width="12" height="12" transform="rotate(0,238,394)"/><rect x="232" y="400" width="12" height="12" transform="rotate(0,238,406)"/><rect x="232" y="460" width="12" height="12" transform="rotate(0,238,466)"/><rect x="244" y="88" width="12" height="12" transform="rotate(0,250,94)"/><rect x="244" y="100" width="12" height="12" transform="rotate(0,250,106)"/><rect x="244" y="124" width="12" height="12" transform="rotate(0,250,130)"/><rect x="244" y="160" width="12" height="12" transform="rotate(0,250,166)"/><rect x="244" y="172" width="12" height="12" transform="rotate(0,250,178)"/><rect x="244" y="196" width="12" height="12" transform="rotate(0,250,202)"/><rect x="244" y="232" width="12" height="12" transform="rotate(0,250,238)"/><rect x="244" y="256" width="12" height="12" transform="rotate(0,250,262)"/><rect x="244" y="268" width="12" height="12" transform="rotate(0,250,274)"/><rect x="244" y="280" width="12" height="12" transform="rotate(0,250,286)"/><rect x="244" y="316" width="12" height="12" transform="rotate(0,250,322)"/><rect x="244" y="340" width="12" height="12" transform="rotate(0,250,346)"/><rect x="244" y="352" width="12" height="12" transform="rotate(0,250,358)"/><rect x="244" y="388" width="12" height="12" transform="rotate(0,250,394)"/><rect x="244" y="412" width="12" height="12" transform="rotate(0,250,418)"/><rect x="244" y="424" width="12" height="12" transform="rotate(0,250,430)"/><rect x="244" y="436" width="12" height="12" transform="rotate(0,250,442)"/><rect x="244" y="460" width="12" height="12" transform="rotate(0,250,466)"/><rect x="256" y="28" width="12" height="12" transform="rotate(0,262,34)"/><rect x="256" y="88" width="12" height="12" transform="rotate(0,262,94)"/><rect x="256" y="112" width="12" height="12" transform="rotate(0,262,118)"/><rect x="256" y="136" width="12" height="12" transform="rotate(0,262,142)"/><rect x="256" y="160" width="12" height="12" transform="rotate(0,262,166)"/><rect x="256" y="184" width="12" height="12" transform="rotate(0,262,190)"/><rect x="256" y="196" width="12" height="12" transform="rotate(0,262,202)"/><rect x="256" y="220" width="12" height="12" transform="rotate(0,262,226)"/><rect x="256" y="244" width="12" height="12" transform="rotate(0,262,250)"/><rect x="256" y="256" width="12" height="12" transform="rotate(0,262,262)"/><rect x="256" y="292" width="12" height="12" transform="rotate(0,262,298)"/><rect x="256" y="304" width="12" height="12" transform="rotate(0,262,310)"/><rect x="256" y="316" width="12" height="12" transform="rotate(0,262,322)"/><rect x="256" y="352" width="12" height="12" transform="rotate(0,262,358)"/><rect x="256" y="448" width="12" height="12" transform="rotate(0,262,454)"/><rect x="268" y="28" width="12" height="12" transform="rotate(0,274,34)"/><rect x="268" y="52" width="12" height="12" transform="rotate(0,274,58)"/><rect x="268" y="88" width="12" height="12" transform="rotate(0,274,94)"/><rect x="268" y="100" width="12" height="12" transform="rotate(0,274,106)"/><rect x="268" y="124" width="12" height="12" transform="rotate(0,274,130)"/><rect x="268" y="136" width="12" height="12" transform="rotate(0,274,142)"/><rect x="268" y="160" width="12" height="12" transform="rotate(0,274,166)"/><rect x="268" y="172" width="12" height="12" transform="rotate(0,274,178)"/><rect x="268" y="196" width="12" height="12" transform="rotate(0,274,202)"/><rect x="268" y="232" width="12" height="12" transform="rotate(0,274,238)"/><rect x="268" y="256" width="12" height="12" transform="rotate(0,274,262)"/><rect x="268" y="316" width="12" height="12" transform="rotate(0,274,322)"/><rect x="268" y="340" width="12" height="12" transform="rotate(0,274,346)"/><rect x="268" y="352" width="12" height="12" transform="rotate(0,274,358)"/><rect x="268" y="364" width="12" height="12" transform="rotate(0,274,370)"/><rect x="268" y="388" width="12" height="12" transform="rotate(0,274,394)"/><rect x="268" y="460" width="12" height="12" transform="rotate(0,274,466)"/><rect x="280" y="40" width="12" height="12" transform="rotate(0,286,46)"/><rect x="280" y="52" width="12" height="12" transform="rotate(0,286,58)"/><rect x="280" y="64" width="12" height="12" transform="rotate(0,286,70)"/><rect x="280" y="112" width="12" height="12" transform="rotate(0,286,118)"/><rect x="280" y="124" width="12" height="12" transform="rotate(0,286,130)"/><rect x="280" y="136" width="12" height="12" transform="rotate(0,286,142)"/><rect x="280" y="172" width="12" height="12" transform="rotate(0,286,178)"/><rect x="280" y="208" width="12" height="12" transform="rotate(0,286,214)"/><rect x="280" y="220" width="12" height="12" transform="rotate(0,286,226)"/><rect x="280" y="244" width="12" height="12" transform="rotate(0,286,250)"/><rect x="280" y="256" width="12" height="12" transform="rotate(0,286,262)"/><rect x="280" y="268" width="12" height="12" transform="rotate(0,286,274)"/><rect x="280" y="292" width="12" height="12" transform="rotate(0,286,298)"/><rect x="280" y="304" width="12" height="12" transform="rotate(0,286,310)"/><rect x="280" y="316" width="12" height="12" transform="rotate(0,286,322)"/><rect x="280" y="328" width="12" height="12" transform="rotate(0,286,334)"/><rect x="280" y="340" width="12" height="12" transform="rotate(0,286,346)"/><rect x="280" y="352" width="12" height="12" transform="rotate(0,286,358)"/><rect x="280" y="388" width="12" height="12" transform="rotate(0,286,394)"/><rect x="280" y="400" width="12" height="12" transform="rotate(0,286,406)"/><rect x="280" y="460" width="12" height="12" transform="rotate(0,286,466)"/><rect x="292" y="28" width="12" height="12" transform="rotate(0,298,34)"/><rect x="292" y="52" width="12" height="12" transform="rotate(0,298,58)"/><rect x="292" y="76" width="12" height="12" transform="rotate(0,298,82)"/><rect x="292" y="88" width="12" height="12" transform="rotate(0,298,94)"/><rect x="292" y="100" width="12" height="12" transform="rotate(0,298,106)"/><rect x="292" y="172" width="12" height="12" transform="rotate(0,298,178)"/><rect x="292" y="196" width="12" height="12" transform="rotate(0,298,202)"/><rect x="292" y="208" width="12" height="12" transform="rotate(0,298,214)"/><rect x="292" y="232" width="12" height="12" transform="rotate(0,298,238)"/><rect x="292" y="268" width="12" height="12" transform="rotate(0,298,274)"/><rect x="292" y="280" width="12" height="12" transform="rotate(0,298,286)"/><rect x="292" y="292" width="12" height="12" transform="rotate(0,298,298)"/><rect x="292" y="304" width="12" height="12" transform="rotate(0,298,310)"/><rect x="292" y="352" width="12" height="12" transform="rotate(0,298,358)"/><rect x="292" y="364" width="12" height="12" transform="rotate(0,298,370)"/><rect x="292" y="376" width="12" height="12" transform="rotate(0,298,382)"/><rect x="292" y="400" width="12" height="12" transform="rotate(0,298,406)"/><rect x="292" y="412" width="12" height="12" transform="rotate(0,298,418)"/><rect x="292" y="460" width="12" height="12" transform="rotate(0,298,466)"/><rect x="304" y="52" width="12" height="12" transform="rotate(0,310,58)"/><rect x="304" y="76" width="12" height="12" transform="rotate(0,310,82)"/><rect x="304" y="112" width="12" height="12" transform="rotate(0,310,118)"/><rect x="304" y="124" width="12" height="12" transform="rotate(0,310,130)"/><rect x="304" y="136" width="12" height="12" transform="rotate(0,310,142)"/><rect x="304" y="160" width="12" height="12" transform="rotate(0,310,166)"/><rect x="304" y="184" width="12" height="12" transform="rotate(0,310,190)"/><rect x="304" y="232" width="12" height="12" transform="rotate(0,310,238)"/><rect x="304" y="268" width="12" height="12" transform="rotate(0,310,274)"/><rect x="304" y="316" width="12" height="12" transform="rotate(0,310,322)"/><rect x="304" y="328" width="12" height="12" transform="rotate(0,310,334)"/><rect x="304" y="352" width="12" height="12" transform="rotate(0,310,358)"/><rect x="304" y="400" width="12" height="12" transform="rotate(0,310,406)"/><rect x="304" y="424" width="12" height="12" transform="rotate(0,310,430)"/><rect x="304" y="460" width="12" height="12" transform="rotate(0,310,466)"/><rect x="316" y="52" width="12" height="12" transform="rotate(0,322,58)"/><rect x="316" y="76" width="12" height="12" transform="rotate(0,322,82)"/><rect x="316" y="100" width="12" height="12" transform="rotate(0,322,106)"/><rect x="316" y="124" width="12" height="12" transform="rotate(0,322,130)"/><rect x="316" y="160" width="12" height="12" transform="rotate(0,322,166)"/><rect x="316" y="172" width="12" height="12" transform="rotate(0,322,178)"/><rect x="316" y="208" width="12" height="12" transform="rotate(0,322,214)"/><rect x="316" y="328" width="12" height="12" transform="rotate(0,322,334)"/><rect x="316" y="364" width="12" height="12" transform="rotate(0,322,370)"/><rect x="316" y="388" width="12" height="12" transform="rotate(0,322,394)"/><rect x="316" y="400" width="12" height="12" transform="rotate(0,322,406)"/><rect x="316" y="424" width="12" height="12" transform="rotate(0,322,430)"/><rect x="328" y="40" width="12" height="12" transform="rotate(0,334,46)"/><rect x="328" y="64" width="12" height="12" transform="rotate(0,334,70)"/><rect x="328" y="112" width="12" height="12" transform="rotate(0,334,118)"/><rect x="328" y="148" width="12" height="12" transform="rotate(0,334,154)"/><rect x="328" y="172" width="12" height="12" transform="rotate(0,334,178)"/><rect x="328" y="184" width="12" height="12" transform="rotate(0,334,190)"/><rect x="328" y="220" width="12" height="12" transform="rotate(0,334,226)"/><rect x="328" y="232" width="12" height="12" transform="rotate(0,334,238)"/><rect x="328" y="244" width="12" height="12" transform="rotate(0,334,250)"/><rect x="328" y="280" width="12" height="12" transform="rotate(0,334,286)"/><rect x="328" y="304" width="12" height="12" transform="rotate(0,334,310)"/><rect x="328" y="316" width="12" height="12" transform="rotate(0,334,322)"/><rect x="328" y="352" width="12" height="12" transform="rotate(0,334,358)"/><rect x="328" y="364" width="12" height="12" transform="rotate(0,334,370)"/><rect x="328" y="376" width="12" height="12" transform="rotate(0,334,382)"/><rect x="328" y="388" width="12" height="12" transform="rotate(0,334,394)"/><rect x="328" y="424" width="12" height="12" transform="rotate(0,334,430)"/><rect x="328" y="448" width="12" height="12" transform="rotate(0,334,454)"/><rect x="328" y="460" width="12" height="12" transform="rotate(0,334,466)"/><rect x="340" y="28" width="12" height="12" transform="rotate(0,346,34)"/><rect x="340" y="40" width="12" height="12" transform="rotate(0,346,46)"/><rect x="340" y="64" width="12" height="12" transform="rotate(0,346,70)"/><rect x="340" y="76" width="12" height="12" transform="rotate(0,346,82)"/><rect x="340" y="100" width="12" height="12" transform="rotate(0,346,106)"/><rect x="340" y="112" width="12" height="12" transform="rotate(0,346,118)"/><rect x="340" y="124" width="12" height="12" transform="rotate(0,346,130)"/><rect x="340" y="136" width="12" height="12" transform="rotate(0,346,142)"/><rect x="340" y="148" width="12" height="12" transform="rotate(0,346,154)"/><rect x="340" y="172" width="12" height="12" transform="rotate(0,346,178)"/><rect x="340" y="220" width="12" height="12" transform="rotate(0,346,226)"/><rect x="340" y="232" width="12" height="12" transform="rotate(0,346,238)"/><rect x="340" y="304" width="12" height="12" transform="rotate(0,346,310)"/><rect x="340" y="340" width="12" height="12" transform="rotate(0,346,346)"/><rect x="340" y="352" width="12" height="12" transform="rotate(0,346,358)"/><rect x="340" y="364" width="12" height="12" transform="rotate(0,346,370)"/><rect x="340" y="376" width="12" height="12" transform="rotate(0,346,382)"/><rect x="340" y="388" width="12" height="12" transform="rotate(0,346,394)"/><rect x="340" y="400" width="12" height="12" transform="rotate(0,346,406)"/><rect x="340" y="412" width="12" height="12" transform="rotate(0,346,418)"/><rect x="340" y="436" width="12" height="12" transform="rotate(0,346,442)"/><rect x="340" y="460" width="12" height="12" transform="rotate(0,346,466)"/><rect x="352" y="64" width="12" height="12" transform="rotate(0,358,70)"/><rect x="352" y="76" width="12" height="12" transform="rotate(0,358,82)"/><rect x="352" y="112" width="12" height="12" transform="rotate(0,358,118)"/><rect x="352" y="124" width="12" height="12" transform="rotate(0,358,130)"/><rect x="352" y="148" width="12" height="12" transform="rotate(0,358,154)"/><rect x="352" y="160" width="12" height="12" transform="rotate(0,358,166)"/><rect x="352" y="172" width="12" height="12" transform="rotate(0,358,178)"/><rect x="352" y="184" width="12" height="12" transform="rotate(0,358,190)"/><rect x="352" y="196" width="12" height="12" transform="rotate(0,358,202)"/><rect x="352" y="220" width="12" height="12" transform="rotate(0,358,226)"/><rect x="352" y="244" width="12" height="12" transform="rotate(0,358,250)"/><rect x="352" y="292" width="12" height="12" transform="rotate(0,358,298)"/><rect x="352" y="316" width="12" height="12" transform="rotate(0,358,322)"/><rect x="352" y="340" width="12" height="12" transform="rotate(0,358,346)"/><rect x="352" y="364" width="12" height="12" transform="rotate(0,358,370)"/><rect x="352" y="376" width="12" height="12" transform="rotate(0,358,382)"/><rect x="352" y="388" width="12" height="12" transform="rotate(0,358,394)"/><rect x="352" y="412" width="12" height="12" transform="rotate(0,358,418)"/><rect x="352" y="424" width="12" height="12" transform="rotate(0,358,430)"/><rect x="364" y="28" width="12" height="12" transform="rotate(0,370,34)"/><rect x="364" y="40" width="12" height="12" transform="rotate(0,370,46)"/><rect x="364" y="64" width="12" height="12" transform="rotate(0,370,70)"/><rect x="364" y="76" width="12" height="12" transform="rotate(0,370,82)"/><rect x="364" y="100" width="12" height="12" transform="rotate(0,370,106)"/><rect x="364" y="112" width="12" height="12" transform="rotate(0,370,118)"/><rect x="364" y="124" width="12" height="12" transform="rotate(0,370,130)"/><rect x="364" y="160" width="12" height="12" transform="rotate(0,370,166)"/><rect x="364" y="172" width="12" height="12" transform="rotate(0,370,178)"/><rect x="364" y="184" width="12" height="12" transform="rotate(0,370,190)"/><rect x="364" y="220" width="12" height="12" transform="rotate(0,370,226)"/><rect x="364" y="232" width="12" height="12" transform="rotate(0,370,238)"/><rect x="364" y="268" width="12" height="12" transform="rotate(0,370,274)"/><rect x="364" y="304" width="12" height="12" transform="rotate(0,370,310)"/><rect x="364" y="316" width="12" height="12" transform="rotate(0,370,322)"/><rect x="364" y="352" width="12" height="12" transform="rotate(0,370,358)"/><rect x="364" y="364" width="12" height="12" transform="rotate(0,370,370)"/><rect x="364" y="376" width="12" height="12" transform="rotate(0,370,382)"/><rect x="364" y="388" width="12" height="12" transform="rotate(0,370,394)"/><rect x="364" y="400" width="12" height="12" transform="rotate(0,370,406)"/><rect x="364" y="412" width="12" height="12" transform="rotate(0,370,418)"/><rect x="364" y="448" width="12" height="12" transform="rotate(0,370,454)"/><rect x="376" y="124" width="12" height="12" transform="rotate(0,382,130)"/><rect x="376" y="136" width="12" height="12" transform="rotate(0,382,142)"/><rect x="376" y="148" width="12" height="12" transform="rotate(0,382,154)"/><rect x="376" y="160" width="12" height="12" transform="rotate(0,382,166)"/><rect x="376" y="208" width="12" height="12" transform="rotate(0,382,214)"/><rect x="376" y="244" width="12" height="12" transform="rotate(0,382,250)"/><rect x="376" y="256" width="12" height="12" transform="rotate(0,382,262)"/><rect x="376" y="268" width="12" height="12" transform="rotate(0,382,274)"/><rect x="376" y="304" width="12" height="12" transform="rotate(0,382,310)"/><rect x="376" y="316" width="12" height="12" transform="rotate(0,382,322)"/><rect x="376" y="328" width="12" height="12" transform="rotate(0,382,334)"/><rect x="376" y="352" width="12" height="12" transform="rotate(0,382,358)"/><rect x="376" y="364" width="12" height="12" transform="rotate(0,382,370)"/><rect x="376" y="412" width="12" height="12" transform="rotate(0,382,418)"/><rect x="376" y="424" width="12" height="12" transform="rotate(0,382,430)"/><rect x="376" y="460" width="12" height="12" transform="rotate(0,382,466)"/><rect x="388" y="136" width="12" height="12" transform="rotate(0,394,142)"/><rect x="388" y="184" width="12" height="12" transform="rotate(0,394,190)"/><rect x="388" y="208" width="12" height="12" transform="rotate(0,394,214)"/><rect x="388" y="220" width="12" height="12" transform="rotate(0,394,226)"/><rect x="388" y="232" width="12" height="12" transform="rotate(0,394,238)"/><rect x="388" y="256" width="12" height="12" transform="rotate(0,394,262)"/><rect x="388" y="280" width="12" height="12" transform="rotate(0,394,286)"/><rect x="388" y="292" width="12" height="12" transform="rotate(0,394,298)"/><rect x="388" y="304" width="12" height="12" transform="rotate(0,394,310)"/><rect x="388" y="316" width="12" height="12" transform="rotate(0,394,322)"/><rect x="388" y="364" width="12" height="12" transform="rotate(0,394,370)"/><rect x="388" y="388" width="12" height="12" transform="rotate(0,394,394)"/><rect x="388" y="412" width="12" height="12" transform="rotate(0,394,418)"/><rect x="388" y="424" width="12" height="12" transform="rotate(0,394,430)"/><rect x="388" y="436" width="12" height="12" transform="rotate(0,394,442)"/><rect x="388" y="448" width="12" height="12" transform="rotate(0,394,454)"/><rect x="388" y="460" width="12" height="12" transform="rotate(0,394,466)"/><rect x="400" y="136" width="12" height="12" transform="rotate(0,406,142)"/><rect x="400" y="172" width="12" height="12" transform="rotate(0,406,178)"/><rect x="400" y="184" width="12" height="12" transform="rotate(0,406,190)"/><rect x="400" y="208" width="12" height="12" transform="rotate(0,406,214)"/><rect x="400" y="220" width="12" height="12" transform="rotate(0,406,226)"/><rect x="400" y="292" width="12" height="12" transform="rotate(0,406,298)"/><rect x="400" y="316" width="12" height="12" transform="rotate(0,406,322)"/><rect x="400" y="364" width="12" height="12" transform="rotate(0,406,370)"/><rect x="400" y="412" width="12" height="12" transform="rotate(0,406,418)"/><rect x="400" y="424" width="12" height="12" transform="rotate(0,406,430)"/><rect x="400" y="448" width="12" height="12" transform="rotate(0,406,454)"/><rect x="400" y="460" width="12" height="12" transform="rotate(0,406,466)"/><rect x="412" y="136" width="12" height="12" transform="rotate(0,418,142)"/><rect x="412" y="148" width="12" height="12" transform="rotate(0,418,154)"/><rect x="412" y="196" width="12" height="12" transform="rotate(0,418,202)"/><rect x="412" y="208" width="12" height="12" transform="rotate(0,418,214)"/><rect x="412" y="232" width="12" height="12" transform="rotate(0,418,238)"/><rect x="412" y="256" width="12" height="12" transform="rotate(0,418,262)"/><rect x="412" y="268" width="12" height="12" transform="rotate(0,418,274)"/><rect x="412" y="280" width="12" height="12" transform="rotate(0,418,286)"/><rect x="412" y="292" width="12" height="12" transform="rotate(0,418,298)"/><rect x="412" y="352" width="12" height="12" transform="rotate(0,418,358)"/><rect x="412" y="364" width="12" height="12" transform="rotate(0,418,370)"/><rect x="412" y="376" width="12" height="12" transform="rotate(0,418,382)"/><rect x="412" y="388" width="12" height="12" transform="rotate(0,418,394)"/><rect x="412" y="400" width="12" height="12" transform="rotate(0,418,406)"/><rect x="412" y="412" width="12" height="12" transform="rotate(0,418,418)"/><rect x="412" y="448" width="12" height="12" transform="rotate(0,418,454)"/><rect x="412" y="460" width="12" height="12" transform="rotate(0,418,466)"/><rect x="424" y="148" width="12" height="12" transform="rotate(0,430,154)"/><rect x="424" y="160" width="12" height="12" transform="rotate(0,430,166)"/><rect x="424" y="172" width="12" height="12" transform="rotate(0,430,178)"/><rect x="424" y="220" width="12" height="12" transform="rotate(0,430,226)"/><rect x="424" y="232" width="12" height="12" transform="rotate(0,430,238)"/><rect x="424" y="268" width="12" height="12" transform="rotate(0,430,274)"/><rect x="424" y="280" width="12" height="12" transform="rotate(0,430,286)"/><rect x="424" y="292" width="12" height="12" transform="rotate(0,430,298)"/><rect x="424" y="352" width="12" height="12" transform="rotate(0,430,358)"/><rect x="424" y="364" width="12" height="12" transform="rotate(0,430,370)"/><rect x="424" y="412" width="12" height="12" transform="rotate(0,430,418)"/><rect x="424" y="448" width="12" height="12" transform="rotate(0,430,454)"/><rect x="424" y="460" width="12" height="12" transform="rotate(0,430,466)"/><rect x="436" y="124" width="12" height="12" transform="rotate(0,442,130)"/><rect x="436" y="148" width="12" height="12" transform="rotate(0,442,154)"/><rect x="436" y="160" width="12" height="12" transform="rotate(0,442,166)"/><rect x="436" y="172" width="12" height="12" transform="rotate(0,442,178)"/><rect x="436" y="184" width="12" height="12" transform="rotate(0,442,190)"/><rect x="436" y="208" width="12" height="12" transform="rotate(0,442,214)"/><rect x="436" y="220" width="12" height="12" transform="rotate(0,442,226)"/><rect x="436" y="232" width="12" height="12" transform="rotate(0,442,238)"/><rect x="436" y="268" width="12" height="12" transform="rotate(0,442,274)"/><rect x="436" y="280" width="12" height="12" transform="rotate(0,442,286)"/><rect x="436" y="292" width="12" height="12" transform="rotate(0,442,298)"/><rect x="436" y="304" width="12" height="12" transform="rotate(0,442,310)"/><rect x="436" y="328" width="12" height="12" transform="rotate(0,442,334)"/><rect x="436" y="412" width="12" height="12" transform="rotate(0,442,418)"/><rect x="436" y="448" width="12" height="12" transform="rotate(0,442,454)"/><rect x="436" y="460" width="12" height="12" transform="rotate(0,442,466)"/><rect x="448" y="124" width="12" height="12" transform="rotate(0,454,130)"/><rect x="448" y="136" width="12" height="12" transform="rotate(0,454,142)"/><rect x="448" y="172" width="12" height="12" transform="rotate(0,454,178)"/><rect x="448" y="196" width="12" height="12" transform="rotate(0,454,202)"/><rect x="448" y="232" width="12" height="12" transform="rotate(0,454,238)"/><rect x="448" y="256" width="12" height="12" transform="rotate(0,454,262)"/><rect x="448" y="268" width="12" height="12" transform="rotate(0,454,274)"/><rect x="448" y="292" width="12" height="12" transform="rotate(0,454,298)"/><rect x="448" y="364" width="12" height="12" transform="rotate(0,454,370)"/><rect x="448" y="400" width="12" height="12" transform="rotate(0,454,406)"/><rect x="448" y="412" width="12" height="12" transform="rotate(0,454,418)"/><rect x="448" y="424" width="12" height="12" transform="rotate(0,454,430)"/><rect x="460" y="136" width="12" height="12" transform="rotate(0,466,142)"/><rect x="460" y="148" width="12" height="12" transform="rotate(0,466,154)"/><rect x="460" y="160" width="12" height="12" transform="rotate(0,466,166)"/><rect x="460" y="208" width="12" height="12" transform="rotate(0,466,214)"/><rect x="460" y="220" width="12" height="12" transform="rotate(0,466,226)"/><rect x="460" y="268" width="12" height="12" transform="rotate(0,466,274)"/><rect x="460" y="304" width="12" height="12" transform="rotate(0,466,310)"/><rect x="460" y="316" width="12" height="12" transform="rotate(0,466,322)"/><rect x="460" y="340" width="12" height="12" transform="rotate(0,466,346)"/><rect x="460" y="364" width="12" height="12" transform="rotate(0,466,370)"/><rect x="460" y="376" width="12" height="12" transform="rotate(0,466,382)"/><rect x="460" y="388" width="12" height="12" transform="rotate(0,466,394)"/><rect x="460" y="424" width="12" height="12" transform="rotate(0,466,430)"/><rect x="460" y="460" width="12" height="12" transform="rotate(0,466,466)"/><path clip-rule="evenodd" d="M 28 28v 84h 84v -84zM 40 40h 60v 60h -60z" transform="rotate(0,70,70)"/><rect x="52" y="52" width="36" height="36" transform="rotate(0,70,70)"/><path clip-rule="evenodd" d="M 388 28v 84h 84v -84zM 400 40h 60v 60h -60z" transform="rotate(90,430,70)"/><rect x="412" y="52" width="36" height="36" transform="rotate(90,430,70)"/><path clip-rule="evenodd" d="M 28 388v 84h 84v -84zM 40 400h 60v 60h -60z" transform="rotate(-90,70,430)"/><rect x="52" y="412" width="36" height="36" transform="rotate(-90,70,430)"/></clipPath></defs><rect x="0" y="0" height="500" width="500" clip-path="url('#clip-path-background-color')" fill="#fff"/><rect x="0" y="0" height="500" width="500" clip-path="url('#clip-path-dot-color')" fill="#000000"/></svg>