<?xml version="1.0" standalone="no"?>
<svg xmlns="http://www.w3.org/2000/svg" width="500" height="500"><defs><clipPath id="clip-path-dot-color"><rect x="28" y="124" width="12" height="12" transform="rotate(0,34,130)"/><rect x="28" y="136" width="12" height="12" transform="rotate(0,34,142)"/><rect x="28" y="148" width="12" height="12" transform="rotate(0,34,154)"/><rect x="28" y="184" width="12" height="12" transform="rotate(0,34,190)"/><rect x="28" y="220" width="12" height="12" transform="rotate(0,34,226)"/><rect x="28" y="316" width="12" height="12" transform="rotate(0,34,322)"/><rect x="28" y="340" width="12" height="12" transform="rotate(0,34,346)"/><rect x="28" y="352" width="12" height="12" transform="rotate(0,34,358)"/><rect x="28" y="364" width="12" height="12" transform="rotate(0,34,370)"/><rect x="40" y="148" width="12" height="12" transform="rotate(0,46,154)"/><rect x="40" y="160" width="12" height="12" transform="rotate(0,46,166)"/><rect x="40" y="172" width="12" height="12" transform="rotate(0,46,178)"/><rect x="40" y="184" width="12" height="12" transform="rotate(0,46,190)"/><rect x="40" y="196" width="12" height="12" transform="rotate(0,46,202)"/><rect x="40" y="208" width="12" height="12" transform="rotate(0,46,214)"/><rect x="40" y="220" width="12" height="12" transform="rotate(0,46,226)"/><rect x="40" y="244" width="12" height="12" transform="rotate(0,46,250)"/><rect x="40" y="256" width="12" height="12" transform="rotate(0,46,262)"/><rect x="40" y="268" width="12" height="12" transform="rotate(0,46,274)"/><rect x="40" y="280" width="12" height="12" transform="rotate(0,46,286)"/><rect x="40" y="304" width="12" height="12" transform="rotate(0,46,310)"/><rect x="40" y="316" width="12" height="12" transform="rotate(0,46,322)"/><rect x="40" y="328" width="12" height="12" transform="rotate(0,46,334)"/><rect x="40" y="352" width="12" height="12" transform="rotate(0,46,358)"/><rect x="52" y="124" width="12" height="12" transform="rotate(0,58,130)"/><rect x="52" y="148" width="12" height="12" transform="rotate(0,58,154)"/><rect x="52" y="160" width="12" height="12" transform="rotate(0,58,166)"/><rect x="52" y="196" width="12" height="12" transform="rotate(0,58,202)"/><rect x="52" y="208" width="12" height="12" transform="rotate(0,58,214)"/><rect x="52" y="220" width="12" height="12" transform="rotate(0,58,226)"/><rect x="52" y="268" width="12" height="12" transform="rotate(0,58,274)"/><rect x="52" y="292" width="12" height="12" transform="rotate(0,58,298)"/><rect x="52" y="304" width="12" height="12" transform="rotate(0,58,310)"/><rect x="52" y="316" width="12" height="12" transform="rotate(0,58,322)"/><rect x="52" y="352" width="12" height="12" transform="rotate(0,58,358)"/><rect x="52" y="364" width="12" height="12" transform="rotate(0,58,370)"/><rect x="64" y="124" width="12" height="12" transform="rotate(0,70,130)"/><rect x="64" y="148" width="12" height="12" transform="rotate(0,70,154)"/><rect x="64" y="172" width="12" height="12" transform="rotate(0,70,178)"/><rect x="64" y="184" width="12" height="12" transform="rotate(0,70,190)"/><rect x="64" y="232" width="12" height="12" transform="rotate(0,70,238)"/><rect x="64" y="244" width="12" height="12" transform="rotate(0,70,250)"/><rect x="64" y="256" width="12" height="12" transform="rotate(0,70,262)"/><rect x="64" y="268" width="12" height="12" transform="rotate(0,70,274)"/><rect x="64" y="292" width="12" height="12" transform="rotate(0,70,298)"/><rect x="64" y="304" width="12" height="12" transform="rotate(0,70,310)"/><rect x="76" y="148" width="12" height="12" transform="rotate(0,82,154)"/><rect x="76" y="160" width="12" height="12" transform="rotate(0,82,166)"/><rect x="76" y="196" width="12" height="12" transform="rotate(0,82,202)"/><rect x="76" y="208" width="12" height="12" transform="rotate(0,82,214)"/><rect x="76" y="220" width="12" height="12" transform="rotate(0,82,226)"/><rect x="76" y="232" width="12" height="12" transform="rotate(0,82,238)"/><rect x="76" y="280" width="12" height="12" transform="rotate(0,82,286)"/><rect x="76" y="304" width="12" height="12" transform="rotate(0,82,310)"/><rect x="76" y="328" width="12" height="12" transform="rotate(0,82,334)"/><rect x="76" y="352" width="12" height="12" transform="rotate(0,82,358)"/><rect x="88" y="124" width="12" height="12" transform="rotate(0,94,130)"/><rect x="88" y="172" width="12" height="12" transform="rotate(0,94,178)"/><rect x="88" y="208" width="12" height="12" transform="rotate(0,94,214)"/><rect x="88" y="232" width="12" height="12" transform="rotate(0,94,238)"/><rect x="88" y="244" width="12" height="12" transform="rotate(0,94,250)"/><rect x="88" y="256" width="12" height="12" transform="rotate(0,94,262)"/><rect x="88" y="292" width="12" height="12" transform="rotate(0,94,298)"/><rect x="88" y="316" width="12" height="12" transform="rotate(0,94,322)"/><rect x="88" y="328" width="12" height="12" transform="rotate(0,94,334)"/><rect x="88" y="340" width="12" height="12" transform="rotate(0,94,346)"/><rect x="88" y="352" width="12" height="12" transform="rotate(0,94,358)"/><rect x="88" y="364" width="12" height="12" transform="rotate(0,94,370)"/><rect x="100" y="124" width="12" height="12" transform="rotate(0,106,130)"/><rect x="100" y="148" width="12" height="12" transform="rotate(0,106,154)"/><rect x="100" y="172" width="12" height="12" transform="rotate(0,106,178)"/><rect x="100" y="196" width="12" height="12" transform="rotate(0,106,202)"/><rect x="100" y="220" width="12" height="12" transform="rotate(0,106,226)"/><rect x="100" y="244" width="12" height="12" transform="rotate(0,106,250)"/><rect x="100" y="268" width="12" height="12" transform="rotate(0,106,274)"/><rect x="100" y="292" width="12" height="12" transform="rotate(0,106,298)"/><rect x="100" y="316" width="12" height="12" transform="rotate(0,106,322)"/><rect x="100" y="340" width="12" height="12" transform="rotate(0,106,346)"/><rect x="100" y="364" width="12" height="12" transform="rotate(0,106,370)"/><rect x="112" y="124" width="12" height="12" transform="rotate(0,118,130)"/><rect x="112" y="148" width="12" height="12" transform="rotate(0,118,154)"/><rect x="112" y="160" width="12" height="12" transform="rotate(0,118,166)"/><rect x="112" y="196" width="12" height="12" transform="rotate(0,118,202)"/><rect x="112" y="280" width="12" height="12" transform="rotate(0,118,286)"/><rect x="112" y="316" width="12" height="12" transform="rotate(0,118,322)"/><rect x="112" y="340" width="12" height="12" transform="rotate(0,118,346)"/><rect x="124" y="40" width="12" height="12" transform="rotate(0,130,46)"/><rect x="124" y="64" width="12" height="12" transform="rotate(0,130,70)"/><rect x="124" y="88" width="12" height="12" transform="rotate(0,130,94)"/><rect x="124" y="100" width="12" height="12" transform="rotate(0,130,106)"/><rect x="124" y="112" width="12" height="12" transform="rotate(0,130,118)"/><rect x="124" y="124" width="12" height="12" transform="rotate(0,130,130)"/><rect x="124" y="136" width="12" height="12" transform="rotate(0,130,142)"/><rect x="124" y="160" width="12" height="12" transform="rotate(0,130,166)"/><rect x="124" y="184" width="12" height="12" transform="rotate(0,130,190)"/><rect x="124" y="232" width="12" height="12" transform="rotate(0,130,238)"/><rect x="124" y="244" width="12" height="12" transform="rotate(0,130,250)"/><rect x="124" y="280" width="12" height="12" transform="rotate(0,130,286)"/><rect x="124" y="316" width="12" height="12" transform="rotate(0,130,322)"/><rect x="124" y="352" width="12" height="12" transform="rotate(0,130,358)"/><rect x="124" y="364" width="12" height="12" transform="rotate(0,130,370)"/><rect x="124" y="376" width="12" height="12" transform="rotate(0,130,382)"/><rect x="124" y="388" width="12" height="12" transform="rotate(0,130,394)"/><rect x="124" y="400" width="12" height="12" transform="rotate(0,130,406)"/><rect x="124" y="424" width="12" height="12" transform="rotate(0,130,430)"/><rect x="124" y="436" width="12" height="12" transform="rotate(0,130,442)"/><rect x="124" y="460" width="12" height="12" transform="rotate(0,130,466)"/><rect x="136" y="28" width="12" height="12" transform="rotate(0,142,34)"/><rect x="136" y="40" width="12" height="12" transform="rotate(0,142,46)"/><rect x="136" y="76" width="12" height="12" transform="rotate(0,142,82)"/><rect x="136" y="136" width="12" height="12" transform="rotate(0,142,142)"/><rect x="136" y="160" width="12" height="12" transform="rotate(0,142,166)"/><rect x="136" y="172" width="12" height="12" transform="rotate(0,142,178)"/><rect x="136" y="196" width="12" height="12" transform="rotate(0,142,202)"/><rect x="136" y="208" width="12" height="12" transform="rotate(0,142,214)"/><rect x="136" y="220" width="12" height="12" transform="rotate(0,142,226)"/><rect x="136" y="232" width="12" height="12" transform="rotate(0,142,238)"/><rect x="136" y="256" width="12" height="12" transform="rotate(0,142,262)"/><rect x="136" y="268" width="12" height="12" transform="rotate(0,142,274)"/><rect x="136" y="292" width="12" height="12" transform="rotate(0,142,298)"/><rect x="136" y="340" width="12" height="12" transform="rotate(0,142,346)"/><rect x="136" y="352" width="12" height="12" transform="rotate(0,142,358)"/><rect x="136" y="364" width="12" height="12" transform="rotate(0,142,370)"/><rect x="136" y="376" width="12" height="12" transform="rotate(0,142,382)"/><rect x="136" y="388" width="12" height="12" transform="rotate(0,142,394)"/><rect x="136" y="424" width="12" height="12" transform="rotate(0,142,430)"/><rect x="136" y="436" width="12" height="12" transform="rotate(0,142,442)"/><rect x="136" y="448" width="12" height="12" transform="rotate(0,142,454)"/><rect x="136" y="460" width="12" height="12" transform="rotate(0,142,466)"/><rect x="148" y="28" width="12" height="12" transform="rotate(0,154,34)"/><rect x="148" y="52" width="12" height="12" transform="rotate(0,154,58)"/><rect x="148" y="88" width="12" height="12" transform="rotate(0,154,94)"/><rect x="148" y="100" width="12" height="12" transform="rotate(0,154,106)"/><rect x="148" y="112" width="12" height="12" transform="rotate(0,154,118)"/><rect x="148" y="124" width="12" height="12" transform="rotate(0,154,130)"/><rect x="148" y="136" width="12" height="12" transform="rotate(0,154,142)"/><rect x="148" y="148" width="12" height="12" transform="rotate(0,154,154)"/><rect x="148" y="160" width="12" height="12" transform="rotate(0,154,166)"/><rect x="148" y="184" width="12" height="12" transform="rotate(0,154,190)"/><rect x="148" y="196" width="12" height="12" transform="rotate(0,154,202)"/><rect x="148" y="208" width="12" height="12" transform="rotate(0,154,214)"/><rect x="148" y="268" width="12" height="12" transform="rotate(0,154,274)"/><rect x="148" y="316" width="12" height="12" transform="rotate(0,154,322)"/><rect x="148" y="352" width="12" height="12" transform="rotate(0,154,358)"/><rect x="148" y="388" width="12" height="12" transform="rotate(0,154,394)"/><rect x="148" y="400" width="12" height="12" transform="rotate(0,154,406)"/><rect x="148" y="412" width="12" height="12" transform="rotate(0,154,418)"/><rect x="148" y="448" width="12" height="12" transform="rotate(0,154,454)"/><rect x="148" y="460" width="12" height="12" transform="rotate(0,154,466)"/><rect x="160" y="28" width="12" height="12" transform="rotate(0,166,34)"/><rect x="160" y="64" width="12" height="12" transform="rotate(0,166,70)"/><rect x="160" y="88" width="12" height="12" transform="rotate(0,166,94)"/><rect x="160" y="124" width="12" height="12" transform="rotate(0,166,130)"/><rect x="160" y="136" width="12" height="12" transform="rotate(0,166,142)"/><rect x="160" y="184" width="12" height="12" transform="rotate(0,166,190)"/><rect x="160" y="196" width="12" height="12" transform="rotate(0,166,202)"/><rect x="160" y="220" width="12" height="12" transform="rotate(0,166,226)"/><rect x="160" y="232" width="12" height="12" transform="rotate(0,166,238)"/><rect x="160" y="244" width="12" height="12" transform="rotate(0,166,250)"/><rect x="160" y="256" width="12" height="12" transform="rotate(0,166,262)"/><rect x="160" y="268" width="12" height="12" transform="rotate(0,166,274)"/><rect x="160" y="280" width="12" height="12" transform="rotate(0,166,286)"/><rect x="160" y="292" width="12" height="12" transform="rotate(0,166,298)"/><rect x="160" y="316" width="12" height="12" transform="rotate(0,166,322)"/><rect x="160" y="328" width="12" height="12" transform="rotate(0,166,334)"/><rect x="160" y="364" width="12" height="12" transform="rotate(0,166,370)"/><rect x="160" y="412" width="12" height="12" transform="rotate(0,166,418)"/><rect x="160" y="424" width="12" height="12" transform="rotate(0,166,430)"/><rect x="160" y="448" width="12" height="12" transform="rotate(0,166,454)"/><rect x="160" y="460" width="12" height="12" transform="rotate(0,166,466)"/><rect x="172" y="28" width="12" height="12" transform="rotate(0,178,34)"/><rect x="172" y="40" width="12" height="12" transform="rotate(0,178,46)"/><rect x="172" y="52" width="12" height="12" transform="rotate(0,178,58)"/><rect x="172" y="100" width="12" height="12" transform="rotate(0,178,106)"/><rect x="172" y="148" width="12" height="12" transform="rotate(0,178,154)"/><rect x="172" y="160" width="12" height="12" transform="rotate(0,178,166)"/><rect x="172" y="172" width="12" height="12" transform="rotate(0,178,178)"/><rect x="172" y="220" width="12" height="12" transform="rotate(0,178,226)"/><rect x="172" y="280" width="12" height="12" transform="rotate(0,178,286)"/><rect x="172" y="316" width="12" height="12" transform="rotate(0,178,322)"/><rect x="172" y="328" width="12" height="12" transform="rotate(0,178,334)"/><rect x="172" y="352" width="12" height="12" transform="rotate(0,178,358)"/><rect x="172" y="376" width="12" height="12" transform="rotate(0,178,382)"/><rect x="172" y="388" width="12" height="12" transform="rotate(0,178,394)"/><rect x="172" y="400" width="12" height="12" transform="rotate(0,178,406)"/><rect x="172" y="460" width="12" height="12" transform="rotate(0,178,466)"/><rect x="184" y="28" width="12" height="12" transform="rotate(0,190,34)"/><rect x="184" y="40" width="12" height="12" transform="rotate(0,190,46)"/><rect x="184" y="52" width="12" height="12" transform="rotate(0,190,58)"/><rect x="184" y="76" width="12" height="12" transform="rotate(0,190,82)"/><rect x="184" y="88" width="12" height="12" transform="rotate(0,190,94)"/><rect x="184" y="112" width="12" height="12" transform="rotate(0,190,118)"/><rect x="184" y="136" width="12" height="12" transform="rotate(0,190,142)"/><rect x="184" y="148" width="12" height="12" transform="rotate(0,190,154)"/><rect x="184" y="160" width="12" height="12" transform="rotate(0,190,166)"/><rect x="184" y="172" width="12" height="12" transform="rotate(0,190,178)"/><rect x="184" y="184" width="12" height="12" transform="rotate(0,190,190)"/><rect x="184" y="196" width="12" height="12" transform="rotate(0,190,202)"/><rect x="184" y="232" width="12" height="12" transform="rotate(0,190,238)"/><rect x="184" y="244" width="12" height="12" transform="rotate(0,190,250)"/><rect x="184" y="256" width="12" height="12" transform="rotate(0,190,262)"/><rect x="184" y="268" width="12" height="12" transform="rotate(0,190,274)"/><rect x="184" y="292" width="12" height="12" transform="rotate(0,190,298)"/><rect x="184" y="316" width="12" height="12" transform="rotate(0,190,322)"/><rect x="184" y="328" width="12" height="12" transform="rotate(0,190,334)"/><rect x="184" y="340" width="12" height="12" transform="rotate(0,190,346)"/><rect x="184" y="364" width="12" height="12" transform="rotate(0,190,370)"/><rect x="184" y="388" width="12" height="12" transform="rotate(0,190,394)"/><rect x="184" y="400" width="12" height="12" transform="rotate(0,190,406)"/><rect x="184" y="424" width="12" height="12" transform="rotate(0,190,430)"/><rect x="184" y="460" width="12" height="12" transform="rotate(0,190,466)"/><rect x="196" y="28" width="12" height="12" transform="rotate(0,202,34)"/><rect x="196" y="40" width="12" height="12" transform="rotate(0,202,46)"/><rect x="196" y="52" width="12" height="12" transform="rotate(0,202,58)"/><rect x="196" y="64" width="12" height="12" transform="rotate(0,202,70)"/><rect x="196" y="76" width="12" height="12" transform="rotate(0,202,82)"/><rect x="196" y="100" width="12" height="12" transform="rotate(0,202,106)"/><rect x="196" y="112" width="12" height="12" transform="rotate(0,202,118)"/><rect x="196" y="124" width="12" height="12" transform="rotate(0,202,130)"/><rect x="196" y="148" width="12" height="12" transform="rotate(0,202,154)"/><rect x="196" y="184" width="12" height="12" transform="rotate(0,202,190)"/><rect x="196" y="196" width="12" height="12" transform="rotate(0,202,202)"/><rect x="196" y="220" width="12" height="12" transform="rotate(0,202,226)"/><rect x="196" y="268" width="12" height="12" transform="rotate(0,202,274)"/><rect x="196" y="280" width="12" height="12" transform="rotate(0,202,286)"/><rect x="196" y="304" width="12" height="12" transform="rotate(0,202,310)"/><rect x="196" y="328" width="12" height="12" transform="rotate(0,202,334)"/><rect x="196" y="340" width="12" height="12" transform="rotate(0,202,346)"/><rect x="196" y="376" width="12" height="12" transform="rotate(0,202,382)"/><rect x="196" y="388" width="12" height="12" transform="rotate(0,202,394)"/><rect x="196" y="400" width="12" height="12" transform="rotate(0,202,406)"/><rect x="196" y="436" width="12" height="12" transform="rotate(0,202,442)"/><rect x="196" y="460" width="12" height="12" transform="rotate(0,202,466)"/><rect x="208" y="28" width="12" height="12" transform="rotate(0,214,34)"/><rect x="208" y="76" width="12" height="12" transform="rotate(0,214,82)"/><rect x="208" y="124" width="12" height="12" transform="rotate(0,214,130)"/><rect x="208" y="136" width="12" height="12" transform="rotate(0,214,142)"/><rect x="208" y="172" width="12" height="12" transform="rotate(0,214,178)"/><rect x="208" y="220" width="12" height="12" transform="rotate(0,214,226)"/><rect x="208" y="232" width="12" height="12" transform="rotate(0,214,238)"/><rect x="208" y="244" width="12" height="12" transform="rotate(0,214,250)"/><rect x="208" y="268" width="12" height="12" transform="rotate(0,214,274)"/><rect x="208" y="304" width="12" height="12" transform="rotate(0,214,310)"/><rect x="208" y="328" width="12" height="12" transform="rotate(0,214,334)"/><rect x="208" y="388" width="12" height="12" transform="rotate(0,214,394)"/><rect x="208" y="400" width="12" height="12" transform="rotate(0,214,406)"/><rect x="208" y="448" width="12" height="12" transform="rotate(0,214,454)"/><rect x="208" y="460" width="12" height="12" transform="rotate(0,214,466)"/><rect x="220" y="52" width="12" height="12" transform="rotate(0,226,58)"/><rect x="220" y="64" width="12" height="12" transform="rotate(0,226,70)"/><rect x="220" y="76" width="12" height="12" transform="rotate(0,226,82)"/><rect x="220" y="88" width="12" height="12" transform="rotate(0,226,94)"/><rect x="220" y="100" width="12" height="12" transform="rotate(0,226,106)"/><rect x="220" y="124" width="12" height="12" transform="rotate(0,226,130)"/><rect x="220" y="148" width="12" height="12" transform="rotate(0,226,154)"/><rect x="220" y="172" width="12" height="12" transform="rotate(0,226,178)"/><rect x="220" y="184" width="12" height="12" transform="rotate(0,226,190)"/><rect x="220" y="196" width="12" height="12" transform="rotate(0,226,202)"/><rect x="220" y="208" width="12" height="12" transform="rotate(0,226,214)"/><rect x="220" y="232" width="12" height="12" transform="rotate(0,226,238)"/><rect x="220" y="244" width="12" height="12" transform="rotate(0,226,250)"/><rect x="220" y="256" width="12" height="12" transform="rotate(0,226,262)"/><rect x="220" y="292" width="12" height="12" transform="rotate(0,226,298)"/><rect x="220" y="304" width="12" height="12" transform="rotate(0,226,310)"/><rect x="220" y="316" width="12" height="12" transform="rotate(0,226,322)"/><rect x="220" y="388" width="12" height="12" transform="rotate(0,226,394)"/><rect x="220" y="400" width="12" height="12" transform="rotate(0,226,406)"/><rect x="220" y="424" width="12" height="12" transform="rotate(0,226,430)"/><rect x="220" y="436" width="12" height="12" transform="rotate(0,226,442)"/><rect x="220" y="448" width="12" height="12" transform="rotate(0,226,454)"/><rect x="232" y="52" width="12" height="12" transform="rotate(0,238,58)"/><rect x="232" y="136" width="12" height="12" transform="rotate(0,238,142)"/><rect x="232" y="184" width="12" height="12" transform="rotate(0,238,190)"/><rect x="232" y="244" width="12" height="12" transform="rotate(0,238,250)"/><rect x="232" y="280" width="12" height="12" transform="rotate(0,238,286)"/><rect x="232" y="316" width="12" height="12" transform="rotate(0,238,322)"/><rect x="232" y="328" width="12" height="12" transform="rotate(0,238,334)"/><rect x="232" y="340" width="12" height="12" transform="rotate(0,238,346)"/><rect x="232" y="364" width="12" height="12" transform="rotate(0,238,370)"/><rect x="232" y="376" width="12" height="12" transform="rotate(0,238,382)"/><rect x="232" y="388" width="12" height="12" transform="rotate(0,238,394)"/><rect x="232" y="412" width="12" height="12" transform="rotate(0,238,418)"/><rect x="232" y="424" width="12" height="12" transform="rotate(0,238,430)"/><rect x="232" y="460" width="12" height="12" transform="rotate(0,238,466)"/><rect x="244" y="52" width="12" height="12" transform="rotate(0,250,58)"/><rect x="244" y="76" width="12" height="12" transform="rotate(0,250,82)"/><rect x="244" y="88" width="12" height="12" transform="rotate(0,250,94)"/><rect x="244" y="100" width="12" height="12" transform="rotate(0,250,106)"/><rect x="244" y="124" width="12" height="12" transform="rotate(0,250,130)"/><rect x="244" y="160" width="12" height="12" transform="rotate(0,250,166)"/><rect x="244" y="184" width="12" height="12" transform="rotate(0,250,190)"/><rect x="244" y="196" width="12" height="12" transform="rotate(0,250,202)"/><rect x="244" y="232" width="12" height="12" transform="rotate(0,250,238)"/><rect x="244" y="244" width="12" height="12" transform="rotate(0,250,250)"/><rect x="244" y="304" width="12" height="12" transform="rotate(0,250,310)"/><rect x="244" y="316" width="12" height="12" transform="rotate(0,250,322)"/><rect x="244" y="340" width="12" height="12" transform="rotate(0,250,346)"/><rect x="244" y="388" width="12" height="12" transform="rotate(0,250,394)"/><rect x="244" y="400" width="12" height="12" transform="rotate(0,250,406)"/><rect x="244" y="412" width="12" height="12" transform="rotate(0,250,418)"/><rect x="244" y="436" width="12" height="12" transform="rotate(0,250,442)"/><rect x="244" y="448" width="12" height="12" transform="rotate(0,250,454)"/><rect x="244" y="460" width="12" height="12" transform="rotate(0,250,466)"/><rect x="256" y="28" width="12" height="12" transform="rotate(0,262,34)"/><rect x="256" y="40" width="12" height="12" transform="rotate(0,262,46)"/><rect x="256" y="112" width="12" height="12" transform="rotate(0,262,118)"/><rect x="256" y="124" width="12" height="12" transform="rotate(0,262,130)"/><rect x="256" y="148" width="12" height="12" transform="rotate(0,262,154)"/><rect x="256" y="160" width="12" height="12" transform="rotate(0,262,166)"/><rect x="256" y="244" width="12" height="12" transform="rotate(0,262,250)"/><rect x="256" y="256" width="12" height="12" transform="rotate(0,262,262)"/><rect x="256" y="268" width="12" height="12" transform="rotate(0,262,274)"/><rect x="256" y="280" width="12" height="12" transform="rotate(0,262,286)"/><rect x="256" y="316" width="12" height="12" transform="rotate(0,262,322)"/><rect x="256" y="364" width="12" height="12" transform="rotate(0,262,370)"/><rect x="256" y="376" width="12" height="12" transform="rotate(0,262,382)"/><rect x="256" y="424" width="12" height="12" transform="rotate(0,262,430)"/><rect x="256" y="436" width="12" height="12" transform="rotate(0,262,442)"/><rect x="256" y="460" width="12" height="12" transform="rotate(0,262,466)"/><rect x="268" y="28" width="12" height="12" transform="rotate(0,274,34)"/><rect x="268" y="40" width="12" height="12" transform="rotate(0,274,46)"/><rect x="268" y="52" width="12" height="12" transform="rotate(0,274,58)"/><rect x="268" y="88" width="12" height="12" transform="rotate(0,274,94)"/><rect x="268" y="100" width="12" height="12" transform="rotate(0,274,106)"/><rect x="268" y="148" width="12" height="12" transform="rotate(0,274,154)"/><rect x="268" y="196" width="12" height="12" transform="rotate(0,274,202)"/><rect x="268" y="232" width="12" height="12" transform="rotate(0,274,238)"/><rect x="268" y="244" width="12" height="12" transform="rotate(0,274,250)"/><rect x="268" y="256" width="12" height="12" transform="rotate(0,274,262)"/><rect x="268" y="268" width="12" height="12" transform="rotate(0,274,274)"/><rect x="268" y="280" width="12" height="12" transform="rotate(0,274,286)"/><rect x="268" y="316" width="12" height="12" transform="rotate(0,274,322)"/><rect x="268" y="328" width="12" height="12" transform="rotate(0,274,334)"/><rect x="268" y="364" width="12" height="12" transform="rotate(0,274,370)"/><rect x="268" y="388" width="12" height="12" transform="rotate(0,274,394)"/><rect x="268" y="400" width="12" height="12" transform="rotate(0,274,406)"/><rect x="268" y="412" width="12" height="12" transform="rotate(0,274,418)"/><rect x="268" y="424" width="12" height="12" transform="rotate(0,274,430)"/><rect x="268" y="448" width="12" height="12" transform="rotate(0,274,454)"/><rect x="268" y="460" width="12" height="12" transform="rotate(0,274,466)"/><rect x="280" y="40" width="12" height="12" transform="rotate(0,286,46)"/><rect x="280" y="52" width="12" height="12" transform="rotate(0,286,58)"/><rect x="280" y="112" width="12" height="12" transform="rotate(0,286,118)"/><rect x="280" y="136" width="12" height="12" transform="rotate(0,286,142)"/><rect x="280" y="160" width="12" height="12" transform="rotate(0,286,166)"/><rect x="280" y="184" width="12" height="12" transform="rotate(0,286,190)"/><rect x="280" y="208" width="12" height="12" transform="rotate(0,286,214)"/><rect x="280" y="220" width="12" height="12" transform="rotate(0,286,226)"/><rect x="280" y="232" width="12" height="12" transform="rotate(0,286,238)"/><rect x="280" y="244" width="12" height="12" transform="rotate(0,286,250)"/><rect x="280" y="256" width="12" height="12" transform="rotate(0,286,262)"/><rect x="280" y="280" width="12" height="12" transform="rotate(0,286,286)"/><rect x="280" y="292" width="12" height="12" transform="rotate(0,286,298)"/><rect x="280" y="340" width="12" height="12" transform="rotate(0,286,346)"/><rect x="280" y="376" width="12" height="12" transform="rotate(0,286,382)"/><rect x="280" y="388" width="12" height="12" transform="rotate(0,286,394)"/><rect x="280" y="436" width="12" height="12" transform="rotate(0,286,442)"/><rect x="280" y="460" width="12" height="12" transform="rotate(0,286,466)"/><rect x="292" y="40" width="12" height="12" transform="rotate(0,298,46)"/><rect x="292" y="52" width="12" height="12" transform="rotate(0,298,58)"/><rect x="292" y="88" width="12" height="12" transform="rotate(0,298,94)"/><rect x="292" y="100" width="12" height="12" transform="rotate(0,298,106)"/><rect x="292" y="148" width="12" height="12" transform="rotate(0,298,154)"/><rect x="292" y="160" width="12" height="12" transform="rotate(0,298,166)"/><rect x="292" y="196" width="12" height="12" transform="rotate(0,298,202)"/><rect x="292" y="220" width="12" height="12" transform="rotate(0,298,226)"/><rect x="292" y="232" width="12" height="12" transform="rotate(0,298,238)"/><rect x="292" y="244" width="12" height="12" transform="rotate(0,298,250)"/><rect x="292" y="376" width="12" height="12" transform="rotate(0,298,382)"/><rect x="292" y="400" width="12" height="12" transform="rotate(0,298,406)"/><rect x="292" y="412" width="12" height="12" transform="rotate(0,298,418)"/><rect x="292" y="424" width="12" height="12" transform="rotate(0,298,430)"/><rect x="292" y="436" width="12" height="12" transform="rotate(0,298,442)"/><rect x="292" y="448" width="12" height="12" transform="rotate(0,298,454)"/><rect x="292" y="460" width="12" height="12" transform="rotate(0,298,466)"/><rect x="304" y="28" width="12" height="12" transform="rotate(0,310,34)"/><rect x="304" y="40" width="12" height="12" transform="rotate(0,310,46)"/><rect x="304" y="52" width="12" height="12" transform="rotate(0,310,58)"/><rect x="304" y="76" width="12" height="12" transform="rotate(0,310,82)"/><rect x="304" y="112" width="12" height="12" transform="rotate(0,310,118)"/><rect x="304" y="124" width="12" height="12" transform="rotate(0,310,130)"/><rect x="304" y="136" width="12" height="12" transform="rotate(0,310,142)"/><rect x="304" y="172" width="12" height="12" transform="rotate(0,310,178)"/><rect x="304" y="208" width="12" height="12" transform="rotate(0,310,214)"/><rect x="304" y="232" width="12" height="12" transform="rotate(0,310,238)"/><rect x="304" y="244" width="12" height="12" transform="rotate(0,310,250)"/><rect x="304" y="280" width="12" height="12" transform="rotate(0,310,286)"/><rect x="304" y="304" width="12" height="12" transform="rotate(0,310,310)"/><rect x="304" y="340" width="12" height="12" transform="rotate(0,310,346)"/><rect x="304" y="376" width="12" height="12" transform="rotate(0,310,382)"/><rect x="304" y="412" width="12" height="12" transform="rotate(0,310,418)"/><rect x="304" y="448" width="12" height="12" transform="rotate(0,310,454)"/><rect x="316" y="52" width="12" height="12" transform="rotate(0,322,58)"/><rect x="316" y="64" width="12" height="12" transform="rotate(0,322,70)"/><rect x="316" y="88" width="12" height="12" transform="rotate(0,322,94)"/><rect x="316" y="100" width="12" height="12" transform="rotate(0,322,106)"/><rect x="316" y="112" width="12" height="12" transform="rotate(0,322,118)"/><rect x="316" y="136" width="12" height="12" transform="rotate(0,322,142)"/><rect x="316" y="148" width="12" height="12" transform="rotate(0,322,154)"/><rect x="316" y="172" width="12" height="12" transform="rotate(0,322,178)"/><rect x="316" y="196" width="12" height="12" transform="rotate(0,322,202)"/><rect x="316" y="208" width="12" height="12" transform="rotate(0,322,214)"/><rect x="316" y="232" width="12" height="12" transform="rotate(0,322,238)"/><rect x="316" y="256" width="12" height="12" transform="rotate(0,322,262)"/><rect x="316" y="268" width="12" height="12" transform="rotate(0,322,274)"/><rect x="316" y="280" width="12" height="12" transform="rotate(0,322,286)"/><rect x="316" y="352" width="12" height="12" transform="rotate(0,322,358)"/><rect x="316" y="364" width="12" height="12" transform="rotate(0,322,370)"/><rect x="316" y="376" width="12" height="12" transform="rotate(0,322,382)"/><rect x="316" y="388" width="12" height="12" transform="rotate(0,322,394)"/><rect x="316" y="400" width="12" height="12" transform="rotate(0,322,406)"/><rect x="316" y="448" width="12" height="12" transform="rotate(0,322,454)"/><rect x="316" y="460" width="12" height="12" transform="rotate(0,322,466)"/><rect x="328" y="76" width="12" height="12" transform="rotate(0,334,82)"/><rect x="328" y="136" width="12" height="12" transform="rotate(0,334,142)"/><rect x="328" y="148" width="12" height="12" transform="rotate(0,334,154)"/><rect x="328" y="160" width="12" height="12" transform="rotate(0,334,166)"/><rect x="328" y="208" width="12" height="12" transform="rotate(0,334,214)"/><rect x="328" y="232" width="12" height="12" transform="rotate(0,334,238)"/><rect x="328" y="256" width="12" height="12" transform="rotate(0,334,262)"/><rect x="328" y="268" width="12" height="12" transform="rotate(0,334,274)"/><rect x="328" y="316" width="12" height="12" transform="rotate(0,334,322)"/><rect x="328" y="352" width="12" height="12" transform="rotate(0,334,358)"/><rect x="328" y="364" width="12" height="12" transform="rotate(0,334,370)"/><rect x="328" y="376" width="12" height="12" transform="rotate(0,334,382)"/><rect x="328" y="388" width="12" height="12" transform="rotate(0,334,394)"/><rect x="328" y="400" width="12" height="12" transform="rotate(0,334,406)"/><rect x="328" y="448" width="12" height="12" transform="rotate(0,334,454)"/><rect x="328" y="460" width="12" height="12" transform="rotate(0,334,466)"/><rect x="340" y="28" width="12" height="12" transform="rotate(0,346,34)"/><rect x="340" y="52" width="12" height="12" transform="rotate(0,346,58)"/><rect x="340" y="76" width="12" height="12" transform="rotate(0,346,82)"/><rect x="340" y="88" width="12" height="12" transform="rotate(0,346,94)"/><rect x="340" y="100" width="12" height="12" transform="rotate(0,346,106)"/><rect x="340" y="112" width="12" height="12" transform="rotate(0,346,118)"/><rect x="340" y="136" width="12" height="12" transform="rotate(0,346,142)"/><rect x="340" y="148" width="12" height="12" transform="rotate(0,346,154)"/><rect x="340" y="160" width="12" height="12" transform="rotate(0,346,166)"/><rect x="340" y="208" width="12" height="12" transform="rotate(0,346,214)"/><rect x="340" y="244" width="12" height="12" transform="rotate(0,346,250)"/><rect x="340" y="268" width="12" height="12" transform="rotate(0,346,274)"/><rect x="340" y="280" width="12" height="12" transform="rotate(0,346,286)"/><rect x="340" y="304" width="12" height="12" transform="rotate(0,346,310)"/><rect x="340" y="328" width="12" height="12" transform="rotate(0,346,334)"/><rect x="340" y="364" width="12" height="12" transform="rotate(0,346,370)"/><rect x="340" y="376" width="12" height="12" transform="rotate(0,346,382)"/><rect x="340" y="388" width="12" height="12" transform="rotate(0,346,394)"/><rect x="340" y="460" width="12" height="12" transform="rotate(0,346,466)"/><rect x="352" y="40" width="12" height="12" transform="rotate(0,358,46)"/><rect x="352" y="52" width="12" height="12" transform="rotate(0,358,58)"/><rect x="352" y="64" width="12" height="12" transform="rotate(0,358,70)"/><rect x="352" y="88" width="12" height="12" transform="rotate(0,358,94)"/><rect x="352" y="184" width="12" height="12" transform="rotate(0,358,190)"/><rect x="352" y="196" width="12" height="12" transform="rotate(0,358,202)"/><rect x="352" y="268" width="12" height="12" transform="rotate(0,358,274)"/><rect x="352" y="280" width="12" height="12" transform="rotate(0,358,286)"/><rect x="352" y="304" width="12" height="12" transform="rotate(0,358,310)"/><rect x="352" y="316" width="12" height="12" transform="rotate(0,358,322)"/><rect x="352" y="328" width="12" height="12" transform="rotate(0,358,334)"/><rect x="352" y="340" width="12" height="12" transform="rotate(0,358,346)"/><rect x="352" y="352" width="12" height="12" transform="rotate(0,358,358)"/><rect x="352" y="364" width="12" height="12" transform="rotate(0,358,370)"/><rect x="352" y="388" width="12" height="12" transform="rotate(0,358,394)"/><rect x="352" y="400" width="12" height="12" transform="rotate(0,358,406)"/><rect x="352" y="412" width="12" height="12" transform="rotate(0,358,418)"/><rect x="364" y="28" width="12" height="12" transform="rotate(0,370,34)"/><rect x="364" y="40" width="12" height="12" transform="rotate(0,370,46)"/><rect x="364" y="88" width="12" height="12" transform="rotate(0,370,94)"/><rect x="364" y="100" width="12" height="12" transform="rotate(0,370,106)"/><rect x="364" y="112" width="12" height="12" transform="rotate(0,370,118)"/><rect x="364" y="124" width="12" height="12" transform="rotate(0,370,130)"/><rect x="364" y="160" width="12" height="12" transform="rotate(0,370,166)"/><rect x="364" y="196" width="12" height="12" transform="rotate(0,370,202)"/><rect x="364" y="208" width="12" height="12" transform="rotate(0,370,214)"/><rect x="364" y="232" width="12" height="12" transform="rotate(0,370,238)"/><rect x="364" y="244" width="12" height="12" transform="rotate(0,370,250)"/><rect x="364" y="256" width="12" height="12" transform="rotate(0,370,262)"/><rect x="364" y="280" width="12" height="12" transform="rotate(0,370,286)"/><rect x="364" y="292" width="12" height="12" transform="rotate(0,370,298)"/><rect x="364" y="316" width="12" height="12" transform="rotate(0,370,322)"/><rect x="364" y="352" width="12" height="12" transform="rotate(0,370,358)"/><rect x="364" y="364" width="12" height="12" transform="rotate(0,370,370)"/><rect x="364" y="376" width="12" height="12" transform="rotate(0,370,382)"/><rect x="364" y="388" width="12" height="12" transform="rotate(0,370,394)"/><rect x="364" y="400" width="12" height="12" transform="rotate(0,370,406)"/><rect x="364" y="412" width="12" height="12" transform="rotate(0,370,418)"/><rect x="364" y="436" width="12" height="12" transform="rotate(0,370,442)"/><rect x="376" y="124" width="12" height="12" transform="rotate(0,382,130)"/><rect x="376" y="136" width="12" height="12" transform="rotate(0,382,142)"/><rect x="376" y="160" width="12" height="12" transform="rotate(0,382,166)"/><rect x="376" y="172" width="12" height="12" transform="rotate(0,382,178)"/><rect x="376" y="208" width="12" height="12" transform="rotate(0,382,214)"/><rect x="376" y="220" width="12" height="12" transform="rotate(0,382,226)"/><rect x="376" y="244" width="12" height="12" transform="rotate(0,382,250)"/><rect x="376" y="268" width="12" height="12" transform="rotate(0,382,274)"/><rect x="376" y="280" width="12" height="12" transform="rotate(0,382,286)"/><rect x="376" y="304" width="12" height="12" transform="rotate(0,382,310)"/><rect x="376" y="316" width="12" height="12" transform="rotate(0,382,322)"/><rect x="376" y="340" width="12" height="12" transform="rotate(0,382,346)"/><rect x="376" y="352" width="12" height="12" transform="rotate(0,382,358)"/><rect x="376" y="364" width="12" height="12" transform="rotate(0,382,370)"/><rect x="376" y="412" width="12" height="12" transform="rotate(0,382,418)"/><rect x="376" y="460" width="12" height="12" transform="rotate(0,382,466)"/><rect x="388" y="124" width="12" height="12" transform="rotate(0,394,130)"/><rect x="388" y="136" width="12" height="12" transform="rotate(0,394,142)"/><rect x="388" y="172" width="12" height="12" transform="rotate(0,394,178)"/><rect x="388" y="184" width="12" height="12" transform="rotate(0,394,190)"/><rect x="388" y="196" width="12" height="12" transform="rotate(0,394,202)"/><rect x="388" y="232" width="12" height="12" transform="rotate(0,394,238)"/><rect x="388" y="244" width="12" height="12" transform="rotate(0,394,250)"/><rect x="388" y="256" width="12" height="12" transform="rotate(0,394,262)"/><rect x="388" y="292" width="12" height="12" transform="rotate(0,394,298)"/><rect x="388" y="316" width="12" height="12" transform="rotate(0,394,322)"/><rect x="388" y="328" width="12" height="12" transform="rotate(0,394,334)"/><rect x="388" y="352" width="12" height="12" transform="rotate(0,394,358)"/><rect x="388" y="364" width="12" height="12" transform="rotate(0,394,370)"/><rect x="388" y="388" width="12" height="12" transform="rotate(0,394,394)"/><rect x="388" y="412" width="12" height="12" transform="rotate(0,394,418)"/><rect x="388" y="436" width="12" height="12" transform="rotate(0,394,442)"/><rect x="388" y="460" width="12" height="12" transform="rotate(0,394,466)"/><rect x="400" y="124" width="12" height="12" transform="rotate(0,406,130)"/><rect x="400" y="160" width="12" height="12" transform="rotate(0,406,166)"/><rect x="400" y="172" width="12" height="12" transform="rotate(0,406,178)"/><rect x="400" y="184" width="12" height="12" transform="rotate(0,406,190)"/><rect x="400" y="196" width="12" height="12" transform="rotate(0,406,202)"/><rect x="400" y="208" width="12" height="12" transform="rotate(0,406,214)"/><rect x="400" y="220" width="12" height="12" transform="rotate(0,406,226)"/><rect x="400" y="232" width="12" height="12" transform="rotate(0,406,238)"/><rect x="400" y="268" width="12" height="12" transform="rotate(0,406,274)"/><rect x="400" y="280" width="12" height="12" transform="rotate(0,406,286)"/><rect x="400" y="304" width="12" height="12" transform="rotate(0,406,310)"/><rect x="400" y="316" width="12" height="12" transform="rotate(0,406,322)"/><rect x="400" y="364" width="12" height="12" transform="rotate(0,406,370)"/><rect x="400" y="412" width="12" height="12" transform="rotate(0,406,418)"/><rect x="400" y="436" width="12" height="12" transform="rotate(0,406,442)"/><rect x="400" y="460" width="12" height="12" transform="rotate(0,406,466)"/><rect x="412" y="148" width="12" height="12" transform="rotate(0,418,154)"/><rect x="412" y="172" width="12" height="12" transform="rotate(0,418,178)"/><rect x="412" y="184" width="12" height="12" transform="rotate(0,418,190)"/><rect x="412" y="220" width="12" height="12" transform="rotate(0,418,226)"/><rect x="412" y="256" width="12" height="12" transform="rotate(0,418,262)"/><rect x="412" y="292" width="12" height="12" transform="rotate(0,418,298)"/><rect x="412" y="328" width="12" height="12" transform="rotate(0,418,334)"/><rect x="412" y="340" width="12" height="12" transform="rotate(0,418,346)"/><rect x="412" y="364" width="12" height="12" transform="rotate(0,418,370)"/><rect x="412" y="376" width="12" height="12" transform="rotate(0,418,382)"/><rect x="412" y="388" width="12" height="12" transform="rotate(0,418,394)"/><rect x="412" y="400" width="12" height="12" transform="rotate(0,418,406)"/><rect x="412" y="412" width="12" height="12" transform="rotate(0,418,418)"/><rect x="412" y="424" width="12" height="12" transform="rotate(0,418,430)"/><rect x="412" y="448" width="12" height="12" transform="rotate(0,418,454)"/><rect x="412" y="460" width="12" height="12" transform="rotate(0,418,466)"/><rect x="424" y="124" width="12" height="12" transform="rotate(0,430,130)"/><rect x="424" y="136" width="12" height="12" transform="rotate(0,430,142)"/><rect x="424" y="172" width="12" height="12" transform="rotate(0,430,178)"/><rect x="424" y="208" width="12" height="12" transform="rotate(0,430,214)"/><rect x="424" y="244" width="12" height="12" transform="rotate(0,430,250)"/><rect x="424" y="256" width="12" height="12" transform="rotate(0,430,262)"/><rect x="424" y="268" width="12" height="12" transform="rotate(0,430,274)"/><rect x="424" y="280" width="12" height="12" transform="rotate(0,430,286)"/><rect x="424" y="292" width="12" height="12" transform="rotate(0,430,298)"/><rect x="424" y="304" width="12" height="12" transform="rotate(0,430,310)"/><rect x="424" y="328" width="12" height="12" transform="rotate(0,430,334)"/><rect x="424" y="376" width="12" height="12" transform="rotate(0,430,382)"/><rect x="424" y="400" width="12" height="12" transform="rotate(0,430,406)"/><rect x="424" y="412" width="12" height="12" transform="rotate(0,430,418)"/><rect x="424" y="424" width="12" height="12" transform="rotate(0,430,430)"/><rect x="424" y="460" width="12" height="12" transform="rotate(0,430,466)"/><rect x="436" y="148" width="12" height="12" transform="rotate(0,442,154)"/><rect x="436" y="172" width="12" height="12" transform="rotate(0,442,178)"/><rect x="436" y="220" width="12" height="12" transform="rotate(0,442,226)"/><rect x="436" y="232" width="12" height="12" transform="rotate(0,442,238)"/><rect x="436" y="244" width="12" height="12" transform="rotate(0,442,250)"/><rect x="436" y="268" width="12" height="12" transform="rotate(0,442,274)"/><rect x="436" y="292" width="12" height="12" transform="rotate(0,442,298)"/><rect x="436" y="340" width="12" height="12" transform="rotate(0,442,346)"/><rect x="436" y="376" width="12" height="12" transform="rotate(0,442,382)"/><rect x="436" y="412" width="12" height="12" transform="rotate(0,442,418)"/><rect x="436" y="424" width="12" height="12" transform="rotate(0,442,430)"/><rect x="436" y="436" width="12" height="12" transform="rotate(0,442,442)"/><rect x="436" y="460" width="12" height="12" transform="rotate(0,442,466)"/><rect x="448" y="124" width="12" height="12" transform="rotate(0,454,130)"/><rect x="448" y="136" width="12" height="12" transform="rotate(0,454,142)"/><rect x="448" y="172" width="12" height="12" transform="rotate(0,454,178)"/><rect x="448" y="184" width="12" height="12" transform="rotate(0,454,190)"/><rect x="448" y="196" width="12" height="12" transform="rotate(0,454,202)"/><rect x="448" y="208" width="12" height="12" transform="rotate(0,454,214)"/><rect x="448" y="244" width="12" height="12" transform="rotate(0,454,250)"/><rect x="448" y="280" width="12" height="12" transform="rotate(0,454,286)"/><rect x="448" y="328" width="12" height="12" transform="rotate(0,454,334)"/><rect x="448" y="340" width="12" height="12" transform="rotate(0,454,346)"/><rect x="448" y="352" width="12" height="12" transform="rotate(0,454,358)"/><rect x="448" y="364" width="12" height="12" transform="rotate(0,454,370)"/><rect x="448" y="400" width="12" height="12" transform="rotate(0,454,406)"/><rect x="460" y="136" width="12" height="12" transform="rotate(0,466,142)"/><rect x="460" y="148" width="12" height="12" transform="rotate(0,466,154)"/><rect x="460" y="196" width="12" height="12" transform="rotate(0,466,202)"/><rect x="460" y="208" width="12" height="12" transform="rotate(0,466,214)"/><rect x="460" y="220" width="12" height="12" transform="rotate(0,466,226)"/><rect x="460" y="232" width="12" height="12" transform="rotate(0,466,238)"/><rect x="460" y="256" width="12" height="12" transform="rotate(0,466,262)"/><rect x="460" y="268" width="12" height="12" transform="rotate(0,466,274)"/><rect x="460" y="280" width="12" height="12" transform="rotate(0,466,286)"/><rect x="460" y="328" width="12" height="12" transform="rotate(0,466,334)"/><rect x="460" y="340" width="12" height="12" transform="rotate(0,466,346)"/><rect x="460" y="352" width="12" height="12" transform="rotate(0,466,358)"/><rect x="460" y="364" width="12" height="12" transform="rotate(0,466,370)"/><rect x="460" y="388" width="12" height="12" transform="rotate(0,466,394)"/><rect x="460" y="400" width="12" height="12" transform="rotate(0,466,406)"/><rect x="460" y="448" width="12" height="12" transform="rotate(0,466,454)"/><rect x="460" y="460" width="12" height="12" transform="rotate(0,466,466)"/><path clip-rule="evenodd" d="M 28 28v 84h 84v -84zM 40 40h 60v 60h -60z" transform="rotate(0,70,70)"/><rect x="52" y="52" width="36" height="36" transform="rotate(0,70,70)"/><path clip-rule="evenodd" d="M 388 28v 84h 84v -84zM 400 40h 60v 60h -60z" transform="rotate(90,430,70)"/><rect x="412" y="52" width="36" height="36" transform="rotate(90,430,70)"/><path clip-rule="evenodd" d="M 28 388v 84h 84v -84zM 40 400h 60v 60h -60z" transform="rotate(-90,70,430)"/><rect x="52" y="412" width="36" height="36" transform="rotate(-90,70,430)"/></clipPath></defs><rect x="0" y="0" height="500" width="500" clip-path="url('#clip-path-background-color')" fill="#fff"/><rect x="0" y="0" height="500" width="500" clip-path="url('#clip-path-dot-color')" fill="#000000"/></svg>