<?xml version="1.0" encoding="UTF-8"?>
<svg xmlns="http://www.w3.org/2000/svg" xmlns:xlink="http://www.w3.org/1999/xlink" viewBox="0 0 1920 1080">
  <defs>
    <style>
      .cls-1 {
        fill: url(#radial-gradient-3);
      }

      .cls-2 {
        fill: url(#radial-gradient-2);
      }

      .cls-3 {
        fill: #efefef;
      }

      .cls-4 {
        fill: url(#radial-gradient);
      }

      .cls-5 {
        fill: none;
        stroke: #00fb00;
        stroke-miterlimit: 14.64;
        stroke-width: 7.28px;
      }

      .cls-6 {
        fill: #2d7f00;
      }

      .cls-7 {
        fill: #b8db00;
      }

      .cls-8 {
        opacity: .75;
      }

      .cls-9 {
        fill: #005783;
      }
    </style>
    <radialGradient id="radial-gradient" cx="546" cy="2225.36" fx="546" fy="2225.36" r="95.65" gradientTransform="translate(5791.2 7790.12) rotate(-45) scale(3.52 -3.49)" gradientUnits="userSpaceOnUse">
      <stop offset="0" stop-color="#08f"/>
      <stop offset="1" stop-color="aqua" stop-opacity="0"/>
    </radialGradient>
    <radialGradient id="radial-gradient-2" cx="443.45" cy="2483.75" fx="443.45" fy="2483.75" r="61.02" gradientTransform="translate(.55 10264.81) scale(3.75 -3.75)" gradientUnits="userSpaceOnUse">
      <stop offset="0" stop-color="lime"/>
      <stop offset="1" stop-color="#0b0"/>
    </radialGradient>
    <radialGradient id="radial-gradient-3" cx="443.45" cy="2501.25" fx="443.45" fy="2501.25" r="60.94" gradientTransform="translate(.55 10386.52) scale(3.75 -3.75)" xlink:href="#radial-gradient-2"/>
  </defs>
  <g id="Layer_1">
    <rect class="cls-3" width="1920" height="1080"/>
  </g>
  <g id="Layer_3">
    <circle class="cls-6" cx="649" cy="1080" r="86.13"/>
    <circle class="cls-9" cx="1124" r="100"/>
    <rect class="cls-6" x="1594.42" y="121" width="241.4" height="100" rx="50" ry="50"/>
    <path class="cls-7" d="M217,140.58c0-55.23-44.77-100-100-100h0c-55.23,0-100,44.77-100,100v61.42h200v-61.42Z"/>
    <path class="cls-7" d="M17,852v62.18c0,55.23,44.77,100,100,100h0c55.23,0,100-44.77,100-100v-62.18H17Z"/>
  </g>
  <g id="Layer_2">
    <g class="cls-8">
      <g id="layer8">
        <ellipse id="path6982" class="cls-4" cx="1665.5" cy="940.6" rx="361.5" ry="321.97"/>
      </g>
      <g id="layer9">
        <g id="g7656">
          <path id="path7503" class="cls-5" d="M1665.5,903.25c-4.74,0-9.27,5.08-9.8,12.56-.53,7.48,3.1,16.96,9.8,23.66,6.7,6.7,16.18,10.33,23.66,9.8,7.48-.53,12.56-5.06,12.56-9.8s-5.08-9.27-12.56-9.8c-7.48-.53-16.96,3.1-23.66,9.8-6.7,6.7-10.33,16.18-9.8,23.66.53,7.48,5.06,12.56,9.8,12.56s9.27-5.08,9.8-12.56c.53-7.48-3.1-16.96-9.8-23.66-6.7-6.7-16.18-10.33-23.66-9.8-7.48.53-12.56,5.06-12.56,9.8s5.08,9.27,12.56,9.8c7.48.53,16.96-3.1,23.66-9.8,6.7-6.7,10.33-16.18,9.8-23.66-.53-7.48-5.06-12.56-9.8-12.56s-9.27,5.08-9.8,12.56c-.53,7.48,3.1,16.96,9.8,23.66,6.7,6.7,16.18,10.33,23.66,9.8,7.48-.53,12.56-5.06,12.56-9.8s-5.08-9.27-12.56-9.8c-7.48-.53-16.96,3.1-23.66,9.8-6.7,6.7-10.33,16.18-9.8,23.66.53,7.48,5.06,12.56,9.8,12.56s9.27-5.08,9.8-12.56c.53-7.48-3.1-16.96-9.8-23.66-6.7-6.7-16.18-10.33-23.66-9.8-7.48.53-12.56,5.06-12.56,9.8s5.08,9.27,12.56,9.8c7.48.53,16.96-3.1,23.66-9.8,6.7-6.7,10.33-16.18,9.8-23.66-.53-7.48-5.06-12.56-9.8-12.56s-9.27,5.08-9.8,12.56c-.53,7.48,3.1,16.96,9.8,23.66,6.7,6.7,16.18,10.33,23.66,9.8,7.48-.53,12.56-5.06,12.56-9.8s-5.08-9.27-12.56-9.8c-7.48-.53-16.96,3.1-23.66,9.8-6.7,6.7-10.33,16.18-9.8,23.66.53,7.48,5.06,12.56,9.8,12.56s9.27-5.08,9.8-12.56c.53-7.48-3.1-16.96-9.8-23.66-6.7-6.7-16.18-10.33-23.66-9.8-7.48.53-12.56,5.06-12.56,9.8s5.08,9.27,12.56,9.8c7.48.53,16.96-3.1,23.66-9.8,6.7-6.7,10.33-16.18,9.8-23.66-.53-7.48-5.06-12.56-9.8-12.56s-9.27,5.08-9.8,12.56c-.53,7.48,3.1,16.96,9.8,23.66,6.7,6.7,16.18,10.33,23.66,9.8,7.48-.53,12.56-5.06,12.56-9.8s-5.08-9.27-12.56-9.8c-7.48-.53-16.96,3.1-23.66,9.8-6.7,6.7-10.33,16.18-9.8,23.66.53,7.48,5.06,12.56,9.8,12.56s9.27-5.08,9.8-12.56c.53-7.48-3.1-16.96-9.8-23.66-6.7-6.7-16.18-10.33-23.66-9.8-7.48.53-12.56,5.06-12.56,9.8s5.08,9.27,12.56,9.8c7.48.53,16.96-3.1,23.66-9.8,6.7-6.7,10.33-16.18,9.8-23.66-.53-7.48-5.06-12.56-9.8-12.56s-9.27,5.08-9.8,12.56c-.53,7.48,3.1,16.96,9.8,23.66,6.7,6.7,16.18,10.33,23.66,9.8,7.48-.53,12.56-5.06,12.56-9.8s-5.08-9.27-12.56-9.8c-7.48-.53-16.96,3.1-23.66,9.8-6.7,6.7-10.33,16.18-9.8,23.66.53,7.48,5.06,12.56,9.8,12.56s9.27-5.08,9.8-12.56c.53-7.48-3.1-16.96-9.8-23.66-6.7-6.7-16.18-10.33-23.66-9.8-7.48.53-12.56,5.06-12.56,9.8s5.08,9.27,12.56,9.8c7.48.53,16.96-3.1,23.66-9.8,6.7-6.7,10.33-16.18,9.8-23.66-.53-7.48-5.06-12.56-9.8-12.56s-9.27,5.08-9.8,12.56c-.53,7.48,3.1,16.96,9.8,23.66,6.7,6.7,16.18,10.33,23.66,9.8,7.48-.53,12.56-5.06,12.56-9.8s-5.08-9.27-12.56-9.8c-7.48-.53-16.96,3.1-23.66,9.8-6.7,6.7-10.33,16.18-9.8,23.66.53,7.48,5.06,12.56,9.8,12.56s9.27-5.08,9.8-12.56c.53-7.48-3.1-16.96-9.8-23.66-6.7-6.7-16.18-10.33-23.66-9.8-7.48.53-12.56,5.06-12.56,9.8s5.08,9.27,12.56,9.8c7.48.53,16.96-3.1,23.66-9.8,6.7-6.7,10.33-16.18,9.8-23.66-.53-7.48-5.06-12.56-9.8-12.56s-9.27,5.08-9.8,12.56c-.53,7.48,3.1,16.96,9.8,23.66,6.7,6.7,16.18,10.33,23.66,9.8,7.48-.53,12.56-5.06,12.56-9.8s-5.08-9.27-12.56-9.8c-7.48-.53-16.96,3.1-23.66,9.8-6.7,6.7-10.33,16.18-9.8,23.66.53,7.48,5.06,12.56,9.8,12.56s9.27-5.08,9.8-12.56c.53-7.48-3.1-16.96-9.8-23.66-6.7-6.7-16.18-10.33-23.66-9.8-7.48.53-12.56,5.06-12.56,9.8s5.08,9.27,12.56,9.8c7.48.53,16.96-3.1,23.66-9.8,6.7-6.7,10.33-16.18,9.8-23.66-.53-7.48-5.06-12.56-9.8-12.56s-9.27,5.08-9.8,12.56c-.53,7.48,3.1,16.96,9.8,23.66,6.7,6.7,16.18,10.33,23.66,9.8,7.48-.53,12.56-5.06,12.56-9.8s-5.08-9.27-12.56-9.8c-7.48-.53-16.96,3.1-23.66,9.8-6.7,6.7-10.33,16.18-9.8,23.66.53,7.48,5.06,12.56,9.8,12.56s9.27-5.08,9.8-12.56c.53-7.48-3.1-16.96-9.8-23.66-6.7-6.7-16.18-10.33-23.66-9.8-7.48.53-12.56,5.06-12.56,9.8s5.08,9.27,12.56,9.8c7.48.53,16.96-3.1,23.66-9.8,6.7-6.7,10.33-16.18,9.8-23.66-.53-7.48-5.06-12.56-9.8-12.56s-9.27,5.08-9.8,12.56c-.53,7.48,3.1,16.96,9.8,23.66,6.7,6.7,16.18,10.33,23.66,9.8,7.48-.53,12.56-5.06,12.56-9.8s-5.08-9.27-12.56-9.8c-7.48-.53-16.96,3.1-23.66,9.8-6.7,6.7-10.33,16.18-9.8,23.66.53,7.48,5.06,12.56,9.8,12.56s9.27-5.08,9.8-12.56c.53-7.48-3.1-16.96-9.8-23.66-6.7-6.7-16.18-10.33-23.66-9.8-7.48.53-12.56,5.06-12.56,9.8s5.08,9.27,12.56,9.8c7.48.53,16.96-3.1,23.66-9.8,6.7-6.7,10.33-16.18,9.8-23.66-.53-7.48-5.06-12.56-9.8-12.56s-9.27,5.08-9.8,12.56c-.53,7.48,3.1,16.96,9.8,23.66,6.7,6.7,16.18,10.33,23.66,9.8,7.48-.53,12.56-5.06,12.56-9.8s-5.08-9.27-12.56-9.8c-7.48-.53-16.96,3.1-23.66,9.8-6.7,6.7-10.33,16.18-9.8,23.66.53,7.48,5.06,12.56,9.8,12.56s9.27-5.08,9.8-12.56c.53-7.48-3.1-16.96-9.8-23.66-6.7-6.7-16.18-10.33-23.66-9.8-7.48.53-12.56,5.06-12.56,9.8s5.08,9.27,12.56,9.8c7.48.53,16.96-3.1,23.66-9.8,6.7-6.7,10.33-16.18,9.8-23.66-.53-7.48-5.06-12.56-9.8-12.56s-9.27,5.08-9.8,12.56c-.53,7.48,3.1,16.96,9.8,23.66,6.7,6.7,16.18,10.33,23.66,9.8,7.48-.53,12.56-5.06,12.56-9.8s-5.08-9.27-12.56-9.8c-7.48-.53-16.96,3.1-23.66,9.8-6.7,6.7-10.33,16.18-9.8,23.66.53,7.48,5.06,12.56,9.8,12.56s9.27-5.08,9.8-12.56c.53-7.48-3.1-16.96-9.8-23.66-6.7-6.7-16.18-10.33-23.66-9.8-7.48.53-12.56,5.06-12.56,9.8s5.08,9.27,12.56,9.8c7.48.53,16.96-3.1,23.66-9.8,6.7-6.7,10.33-16.18,9.8-23.66-.53-7.48-5.06-12.56-9.8-12.56s-9.27,5.08-9.8,12.56c-.53,7.48,3.1,16.96,9.8,23.66,6.7,6.7,16.18,10.33,23.66,9.8,7.48-.53,12.56-5.06,12.56-9.8s-5.08-9.27-12.56-9.8c-7.48-.53-16.96,3.1-23.66,9.8-6.7,6.7-10.33,16.18-9.8,23.66.53,7.48,5.06,12.56,9.8,12.56s9.27-5.08,9.8-12.56c.53-7.48-3.1-16.96-9.8-23.66-6.7-6.7-16.18-10.33-23.66-9.8-7.48.53-12.56,5.06-12.56,9.8s5.08,9.27,12.56,9.8c7.48.53,16.96-3.1,23.66-9.8,6.7-6.7,10.33-16.18,9.8-23.66-.53-7.48-5.06-12.56-9.8-12.56s-9.27,5.08-9.8,12.56c-.53,7.48,3.1,16.96,9.8,23.66,6.7,6.7,16.18,10.33,23.66,9.8,7.48-.53,12.56-5.06,12.56-9.8s-5.08-9.27-12.56-9.8c-7.48-.53-16.96,3.1-23.66,9.8-6.7,6.7-10.33,16.18-9.8,23.66.53,7.48,5.06,12.56,9.8,12.56s9.27-5.08,9.8-12.56c.53-7.48-3.1-16.96-9.8-23.66-6.7-6.7-16.18-10.33-23.66-9.8-7.48.53-12.56,5.06-12.56,9.8s5.08,9.27,12.56,9.8c7.48.53,16.96-3.1,23.66-9.8,6.7-6.7,10.33-16.18,9.8-23.66-.53-7.48-5.06-12.56-9.8-12.56s-9.27,5.08-9.8,12.56c-.53,7.48,3.1,16.96,9.8,23.66,6.7,6.7,16.18,10.33,23.66,9.8,7.48-.53,12.56-5.06,12.56-9.8s-5.08-9.27-12.56-9.8c-7.48-.53-16.96,3.1-23.66,9.8-6.7,6.7-10.33,16.18-9.8,23.66.53,7.48,5.06,12.56,9.8,12.56s9.27-5.08,9.8-12.56c.53-7.48-3.1-16.96-9.8-23.66-6.7-6.7-16.18-10.33-23.66-9.8-7.48.53-12.56,5.06-12.56,9.8s5.08,9.27,12.56,9.8c7.48.53,16.96-3.1,23.66-9.8,6.7-6.7,10.33-16.18,9.8-23.66-.53-7.48-5.06-12.56-9.8-12.56s-9.27,5.08-9.8,12.56c-.53,7.48,3.1,16.96,9.8,23.66,6.7,6.7,16.18,10.33,23.66,9.8,7.48-.53,12.56-5.06,12.56-9.8s-5.08-9.27-12.56-9.8c-7.48-.53-16.96,3.1-23.66,9.8-6.7,6.7-10.33,16.18-9.8,23.66.53,7.48,5.06,12.56,9.8,12.56s9.27-5.08,9.8-12.56c.53-7.48-3.1-16.96-9.8-23.66-6.7-6.7-16.18-10.33-23.66-9.8-7.48.53-12.56,5.06-12.56,9.8s5.08,9.27,12.56,9.8c7.48.53,16.96-3.1,23.66-9.8,6.7-6.7,10.33-16.18,9.8-23.66-.53-7.48-5.06-12.56-9.8-12.56s-9.27,5.08-9.8,12.56c-.53,7.48,3.1,16.96,9.8,23.66,6.7,6.7,16.18,10.33,23.66,9.8,7.48-.53,12.56-5.06,12.56-9.8s-5.08-9.27-12.56-9.8c-7.48-.53-16.96,3.1-23.66,9.8-6.7,6.7-10.33,16.18-9.8,23.66.53,7.48,5.06,12.56,9.8,12.56s9.27-5.08,9.8-12.56c.53-7.48-3.1-16.96-9.8-23.66-6.7-6.7-16.18-10.33-23.66-9.8-7.48.53-12.56,5.06-12.56,9.8s5.08,9.27,12.56,9.8c7.48.53,16.96-3.1,23.66-9.8,6.7-6.7,10.33-16.18,9.8-23.66-.53-7.48-5.06-12.56-9.8-12.56s-9.27,5.08-9.8,12.56c-.53,7.48,3.1,16.96,9.8,23.66,6.7,6.7,16.18,10.33,23.66,9.8,7.48-.53,12.56-5.06,12.56-9.8s-5.08-9.27-12.56-9.8c-7.48-.53-16.96,3.1-23.66,9.8-6.7,6.7-10.33,16.18-9.8,23.66.53,7.48,5.06,12.56,9.8,12.56s9.27-5.08,9.8-12.56c.53-7.48-3.1-16.96-9.8-23.66-6.7-6.7-16.18-10.33-23.66-9.8-7.48.53-12.56,5.06-12.56,9.8s5.08,9.27,12.56,9.8c7.48.53,16.96-3.1,23.66-9.8,6.7-6.7,10.33-16.18,9.8-23.66-.53-7.48-5.06-12.56-9.8-12.56s-9.27,5.08-9.8,12.56c-.53,7.48,3.1,16.96,9.8,23.66,6.7,6.7,16.18,10.33,23.66,9.8,7.48-.53,12.56-5.06,12.56-9.8s-5.08-9.27-12.56-9.8c-7.48-.53-16.96,3.1-23.66,9.8-6.7,6.7-10.33,16.18-9.8,23.66.53,7.48,5.06,12.56,9.8,12.56s9.27-5.08,9.8-12.56c.53-7.48-3.1-16.96-9.8-23.66-6.7-6.7-16.18-10.33-23.66-9.8-7.48.53-12.56,5.06-12.56,9.8s5.08,9.27,12.56,9.8c7.48.53,16.96-3.1,23.66-9.8,6.7-6.7,10.33-16.18,9.8-23.66-.53-7.48-5.06-12.56-9.8-12.56s-9.27,5.08-9.8,12.56c-.53,7.48,3.1,16.96,9.8,23.66,6.7,6.7,16.18,10.33,23.66,9.8,7.48-.53,12.56-5.06,12.56-9.8s-5.08-9.27-12.56-9.8c-7.48-.53-16.96,3.1-23.66,9.8-6.7,6.7-10.33,16.18-9.8,23.66.53,7.48,5.06,12.56,9.8,12.56s9.27-5.08,9.8-12.56c.53-7.48-3.1-16.96-9.8-23.66-6.7-6.7-16.18-10.33-23.66-9.8-7.48.53-12.56,5.06-12.56,9.8s5.08,9.27,12.56,9.8c7.48.53,16.96-3.1,23.66-9.8,6.7-6.7,10.33-16.18,9.8-23.66-.53-7.48-5.06-12.56-9.8-12.56s-9.27,5.08-9.8,12.56c-.53,7.48,3.1,16.96,9.8,23.66,6.7,6.7,16.18,10.33,23.66,9.8,7.48-.53,12.56-5.06,12.56-9.8s-5.08-9.27-12.56-9.8c-7.48-.53-16.96,3.1-23.66,9.8-6.7,6.7-10.33,16.18-9.8,23.66.53,7.48,5.06,12.56,9.8,12.56s9.27-5.08,9.8-12.56c.53-7.48-3.1-16.96-9.8-23.66-6.7-6.7-16.18-10.33-23.66-9.8-7.48.53-12.56,5.06-12.56,9.8s5.08,9.27,12.56,9.8c7.48.53,16.96-3.1,23.66-9.8,6.7-6.7,10.33-16.18,9.8-23.66-.53-7.48-5.06-12.56-9.8-12.56s-9.27,5.08-9.8,12.56c-.53,7.48,3.1,16.96,9.8,23.66,6.7,6.7,16.18,10.33,23.66,9.8,7.48-.53,12.56-5.06,12.56-9.8s-5.08-9.27-12.56-9.8c-7.48-.53-16.96,3.1-23.66,9.8-6.7,6.7-10.33,16.18-9.8,23.66.53,7.48,5.06,12.56,9.8,12.56s9.27-5.08,9.8-12.56c.53-7.48-3.1-16.96-9.8-23.66-6.7-6.7-16.18-10.33-23.66-9.8-7.48.53-12.56,5.06-12.56,9.8s5.08,9.27,12.56,9.8c7.48.53,16.96-3.1,23.66-9.8,6.7-6.7,10.33-16.18,9.8-23.66-.53-7.48-5.06-12.56-9.8-12.56s-9.27,5.08-9.8,12.56c-.53,7.48,3.1,16.96,9.8,23.66,6.7,6.7,16.18,10.33,23.66,9.8,7.48-.53,12.56-5.06,12.56-9.8s-5.08-9.27-12.56-9.8c-7.48-.53-16.96,3.1-23.66,9.8-6.7,6.7-10.33,16.18-9.8,23.66.53,7.48,5.06,12.56,9.8,12.56s9.27-5.08,9.8-12.56c.53-7.48-3.1-16.96-9.8-23.66-6.7-6.7-16.18-10.33-23.66-9.8-7.48.53-12.56,5.06-12.56,9.8s5.08,9.27,12.56,9.8c7.48.53,16.96-3.1,23.66-9.8,6.7-6.7,10.33-16.18,9.8-23.66-.53-7.48-5.06-12.56-9.8-12.56s-9.27,5.08-9.8,12.56c-.53,7.48,3.1,16.96,9.8,23.66,6.7,6.7,16.18,10.33,23.66,9.8,7.48-.53,12.56-5.06,12.56-9.8s-5.08-9.27-12.56-9.8c-7.48-.53-16.96,3.1-23.66,9.8-6.7,6.7-10.33,16.18-9.8,23.66.53,7.48,5.06,12.56,9.8,12.56s9.27-5.08,9.8-12.56c.53-7.48-3.1-16.96-9.8-23.66-6.7-6.7-16.18-10.33-23.66-9.8-7.48.53-12.56,5.06-12.56,9.8s5.08,9.27,12.56,9.8c7.48.53,16.96-3.1,23.66-9.8,6.7-6.7,10.33-16.18,9.8-23.66-.53-7.48-5.06-12.56-9.8-12.56s-9.27,5.08-9.8,12.56c-.53,7.48,3.1,16.96,9.8,23.66,6.7,6.7,16.18,10.33,23.66,9.8,7.48-.53,12.56-5.06,12.56-9.8s-5.08-9.27-12.56-9.8c-7.48-.53-16.96,3.1-23.66,9.8-6.7,6.7-10.33,16.18-9.8,23.66.53,7.48,5.06,12.56,9.8,12.56s9.27-5.08,9.8-12.56c.53-7.48-3.1-16.96-9.8-23.66-6.7-6.7-16.18-10.33-23.66-9.8-7.48.53-12.56,5.06-12.56,9.8s5.08,9.27,12.56,9.8c7.48.53,16.96-3.1,23.66-9.8,6.7-6.7,10.33-16.18,9.8-23.66-.53-7.48-5.06-12.56-9.8-12.56s-9.27,5.08-9.8,12.56c-.53,7.48,3.1,16.96,9.8,23.66,6.7,6.7,16.18,10.33,23.66,9.8,7.48-.53,12.56-5.06,12.56-9.8s-5.08-9.27-12.56-9.8c-7.48-.53-16.96,3.1-23.66,9.8-6.7,6.7-10.33,16.18-9.8,23.66.53,7.48,5.06,12.56,9.8,12.56s9.27-5.08,9.8-12.56c.53-7.48-3.1-16.96-9.8-23.66-6.7-6.7-16.18-10.33-23.66-9.8-7.48.53-12.56,5.06-12.56,9.8s5.08,9.27,12.56,9.8c7.48.53,16.96-3.1,23.66-9.8,6.7-6.7,10.33-16.18,9.8-23.66-.53-7.48-5.06-12.56-9.8-12.56s-9.27,5.08-9.8,12.56c-.53,7.48,3.1,16.96,9.8,23.66,6.7,6.7,16.18,10.33,23.66,9.8,7.48-.53,12.56-5.06,12.56-9.8s-5.08-9.27-12.56-9.8c-7.48-.53-16.96,3.1-23.66,9.8-6.7,6.7-10.33,16.18-9.8,23.66.53,7.48,5.06,12.56,9.8,12.56s9.27-5.08,9.8-12.56c.53-7.48-3.1-16.96-9.8-23.66-6.7-6.7-16.18-10.33-23.66-9.8-7.48.53-12.56,5.06-12.56,9.8s5.08,9.27,12.56,9.8c7.48.53,16.96-3.1,23.66-9.8,6.7-6.7,10.33-16.18,9.8-23.66-.53-7.48-5.06-12.56-9.8-12.56s-9.27,5.08-9.8,12.56c-.53,7.48,3.1,16.96,9.8,23.66,6.7,6.7,16.18,10.33,23.66,9.8,7.48-.53,12.56-5.06,12.56-9.8s-5.08-9.27-12.56-9.8c-7.48-.53-16.96,3.1-23.66,9.8-6.7,6.7-10.33,16.18-9.8,23.66.53,7.48,5.06,12.56,9.8,12.56s9.27-5.08,9.8-12.56c.53-7.48-3.1-16.96-9.8-23.66-6.7-6.7-16.18-10.33-23.66-9.8-7.48.53-12.56,5.06-12.56,9.8s5.08,9.27,12.56,9.8c7.48.53,16.96-3.1,23.66-9.8,6.7-6.7,10.33-16.18,9.8-23.66-.53-7.48-5.06-12.56-9.8-12.56s-9.27,5.08-9.8,12.56c-.53,7.48,3.1,16.96,9.8,23.66,6.7,6.7,16.18,10.33,23.66,9.8,7.48-.53,12.56-5.06,12.56-9.8s-5.08-9.27-12.56-9.8c-7.48-.53-16.96,3.1-23.66,9.8-6.7,6.7-10.33,16.18-9.8,23.66.53,7.48,5.06,12.56,9.8,12.56s9.27-5.08,9.8-12.56c.53-7.48-3.1-16.96-9.8-23.66-6.7-6.7-16.18-10.33-23.66-9.8-7.48.53-12.56,5.06-12.56,9.8s5.08,9.27,12.56,9.8c7.48.53,16.96-3.1,23.66-9.8,6.7-6.7,10.33-16.18,9.8-23.66-.53-7.48-5.06-12.56-9.8-12.56s-9.27,5.08-9.8,12.56c-.53,7.48,3.1,16.96,9.8,23.66,6.7,6.7,16.18,10.33,23.66,9.8,7.48-.53,12.56-5.06,12.56-9.8s-5.08-9.27-12.56-9.8c-7.48-.53-16.96,3.1-23.66,9.8-6.7,6.7-10.33,16.18-9.8,23.66.53,7.48,5.06,12.56,9.8,12.56s9.27-5.08,9.8-12.56c.53-7.48-3.1-16.96-9.8-23.66-6.7-6.7-16.18-10.33-23.66-9.8-7.48.53-12.56,5.06-12.56,9.8s5.08,9.27,12.56,9.8c7.48.53,16.96-3.1,23.66-9.8,6.7-6.7,10.33-16.18,9.8-23.66-.53-7.48-5.06-12.56-9.8-12.56s-9.27,5.08-9.8,12.56c-.53,7.48,3.1,16.96,9.8,23.66,6.7,6.7,16.18,10.33,23.66,9.8,7.48-.53,12.56-5.06,12.56-9.8s-5.08-9.27-12.56-9.8c-7.48-.53-16.96,3.1-23.66,9.8-6.7,6.7-10.33,16.18-9.8,23.66.53,7.48,5.06,12.56,9.8,12.56s9.27-5.08,9.8-12.56c.53-7.48-3.1-16.96-9.8-23.66-6.7-6.7-16.18-10.33-23.66-9.8-7.48.53-12.56,5.06-12.56,9.8s5.08,9.27,12.56,9.8c7.48.53,16.96-3.1,23.66-9.8,6.7-6.7,10.33-16.18,9.8-23.66-.53-7.48-5.06-12.56-9.8-12.56s-9.27,5.08-9.8,12.56c-.53,7.48,3.1,16.96,9.8,23.66,6.7,6.7,16.18,10.33,23.66,9.8,7.48-.53,12.56-5.06,12.56-9.8s-5.08-9.27-12.56-9.8c-7.48-.53-16.96,3.1-23.66,9.8-6.7,6.7-10.33,16.18-9.8,23.66.53,7.48,5.06,12.56,9.8,12.56s9.27-5.08,9.8-12.56c.53-7.48-3.1-16.96-9.8-23.66-6.7-6.7-16.18-10.33-23.66-9.8-7.48.53-12.56,5.06-12.56,9.8s5.08,9.27,12.56,9.8c7.48.53,16.96-3.1,23.66-9.8,6.7-6.7,10.33-16.18,9.8-23.66-.53-7.48-5.06-12.56-9.8-12.56s-9.27,5.08-9.8,12.56c-.53,7.48,3.1,16.96,9.8,23.66,6.7,6.7,16.18,10.33,23.66,9.8,7.48-.53,12.56-5.06,12.56-9.8s-5.08-9.27-12.56-9.8c-7.48-.53-16.96,3.1-23.66,9.8-6.7,6.7-10.33,16.18-9.8,23.66.53,7.48,5.06,12.56,9.8,12.56s9.27-5.08,9.8-12.56c.53-7.48-3.1-16.96-9.8-23.66-6.7-6.7-16.18-10.33-23.66-9.8-7.48.53-12.56,5.06-12.56,9.8s5.08,9.27,12.56,9.8c7.48.53,16.96-3.1,23.66-9.8,6.7-6.7,10.33-16.18,9.8-23.66-.53-7.48-5.06-12.56-9.8-12.56s-9.27,5.08-9.8,12.56c-.53,7.48,3.1,16.96,9.8,23.66,6.7,6.7,16.18,10.33,23.66,9.8,7.48-.53,12.56-5.06,12.56-9.8s-5.08-9.27-12.56-9.8c-7.48-.53-16.96,3.1-23.66,9.8-6.7,6.7-10.33,16.18-9.8,23.66.53,7.48,5.06,12.56,9.8,12.56s9.27-5.08,9.8-12.56c.53-7.48-3.1-16.96-9.8-23.66-6.7-6.7-16.18-10.33-23.66-9.8-7.48.53-12.56,5.06-12.56,9.8s5.08,9.27,12.56,9.8c7.48.53,16.96-3.1,23.66-9.8,6.7-6.7,10.33-16.18,9.8-23.66-.53-7.48-5.06-12.56-9.8-12.56s-9.27,5.08-9.8,12.56c-.53,7.48,3.1,16.96,9.8,23.66,6.7,6.7,16.18,10.33,23.66,9.8,7.48-.53,12.56-5.06,12.56-9.8s-5.08-9.27-12.56-9.8c-7.48-.53-16.96,3.1-23.66,9.8-6.7,6.7-10.33,16.18-9.8,23.66.53,7.48,5.06,12.56,9.8,12.56s9.27-5.08,9.8-12.56c.53-7.48-3.1-16.96-9.8-23.66-6.7-6.7-16.18-10.33-23.66-9.8-7.48.53-12.56,5.06-12.56,9.8s5.08,9.27,12.56,9.8c7.48.53,16.96-3.1,23.66-9.8,6.7-6.7,10.33-16.18,9.8-23.66-.53-7.48-5.06-12.56-9.8-12.56s-9.27,5.08-9.8,12.56c-.53,7.48,3.1,16.96,9.8,23.66,6.7,6.7,16.18,10.33,23.66,9.8,7.48-.53,12.56-5.06,12.56-9.8s-5.08-9.27-12.56-9.8c-7.48-.53-16.96,3.1-23.66,9.8-6.7,6.7-10.33,16.18-9.8,23.66.53,7.48,5.06,12.56,9.8,12.56s9.27-5.08,9.8-12.56c.53-7.48-3.1-16.96-9.8-23.66-6.7-6.7-16.18-10.33-23.66-9.8-7.48.53-12.56,5.06-12.56,9.8s5.08,9.27,12.56,9.8c7.48.53,16.96-3.1,23.66-9.8,6.7-6.7,10.33-16.18,9.8-23.66-.53-7.48-5.06-12.56-9.8-12.56s-9.27,5.08-9.8,12.56c-.53,7.48,3.1,16.96,9.8,23.66,6.7,6.7,16.18,10.33,23.66,9.8,7.48-.53,12.56-5.06,12.56-9.8s-5.08-9.27-12.56-9.8c-7.48-.53-16.96,3.1-23.66,9.8-6.7,6.7-10.33,16.18-9.8,23.66.53,7.48,5.06,12.56,9.8,12.56s9.27-5.08,9.8-12.56c.53-7.48-3.1-16.96-9.8-23.66-6.7-6.7-16.18-10.33-23.66-9.8-7.48.53-12.56,5.06-12.56,9.8s5.08,9.27,12.56,9.8c7.48.53,16.96-3.1,23.66-9.8,6.7-6.7,10.33-16.18,9.8-23.66-.53-7.48-5.06-12.56-9.8-12.56s-9.27,5.08-9.8,12.56c-.53,7.48,3.1,16.96,9.8,23.66,6.7,6.7,16.18,10.33,23.66,9.8,7.48-.53,12.56-5.06,12.56-9.8s-5.08-9.27-12.56-9.8c-7.48-.53-16.96,3.1-23.66,9.8-6.7,6.7-10.33,16.18-9.8,23.66.53,7.48,5.06,12.56,9.8,12.56s9.27-5.08,9.8-12.56c.53-7.48-3.1-16.96-9.8-23.66-6.7-6.7-16.18-10.33-23.66-9.8-7.48.53-12.56,5.06-12.56,9.8s5.08,9.27,12.56,9.8c7.48.53,16.96-3.1,23.66-9.8,6.7-6.7,10.33-16.18,9.8-23.66-.53-7.48-5.06-12.56-9.8-12.56s-9.27,5.08-9.8,12.56c-.53,7.48,3.1,16.96,9.8,23.66,6.7,6.7,16.18,10.33,23.66,9.8,7.48-.53,12.56-5.06,12.56-9.8s-5.08-9.27-12.56-9.8c-7.48-.53-16.96,3.1-23.66,9.8-6.7,6.7-10.33,16.18-9.8,23.66.53,7.48,5.06,12.56,9.8,12.56s9.27-5.08,9.8-12.56c.53-7.48-3.1-16.96-9.8-23.66-6.7-6.7-16.18-10.33-23.66-9.8-7.48.53-12.56,5.06-12.56,9.8s5.08,9.27,12.56,9.8c7.48.53,16.96-3.1,23.66-9.8,6.7-6.7,10.33-16.18,9.8-23.66-.53-7.48-5.06-12.56-9.8-12.56s-9.27,5.08-9.8,12.56c-.53,7.48,3.1,16.96,9.8,23.66,6.7,6.7,16.18,10.33,23.66,9.8,7.48-.53,12.56-5.06,12.56-9.8s-5.08-9.27-12.56-9.8c-7.48-.53-16.96,3.1-23.66,9.8-6.7,6.7-10.33,16.18-9.8,23.66.53,7.48,5.06,12.56,9.8,12.56s9.27-5.08,9.8-12.56c.53-7.48-3.1-16.96-9.8-23.66-6.7-6.7-16.18-10.33-23.66-9.8-7.48.53-12.56,5.06-12.56,9.8s5.08,9.27,12.56,9.8c7.48.53,16.96-3.1,23.66-9.8,6.7-6.7,10.33-16.18,9.8-23.66-.53-7.48-5.06-12.56-9.8-12.56s-9.27,5.08-9.8,12.56c-.53,7.48,3.1,16.96,9.8,23.66,6.7,6.7,16.18,10.33,23.66,9.8,7.48-.53,12.56-5.06,12.56-9.8s-5.08-9.27-12.56-9.8c-7.48-.53-16.96,3.1-23.66,9.8-6.7,6.7-10.33,16.18-9.8,23.66.53,7.48,5.06,12.56,9.8,12.56s9.27-5.08,9.8-12.56c.53-7.48-3.1-16.96-9.8-23.66-6.7-6.7-16.18-10.33-23.66-9.8-7.48.53-12.56,5.06-12.56,9.8s5.08,9.27,12.56,9.8c7.48.53,16.96-3.1,23.66-9.8,6.7-6.7,10.33-16.18,9.8-23.66-.53-7.48-5.06-12.56-9.8-12.56s-9.27,5.08-9.8,12.56c-.53,7.48,3.1,16.96,9.8,23.66,6.7,6.7,16.18,10.33,23.66,9.8,7.48-.53,12.56-5.06,12.56-9.8s-5.08-9.27-12.56-9.8c-7.48-.53-16.96,3.1-23.66,9.8-6.7,6.7-10.33,16.18-9.8,23.66.53,7.48,5.06,12.56,9.8,12.56s9.27-5.08,9.8-12.56c.53-7.48-3.1-16.96-9.8-23.66-6.7-6.7-16.18-10.33-23.66-9.8-7.48.53-12.56,5.06-12.56,9.8s5.08,9.27,12.56,9.8c7.48.53,16.96-3.1,23.66-9.8,6.7-6.7,10.33-16.18,9.8-23.66-.53-7.48-5.06-12.56-9.8-12.56s-9.27,5.08-9.8,12.56c-.53,7.48,3.1,16.96,9.8,23.66,6.7,6.7,16.18,10.33,23.66,9.8,7.48-.53,12.56-5.06,12.56-9.8s-5.08-9.27-12.56-9.8c-7.48-.53-16.96,3.1-23.66,9.8-6.7,6.7-10.33,16.18-9.8,23.66.53,7.48,5.06,12.56,9.8,12.56s9.27-5.08,9.8-12.56c.53-7.48-3.1-16.96-9.8-23.66-6.7-6.7-16.18-10.33-23.66-9.8-7.48.53-12.56,5.06-12.56,9.8s5.08,9.27,12.56,9.8c7.48.53,16.96-3.1,23.66-9.8,6.7-6.7,10.33-16.18,9.8-23.66-.53-7.48-5.06-12.56-9.8-12.56s-9.27,5.08-9.8,12.56c-.53,7.48,3.1,16.96,9.8,23.66,6.7,6.7,16.18,10.33,23.66,9.8,7.48-.53,12.56-5.06,12.56-9.8s-5.08-9.27-12.56-9.8c-7.48-.53-16.96,3.1-23.66,9.8-6.7,6.7-10.33,16.18-9.8,23.66.53,7.48,5.06,12.56,9.8,12.56s9.27-5.08,9.8-12.56c.53-7.48-3.1-16.96-9.8-23.66-6.7-6.7-16.18-10.33-23.66-9.8-7.48.53-12.56,5.06-12.56,9.8s5.08,9.27,12.56,9.8c7.48.53,16.96-3.1,23.66-9.8,6.7-6.7,10.33-16.18,9.8-23.66-.53-7.48-5.06-12.56-9.8-12.56s-9.27,5.08-9.8,12.56c-.53,7.48,3.1,16.96,9.8,23.66,6.7,6.7,16.18,10.33,23.66,9.8,7.48-.53,12.56-5.06,12.56-9.8s-5.08-9.27-12.56-9.8c-7.48-.53-16.96,3.1-23.66,9.8-6.7,6.7-10.33,16.18-9.8,23.66.53,7.48,5.06,12.56,9.8,12.56s9.27-5.08,9.8-12.56c.53-7.48-3.1-16.96-9.8-23.66-6.7-6.7-16.18-10.33-23.66-9.8-7.48.53-12.56,5.06-12.56,9.8s5.08,9.27,12.56,9.8c7.48.53,16.96-3.1,23.66-9.8,6.7-6.7,10.33-16.18,9.8-23.66-.53-7.48-5.06-12.56-9.8-12.56s-9.27,5.08-9.8,12.56c-.53,7.48,3.1,16.96,9.8,23.66,6.7,6.7,16.18,10.33,23.66,9.8,7.48-.53,12.56-5.06,12.56-9.8s-5.08-9.27-12.56-9.8c-7.48-.53-16.96,3.1-23.66,9.8-6.7,6.7-10.33,16.18-9.8,23.66.53,7.48,5.06,12.56,9.8,12.56s9.27-5.08,9.8-12.56c.53-7.48-3.1-16.96-9.8-23.66-6.7-6.7-16.18-10.33-23.66-9.8-7.48.53-12.56,5.06-12.56,9.8s5.08,9.27,12.56,9.8c7.48.53,16.96-3.1,23.66-9.8,6.7-6.7,10.33-16.18,9.8-23.66-.53-7.48-5.06-12.56-9.8-12.56s-9.27,5.08-9.8,12.56c-.53,7.48,3.1,16.96,9.8,23.66,6.7,6.7,16.18,10.33,23.66,9.8,7.48-.53,12.56-5.06,12.56-9.8s-5.08-9.27-12.56-9.8c-7.48-.53-16.96,3.1-23.66,9.8-6.7,6.7-10.33,16.18-9.8,23.66.53,7.48,5.06,12.56,9.8,12.56s9.27-5.08,9.8-12.56c.53-7.48-3.1-16.96-9.8-23.66-6.7-6.7-16.18-10.33-23.66-9.8-7.48.53-12.56,5.06-12.56,9.8s5.08,9.27,12.56,9.8c7.48.53,16.96-3.1,23.66-9.8,6.7-6.7,10.33-16.18,9.8-23.66-.53-7.48-5.06-12.56-9.8-12.56s-9.27,5.08-9.8,12.56c-.53,7.48,3.1,16.96,9.8,23.66,6.7,6.7,16.18,10.33,23.66,9.8,7.48-.53,12.56-5.06,12.56-9.8s-5.08-9.27-12.56-9.8c-7.48-.53-16.96,3.1-23.66,9.8-6.7,6.7-10.33,16.18-9.8,23.66.53,7.48,5.06,12.56,9.8,12.56s9.27-5.08,9.8-12.56c.53-7.48-3.1-16.96-9.8-23.66-6.7-6.7-16.18-10.33-23.66-9.8-7.48.53-12.56,5.06-12.56,9.8s5.08,9.27,12.56,9.8c7.48.53,16.96-3.1,23.66-9.8,6.7-6.7,10.33-16.18,9.8-23.66-.53-7.48-5.06-12.56-9.8-12.56s-9.27,5.08-9.8,12.56c-.53,7.48,3.1,16.96,9.8,23.66,6.7,6.7,16.18,10.33,23.66,9.8,7.48-.53,12.56-5.06,12.56-9.8s-5.08-9.27-12.56-9.8c-7.48-.53-16.96,3.1-23.66,9.8-6.7,6.7-10.33,16.18-9.8,23.66.53,7.48,5.06,12.56,9.8,12.56s9.27-5.08,9.8-12.56c.53-7.48-3.1-16.96-9.8-23.66-6.7-6.7-16.18-10.33-23.66-9.8-7.48.53-12.56,5.06-12.56,9.8s5.08,9.27,12.56,9.8c7.48.53,16.96-3.1,23.66-9.8,6.7-6.7,10.33-16.18,9.8-23.66-.53-7.48-5.06-12.56-9.8-12.56s-9.27,5.08-9.8,12.56c-.53,7.48,3.1,16.96,9.8,23.66,6.7,6.7,16.18,10.33,23.66,9.8,7.48-.53,12.56-5.06,12.56-9.8s-5.08-9.27-12.56-9.8c-7.48-.53-16.96,3.1-23.66,9.8-6.7,6.7-10.33,16.18-9.8,23.66.53,7.48,5.06,12.56,9.8,12.56s9.27-5.08,9.8-12.56c.53-7.48-3.1-16.96-9.8-23.66-6.7-6.7-16.18-10.33-23.66-9.8-7.48.53-12.56,5.06-12.56,9.8s5.08,9.27,12.56,9.8c7.48.53,16.96-3.1,23.66-9.8,6.7-6.7,10.33-16.18,9.8-23.66-.53-7.48-5.06-12.56-9.8-12.56s-9.27,5.08-9.8,12.56c-.53,7.48,3.1,16.96,9.8,23.66,6.7,6.7,16.18,10.33,23.66,9.8,7.48-.53,12.56-5.06,12.56-9.8s-5.08-9.27-12.56-9.8c-7.48-.53-16.96,3.1-23.66,9.8-6.7,6.7-10.33,16.18-9.8,23.66.53,7.48,5.06,12.56,9.8,12.56s9.27-5.08,9.8-12.56c.53-7.48-3.1-16.96-9.8-23.66-6.7-6.7-16.18-10.33-23.66-9.8-7.48.53-12.56,5.06-12.56,9.8s5.08,9.27,12.56,9.8c7.48.53,16.96-3.1,23.66-9.8,6.7-6.7,10.33-16.18,9.8-23.66-.53-7.48-5.06-12.56-9.8-12.56s-9.27,5.08-9.8,12.56c-.53,7.48,3.1,16.96,9.8,23.66,6.7,6.7,16.18,10.33,23.66,9.8,7.48-.53,12.56-5.06,12.56-9.8s-5.08-9.27-12.56-9.8c-7.48-.53-16.96,3.1-23.66,9.8-6.7,6.7-10.33,16.18-9.8,23.66.53,7.48,5.06,12.56,9.8,12.56s9.27-5.08,9.8-12.56c.53-7.48-3.1-16.96-9.8-23.66-6.7-6.7-16.18-10.33-23.66-9.8-7.48.53-12.56,5.06-12.56,9.8s5.08,9.27,12.56,9.8c7.48.53,16.96-3.1,23.66-9.8,6.7-6.7,10.33-16.18,9.8-23.66-.53-7.48-5.06-12.56-9.8-12.56s-9.27,5.08-9.8,12.56c-.53,7.48,3.1,16.96,9.8,23.66,6.7,6.7,16.18,10.33,23.66,9.8,7.48-.53,12.56-5.06,12.56-9.8s-5.08-9.27-12.56-9.8c-7.48-.53-16.96,3.1-23.66,9.8-6.7,6.7-10.33,16.18-9.8,23.66.53,7.48,5.06,12.56,9.8,12.56s9.27-5.08,9.8-12.56c.53-7.48-3.1-16.96-9.8-23.66-6.7-6.7-16.18-10.33-23.66-9.8-7.48.53-12.56,5.06-12.56,9.8s5.08,9.27,12.56,9.8c7.48.53,16.96-3.1,23.66-9.8,6.7-6.7,10.33-16.18,9.8-23.66-.53-7.48-5.06-12.56-9.8-12.56s-9.27,5.08-9.8,12.56c-.53,7.48,3.1,16.96,9.8,23.66,6.7,6.7,16.18,10.33,23.66,9.8,7.48-.53,12.56-5.06,12.56-9.8s-5.08-9.27-12.56-9.8c-7.48-.53-16.96,3.1-23.66,9.8-6.7,6.7-10.33,16.18-9.8,23.66.53,7.48,5.06,12.56,9.8,12.56s9.27-5.08,9.8-12.56c.53-7.48-3.1-16.96-9.8-23.66-6.7-6.7-16.18-10.33-23.66-9.8-7.48.53-12.56,5.06-12.56,9.8s5.08,9.27,12.56,9.8c7.48.53,16.96-3.1,23.66-9.8,6.7-6.7,10.33-16.18,9.8-23.66-.53-7.48-5.06-12.56-9.8-12.56s-9.27,5.08-9.8,12.56c-.53,7.48,3.1,16.96,9.8,23.66,6.7,6.7,16.18,10.33,23.66,9.8,7.48-.53,12.56-5.06,12.56-9.8s-5.08-9.27-12.56-9.8c-7.48-.53-16.96,3.1-23.66,9.8-6.7,6.7-10.33,16.18-9.8,23.66.53,7.48,5.06,12.56,9.8,12.56s9.27-5.08,9.8-12.56c.53-7.48-3.1-16.96-9.8-23.66-6.7-6.7-16.18-10.33-23.66-9.8-7.48.53-12.56,5.06-12.56,9.8s5.08,9.27,12.56,9.8c7.48.53,16.96-3.1,23.66-9.8,6.7-6.7,10.33-16.18,9.8-23.66-.53-7.48-5.06-12.56-9.8-12.56s-9.27,5.08-9.8,12.56c-.53,7.48,3.1,16.96,9.8,23.66,6.7,6.7,16.18,10.33,23.66,9.8,7.48-.53,12.56-5.06,12.56-9.8s-5.08-9.27-12.56-9.8c-7.48-.53-16.96,3.1-23.66,9.8-6.7,6.7-10.33,16.18-9.8,23.66.53,7.48,5.06,12.56,9.8,12.56s9.27-5.08,9.8-12.56c.53-7.48-3.1-16.96-9.8-23.66-6.7-6.7-16.18-10.33-23.66-9.8-7.48.53-12.56,5.06-12.56,9.8s5.08,9.27,12.56,9.8c7.48.53,16.96-3.1,23.66-9.8,6.7-6.7,10.33-16.18,9.8-23.66-.53-7.48-5.06-12.56-9.8-12.56s-9.27,5.08-9.8,12.56c-.53,7.48,3.1,16.96,9.8,23.66,6.7,6.7,16.18,10.33,23.66,9.8,7.48-.53,12.56-5.06,12.56-9.8s-5.08-9.27-12.56-9.8c-7.48-.53-16.96,3.1-23.66,9.8-6.7,6.7-10.33,16.18-9.8,23.66.53,7.48,5.06,12.56,9.8,12.56s9.27-5.08,9.8-12.56c.53-7.48-3.1-16.96-9.8-23.66-6.7-6.7-16.18-10.33-23.66-9.8-7.48.53-12.56,5.06-12.56,9.8s5.08,9.27,12.56,9.8c7.48.53,16.96-3.1,23.66-9.8,6.7-6.7,10.33-16.18,9.8-23.66-.53-7.48-5.06-12.56-9.8-12.56s-9.27,5.08-9.8,12.56c-.53,7.48,3.1,16.96,9.8,23.66,6.7,6.7,16.18,10.33,23.66,9.8,7.48-.53,12.56-5.06,12.56-9.8s-5.08-9.27-12.56-9.8c-7.48-.53-16.96,3.1-23.66,9.8-6.7,6.7-10.33,16.18-9.8,23.66.53,7.48,5.06,12.56,9.8,12.56s9.27-5.08,9.8-12.56c.53-7.48-3.1-16.96-9.8-23.66-6.7-6.7-16.18-10.33-23.66-9.8-7.48.53-12.56,5.06-12.56,9.8s5.08,9.27,12.56,9.8c7.48.53,16.96-3.1,23.66-9.8,6.7-6.7,10.33-16.18,9.8-23.66-.53-7.48-5.06-12.56-9.8-12.56s-9.27,5.08-9.8,12.56c-.53,7.48,3.1,16.96,9.8,23.66,6.7,6.7,16.18,10.33,23.66,9.8,7.48-.53,12.56-5.06,12.56-9.8s-5.08-9.27-12.56-9.8c-7.48-.53-16.96,3.1-23.66,9.8-6.7,6.7-10.33,16.18-9.8,23.66.53,7.48,5.06,12.56,9.8,12.56s9.27-5.08,9.8-12.56c.53-7.48-3.1-16.96-9.8-23.66-6.7-6.7-16.18-10.33-23.66-9.8-7.48.53-12.56,5.06-12.56,9.8s5.08,9.27,12.56,9.8c7.48.53,16.96-3.1,23.66-9.8,6.7-6.7,10.33-16.18,9.8-23.66-.53-7.48-5.06-12.56-9.8-12.56s-9.27,5.08-9.8,12.56c-.53,7.48,3.1,16.96,9.8,23.66,6.7,6.7,16.18,10.33,23.66,9.8,7.48-.53,12.56-5.06,12.56-9.8s-5.08-9.27-12.56-9.8c-7.48-.53-16.96,3.1-23.66,9.8-6.7,6.7-10.33,16.18-9.8,23.66.53,7.48,5.06,12.56,9.8,12.56s9.27-5.08,9.8-12.56c.53-7.48-3.1-16.96-9.8-23.66-6.7-6.7-16.18-10.33-23.66-9.8-7.48.53-12.56,5.06-12.56,9.8s5.08,9.27,12.56,9.8c7.48.53,16.96-3.1,23.66-9.8,6.7-6.7,10.33-16.18,9.8-23.66-.53-7.48-5.06-12.56-9.8-12.56s-9.27,5.08-9.8,12.56c-.53,7.48,3.1,16.96,9.8,23.66,6.7,6.7,16.18,10.33,23.66,9.8,7.48-.53,12.56-5.06,12.56-9.8s-5.08-9.27-12.56-9.8c-7.48-.53-16.96,3.1-23.66,9.8-6.7,6.7-10.33,16.18-9.8,23.66.53,7.48,5.06,12.56,9.8,12.56s9.27-5.08,9.8-12.56c.53-7.48-3.1-16.96-9.8-23.66-6.7-6.7-16.18-10.33-23.66-9.8-7.48.53-12.56,5.06-12.56,9.8s5.08,9.27,12.56,9.8c7.48.53,16.96-3.1,23.66-9.8,6.7-6.7,10.33-16.18,9.8-23.66-.53-7.48-5.06-12.56-9.8-12.56s-9.27,5.08-9.8,12.56c-.53,7.48,3.1,16.96,9.8,23.66,6.7,6.7,16.18,10.33,23.66,9.8,7.48-.53,12.56-5.06,12.56-9.8s-5.08-9.27-12.56-9.8c-7.48-.53-16.96,3.1-23.66,9.8-6.7,6.7-10.33,16.18-9.8,23.66.53,7.48,5.06,12.56,9.8,12.56s9.27-5.08,9.8-12.56c.53-7.48-3.1-16.96-9.8-23.66-6.7-6.7-16.18-10.33-23.66-9.8-7.48.53-12.56,5.06-12.56,9.8s5.08,9.27,12.56,9.8c7.48.53,16.96-3.1,23.66-9.8,6.7-6.7,10.33-16.18,9.8-23.66-.53-7.48-5.06-12.56-9.8-12.56s-9.27,5.08-9.8,12.56c-.53,7.48,3.1,16.96,9.8,23.66,6.7,6.7,16.18,10.33,23.66,9.8,7.48-.53,12.56-5.06,12.56-9.8s-5.08-9.27-12.56-9.8c-7.48-.53-16.96,3.1-23.66,9.8-6.7,6.7-10.33,16.18-9.8,23.66.53,7.48,5.06,12.56,9.8,12.56s9.27-5.08,9.8-12.56c.53-7.48-3.1-16.96-9.8-23.66-6.7-6.7-16.18-10.33-23.66-9.8-7.48.53-12.56,5.06-12.56,9.8s5.08,9.27,12.56,9.8c7.48.53,16.96-3.1,23.66-9.8,6.7-6.7,10.33-16.18,9.8-23.66-.53-7.48-5.06-12.56-9.8-12.56s-9.27,5.08-9.8,12.56c-.53,7.48,3.1,16.96,9.8,23.66,6.7,6.7,16.18,10.33,23.66,9.8,7.48-.53,12.56-5.06,12.56-9.8s-5.08-9.27-12.56-9.8c-7.48-.53-16.96,3.1-23.66,9.8-6.7,6.7-10.33,16.18-9.8,23.66"/>
          <path id="path7563" class="cls-5" d="M1665.5,904.36c-3.91,0-7.76,3.27-9.46,8.71-1.7,5.44-1.16,12.95,1.95,20.07,3.11,7.13,8.77,13.75,15.23,17.91,6.46,4.17,13.59,5.83,18.86,5,5.27-.84,8.57-4.11,8.53-7.98-.04-3.87-3.43-8.2-9.27-10.86-5.84-2.66-14.04-3.55-22.09-1.99-8.05,1.56-15.8,5.56-21.02,10.63-5.22,5.07-7.83,11.08-7.51,15.69.32,4.6,3.52,7.67,7.87,7.71,4.34.04,9.69-2.99,13.69-8.48,4-5.49,6.53-13.36,6.53-21.3s-2.54-15.81-6.53-21.3c-4-5.49-9.35-8.52-13.69-8.48-4.34.04-7.55,3.11-7.87,7.71-.32,4.6,2.29,10.62,7.51,15.69,5.22,5.07,12.97,9.06,21.02,10.63,8.05,1.56,16.24.67,22.09-1.99,5.84-2.66,9.23-6.99,9.27-10.86.04-3.87-3.26-7.14-8.53-7.98-5.27-.84-12.4.83-18.86,5-6.46,4.17-12.11,10.79-15.23,17.91-3.11,7.13-3.65,14.63-1.95,20.07,1.7,5.44,5.54,8.71,9.46,8.71s7.76-3.27,9.46-8.71c1.7-5.44,1.16-12.95-1.95-20.07-3.11-7.13-8.77-13.75-15.23-17.91-6.46-4.17-13.59-5.83-18.86-5-5.27.84-8.57,4.11-8.53,7.98.04,3.87,3.43,8.2,9.27,10.86,5.84,2.66,14.04,3.55,22.09,1.99,8.05-1.56,15.8-5.56,21.02-10.63,5.22-5.07,7.83-11.08,7.51-15.69-.32-4.6-3.52-7.67-7.87-7.71-4.34-.04-9.69,2.99-13.69,8.48-4,5.49-6.53,13.36-6.53,21.3s2.54,15.81,6.53,21.3c4,5.49,9.35,8.52,13.69,8.48,4.34-.04,7.55-3.11,7.87-7.71.32-4.6-2.29-10.62-7.51-15.69-5.22-5.07-12.97-9.06-21.02-10.63-8.05-1.56-16.24-.67-22.09,1.99-5.84,2.66-9.23,6.99-9.27,10.86-.04,3.87,3.26,7.14,8.53,7.98,5.27.84,12.4-.83,18.86-5,6.46-4.17,12.11-10.79,15.23-17.91,3.11-7.13,3.65-14.63,1.95-20.07-1.7-5.44-5.54-8.71-9.46-8.71s-7.76,3.27-9.46,8.71c-1.7,5.44-1.16,12.95,1.95,20.07,3.11,7.13,8.77,13.75,15.23,17.91,6.46,4.17,13.59,5.83,18.86,5,5.27-.84,8.57-4.11,8.53-7.98-.04-3.87-3.43-8.2-9.27-10.86-5.84-2.66-14.04-3.55-22.09-1.99-8.05,1.56-15.8,5.56-21.02,10.63-5.22,5.07-7.83,11.08-7.51,15.69.32,4.6,3.52,7.67,7.87,7.71,4.34.04,9.69-2.99,13.69-8.48,4-5.49,6.53-13.36,6.53-21.3s-2.54-15.81-6.53-21.3c-4-5.49-9.35-8.52-13.69-8.48-4.34.04-7.55,3.11-7.87,7.71-.32,4.6,2.29,10.62,7.51,15.69,5.22,5.07,12.97,9.06,21.02,10.63,8.05,1.56,16.24.67,22.09-1.99,5.84-2.66,9.23-6.99,9.27-10.86.04-3.87-3.26-7.14-8.53-7.98-5.27-.84-12.4.83-18.86,5-6.46,4.17-12.11,10.79-15.23,17.91-3.11,7.13-3.65,14.63-1.95,20.07,1.7,5.44,5.54,8.71,9.46,8.71s7.76-3.27,9.46-8.71c1.7-5.44,1.16-12.95-1.95-20.07-3.11-7.13-8.77-13.75-15.23-17.91-6.46-4.17-13.59-5.83-18.86-5-5.27.84-8.57,4.11-8.53,7.98.04,3.87,3.43,8.2,9.27,10.86,5.84,2.66,14.04,3.55,22.09,1.99,8.05-1.56,15.8-5.56,21.02-10.63,5.22-5.07,7.83-11.08,7.51-15.69-.32-4.6-3.52-7.67-7.87-7.71-4.34-.04-9.69,2.99-13.69,8.48-4,5.49-6.53,13.36-6.53,21.3s2.54,15.81,6.53,21.3c4,5.49,9.35,8.52,13.69,8.48,4.34-.04,7.55-3.11,7.87-7.71.32-4.6-2.29-10.62-7.51-15.69-5.22-5.07-12.97-9.06-21.02-10.63-8.05-1.56-16.24-.67-22.09,1.99-5.84,2.66-9.23,6.99-9.27,10.86-.04,3.87,3.26,7.14,8.53,7.98,5.27.84,12.4-.83,18.86-5,6.46-4.17,12.11-10.79,15.23-17.91,3.11-7.13,3.65-14.63,1.95-20.07-1.7-5.44-5.54-8.71-9.46-8.71s-7.76,3.27-9.46,8.71c-1.7,5.44-1.16,12.95,1.95,20.07,3.11,7.13,8.77,13.75,15.23,17.91,6.46,4.17,13.59,5.83,18.86,5,5.27-.84,8.57-4.11,8.53-7.98-.04-3.87-3.43-8.2-9.27-10.86-5.84-2.66-14.04-3.55-22.09-1.99-8.05,1.56-15.8,5.56-21.02,10.63-5.22,5.07-7.83,11.08-7.51,15.69.32,4.6,3.52,7.67,7.87,7.71,4.34.04,9.69-2.99,13.69-8.48,4-5.49,6.53-13.36,6.53-21.3s-2.54-15.81-6.53-21.3c-4-5.49-9.35-8.52-13.69-8.48-4.34.04-7.55,3.11-7.87,7.71-.32,4.6,2.29,10.62,7.51,15.69,5.22,5.07,12.97,9.06,21.02,10.63,8.05,1.56,16.24.67,22.09-1.99,5.84-2.66,9.23-6.99,9.27-10.86.04-3.87-3.26-7.14-8.53-7.98-5.27-.84-12.4.83-18.86,5-6.46,4.17-12.11,10.79-15.23,17.91-3.11,7.13-3.65,14.63-1.95,20.07,1.7,5.44,5.54,8.71,9.46,8.71s7.76-3.27,9.46-8.71c1.7-5.44,1.16-12.95-1.95-20.07-3.11-7.13-8.77-13.75-15.23-17.91-6.46-4.17-13.59-5.83-18.86-5-5.27.84-8.57,4.11-8.53,7.98.04,3.87,3.43,8.2,9.27,10.86,5.84,2.66,14.04,3.55,22.09,1.99,8.05-1.56,15.8-5.56,21.02-10.63,5.22-5.07,7.83-11.08,7.51-15.69-.32-4.6-3.52-7.67-7.87-7.71-4.34-.04-9.69,2.99-13.69,8.48-4,5.49-6.53,13.36-6.53,21.3s2.54,15.81,6.53,21.3c4,5.49,9.35,8.52,13.69,8.48,4.34-.04,7.55-3.11,7.87-7.71.32-4.6-2.29-10.62-7.51-15.69-5.22-5.07-12.97-9.06-21.02-10.63-8.05-1.56-16.24-.67-22.09,1.99-5.84,2.66-9.23,6.99-9.27,10.86-.04,3.87,3.26,7.14,8.53,7.98,5.27.84,12.4-.83,18.86-5s12.11-10.79,15.23-17.91c3.11-7.13,3.65-14.63,1.95-20.07-1.7-5.44-5.54-8.71-9.46-8.71h0Z"/>
        </g>
      </g>
      <g id="layer1">
        <g id="g7638">
          <g id="path4689">
            <path class="cls-2" d="M1665.5,1177.65c-8.13,0-13.71-14.57-14.56-38.03-.86-23.62,3.31-54.5,11.48-85.63-.45-1.68-.91-3.35-1.38-5.03-2.5-8.9-5.38-17.97-8.58-27.08-6.95,9.12-13.47,18.34-19.44,27.52-1.49,25.97-5.24,50.38-10.96,70.73-6.8,24.15-16.18,41.54-24.48,45.36-2.8,1.29-5.53,1.08-7.7-.61-6.15-4.79-4.54-19.1-3.03-27.21,1.86-10,8.74-37.54,32.34-77.32,2.52-4.25,5.18-8.53,7.95-12.82.51-9.33.73-18.8.63-28.26-.02-1.82-.05-3.65-.09-5.49-9.42,6.54-18.5,13.35-27.08,20.28-6.99,17.99-14.87,34.74-23.27,49.32-13.58,23.58-28.99,41.96-40.23,47.96-6.42,3.43-10.08,2.09-12.03.37-2.48-2.2-4.5-7.23-.04-18.65,6.23-15.94,22.67-37.96,43.98-58.91,8.11-7.97,17.05-15.93,26.61-23.72,3.97-10.33,7.65-21.06,10.95-32.02-10.96,3.31-21.69,6.98-32.02,10.96-7.79,9.56-15.75,18.5-23.72,26.61-20.95,21.31-42.97,37.75-58.91,43.98-11.42,4.46-16.45,2.44-18.65-.04-1.72-1.94-3.06-5.6.37-12.03,6.01-11.24,24.38-26.66,47.96-40.23,14.58-8.4,31.34-16.28,49.32-23.27,6.94-8.58,13.74-17.66,20.28-27.08-1.84-.04-3.67-.07-5.49-.09-9.46-.1-18.94.12-28.26.63-4.29,2.77-8.57,5.42-12.82,7.94-39.77,23.59-67.32,30.47-77.32,32.34-8.1,1.51-22.41,3.13-27.21-3.03-1.68-2.16-1.9-4.89-.61-7.69,3.83-8.3,21.21-17.68,45.36-24.48,20.34-5.72,44.76-9.48,70.72-10.96,9.18-5.98,18.4-12.5,27.52-19.44-9.12-3.2-18.18-6.08-27.08-8.58-1.68-.47-3.35-.93-5.03-1.38-31.13,8.18-62.01,12.34-85.63,11.48-23.46-.85-38.03-6.43-38.03-14.56s14.57-13.71,38.03-14.56c23.62-.86,54.5,3.31,85.63,11.48,1.68-.45,3.35-.91,5.03-1.38,8.9-2.5,17.97-5.38,27.08-8.58-9.12-6.95-18.34-13.47-27.52-19.44-25.97-1.49-50.38-5.24-70.73-10.96-24.15-6.8-41.54-16.18-45.36-24.48-1.29-2.8-1.08-5.53.61-7.7,4.79-6.15,19.1-4.54,27.21-3.03,10,1.86,37.54,8.75,77.32,32.34,4.25,2.52,8.53,5.18,12.82,7.94,9.33.51,18.8.73,28.26.63,1.82-.02,3.65-.05,5.49-.09-6.55-9.42-13.34-18.5-20.28-27.08-17.99-6.99-34.74-14.87-49.32-23.27-23.58-13.58-41.96-28.99-47.96-40.23-3.43-6.42-2.09-10.08-.37-12.03,2.21-2.48,7.23-4.5,18.65-.04,15.94,6.23,37.96,22.67,58.91,43.98,7.97,8.11,15.93,17.05,23.72,26.61,10.33,3.97,21.06,7.65,32.02,10.95-3.31-10.96-6.98-21.69-10.95-32.02-9.56-7.79-18.5-15.75-26.61-23.72-21.31-20.95-37.75-42.97-43.98-58.91-4.46-11.42-2.44-16.45.04-18.65,1.94-1.72,5.6-3.06,12.03.37,11.24,6.01,26.66,24.38,40.23,47.96,8.4,14.58,16.28,31.34,23.27,49.32,8.58,6.94,17.66,13.74,27.08,20.28.04-1.84.07-3.67.09-5.49.1-9.46-.12-18.94-.63-28.26-2.77-4.29-5.42-8.57-7.94-12.82-23.59-39.78-30.47-67.32-32.34-77.32-1.51-8.1-3.13-22.41,3.03-27.21,2.16-1.68,4.89-1.9,7.69-.61,8.3,3.83,17.68,21.21,24.48,45.36,5.73,20.34,9.48,44.76,10.96,70.72,5.98,9.18,12.49,18.4,19.44,27.52,3.2-9.12,6.08-18.18,8.58-27.08.47-1.68.93-3.35,1.38-5.03-8.18-31.13-12.34-62.01-11.48-85.63.85-23.46,6.43-38.03,14.56-38.03s13.71,14.57,14.56,38.03c.86,23.62-3.31,54.5-11.48,85.63.45,1.68.91,3.35,1.38,5.03,2.5,8.9,5.38,17.97,8.58,27.08,6.95-9.12,13.47-18.34,19.44-27.52,1.49-25.97,5.24-50.38,10.96-70.73,6.8-24.15,16.18-41.54,24.48-45.36,2.8-1.29,5.53-1.08,7.7.61,6.15,4.79,4.54,19.1,3.03,27.21-1.86,10-8.75,37.54-32.34,77.32-2.52,4.25-5.18,8.53-7.95,12.82-.51,9.33-.73,18.8-.63,28.26.02,1.82.05,3.65.09,5.49,9.42-6.55,18.5-13.34,27.08-20.28,6.99-17.99,14.87-34.74,23.27-49.32,13.58-23.58,28.99-41.96,40.23-47.96,6.42-3.43,10.08-2.09,12.03-.37,2.48,2.21,4.5,7.23.04,18.65-6.23,15.94-22.67,37.96-43.98,58.91-8.11,7.97-17.05,15.93-26.61,23.72-3.97,10.33-7.65,21.06-10.96,32.02,10.96-3.31,21.69-6.98,32.02-10.95,7.79-9.56,15.75-18.5,23.72-26.61,20.95-21.31,42.97-37.75,58.91-43.98,11.42-4.46,16.45-2.44,18.65.04,1.72,1.94,3.06,5.6-.37,12.03-6,11.24-24.38,26.66-47.96,40.23-14.58,8.4-31.34,16.28-49.32,23.27-6.94,8.58-13.74,17.66-20.28,27.08,1.84.04,3.67.07,5.49.09,9.46.1,18.94-.12,28.26-.63,4.29-2.77,8.57-5.42,12.82-7.94,39.77-23.59,67.32-30.47,77.32-32.34,8.1-1.51,22.41-3.12,27.21,3.03,1.68,2.16,1.9,4.89.61,7.69-3.83,8.3-21.21,17.68-45.36,24.48-20.34,5.73-44.76,9.48-70.72,10.96-9.18,5.98-18.4,12.5-27.52,19.44,9.12,3.2,18.18,6.08,27.08,8.58,1.68.47,3.35.93,5.03,1.38,31.13-8.18,62.01-12.34,85.63-11.48,23.46.85,38.03,6.44,38.03,14.56,0,8.13-14.57,13.71-38.03,14.56-23.62.86-54.5-3.31-85.63-11.48-1.68.45-3.35.91-5.03,1.38-8.9,2.5-17.97,5.38-27.08,8.58,9.12,6.95,18.34,13.47,27.52,19.44,25.97,1.49,50.38,5.24,70.73,10.96,24.15,6.8,41.54,16.18,45.36,24.48,1.29,2.8,1.08,5.53-.61,7.7-4.79,6.15-19.1,4.54-27.21,3.03-10-1.86-37.54-8.75-77.32-32.34-4.25-2.52-8.53-5.18-12.82-7.95-9.33-.51-18.8-.73-28.26-.63-1.82.02-3.65.05-5.49.09,6.55,9.42,13.34,18.5,20.28,27.08,17.99,6.99,34.74,14.87,49.32,23.27,23.58,13.58,41.96,28.99,47.96,40.23,3.43,6.42,2.09,10.08.37,12.03-2.2,2.48-7.23,4.51-18.65.04-15.94-6.23-37.96-22.67-58.91-43.98-7.97-8.11-15.93-17.05-23.72-26.61-10.33-3.97-21.06-7.65-32.02-10.96,3.31,10.96,6.98,21.69,10.95,32.02,9.56,7.79,18.5,15.75,26.61,23.72,21.31,20.95,37.75,42.97,43.98,58.91,4.46,11.42,2.44,16.45-.04,18.65-1.94,1.72-5.6,3.06-12.03-.37-11.24-6.01-26.66-24.38-40.23-47.96-8.4-14.58-16.28-31.34-23.27-49.32-8.58-6.94-17.66-13.74-27.08-20.28-.04,1.84-.07,3.67-.09,5.49-.1,9.46.12,18.94.63,28.26,2.77,4.29,5.42,8.57,7.94,12.82,23.59,39.77,30.47,67.32,32.34,77.32,1.51,8.1,3.13,22.41-3.03,27.21-2.16,1.68-4.89,1.9-7.69.61-8.3-3.83-17.68-21.21-24.48-45.36-5.73-20.34-9.48-44.76-10.96-70.72-5.98-9.18-12.5-18.4-19.44-27.52-3.2,9.12-6.08,18.18-8.58,27.08-.47,1.68-.93,3.35-1.38,5.03,8.18,31.13,12.34,62.01,11.48,85.63-.85,23.46-6.43,38.03-14.56,38.03ZM1665.5,1066.3c-6.26,26.82-9.35,52.76-8.61,73.1.89,24.35,6.71,32.3,8.61,32.3s7.73-7.95,8.61-32.3c.74-20.34-2.36-46.28-8.61-73.1ZM1704.75,1060.14c1.82,21.43,5.21,41.61,9.92,58.36,8.13,28.88,17.45,39.82,21.24,41.57,1.05.48,1.38.23,1.54.1,1.46-1.13,3.51-7.07.84-21.42-1.81-9.69-8.5-36.42-31.6-75.37-.64-1.08-1.29-2.16-1.94-3.24ZM1626.25,1060.14c-.66,1.08-1.3,2.16-1.94,3.24-23.1,38.96-29.8,65.69-31.6,75.37-2.67,14.34-.62,20.28.83,21.42.16.12.49.38,1.54-.1,3.79-1.75,13.12-12.69,21.24-41.57,4.71-16.75,8.11-36.93,9.93-58.36ZM1740.09,1042.12c5.8,13.83,12.11,26.76,18.75,38.29,12.85,22.32,27.72,40.26,37.88,45.68,2.83,1.51,4.71,1.67,5.27,1.17.65-.58,1.64-3.87-1.55-12.03-2.22-5.69-11.87-26.62-42.6-56.83-5.54-5.45-11.48-10.89-17.75-16.28ZM1590.91,1042.12c-6.26,5.39-12.2,10.83-17.75,16.28-30.73,30.21-40.38,51.13-42.6,56.83-3.19,8.17-2.2,11.46-1.55,12.03.56.49,2.44.34,5.27-1.17,10.16-5.43,25.03-23.36,37.88-45.68,6.64-11.53,12.95-24.46,18.75-38.29ZM1768.15,1014.06c5.39,6.26,10.83,12.2,16.28,17.75,30.21,30.73,51.13,40.38,56.83,42.6,8.17,3.19,11.46,2.2,12.03,1.55.49-.56.34-2.44-1.17-5.27-5.43-10.16-23.36-25.03-45.68-37.88-11.53-6.64-24.46-12.95-38.29-18.75ZM1562.85,1014.06c-13.83,5.8-26.76,12.11-38.29,18.75-22.32,12.85-40.26,27.72-45.68,37.88-1.51,2.82-1.66,4.71-1.17,5.27.58.65,3.87,1.64,12.03-1.55,5.69-2.22,26.61-11.87,56.83-42.6,5.45-5.54,10.89-11.48,16.28-17.75ZM1656.79,1016.27c3.22,8.95,6.14,17.85,8.71,26.63,2.57-8.77,5.49-17.68,8.71-26.63-2.84-3.62-5.75-7.22-8.71-10.79-2.96,3.57-5.87,7.17-8.71,10.79ZM1680.93,1015.21c5.81,7.51,11.35,15.11,16.54,22.7-.19-6.18-.26-12.43-.19-18.71.03-3.12.1-6.27.2-9.43-3.81-2.56-7.67-5.08-11.56-7.55-1.73,4.33-3.39,8.67-4.99,13ZM1633.52,1009.77c.1,3.16.16,6.31.2,9.43.07,6.28,0,12.53-.19,18.71,5.19-7.59,10.73-15.19,16.54-22.7-1.59-4.33-3.26-8.66-4.99-13-3.9,2.47-7.76,4.99-11.56,7.55ZM1703.55,1006.69c7.86,5.37,15.5,10.92,22.84,16.59-3.15-8.75-6.08-17.75-8.75-26.87-3.6-1.03-7.22-2.02-10.86-2.96-.83-.22-1.66-.43-2.49-.64-.31,4.66-.56,9.29-.73,13.88ZM1613.37,996.41c-2.67,9.12-5.61,18.12-8.75,26.87,7.34-5.67,14.98-11.22,22.84-16.59-.18-4.59-.42-9.22-.73-13.88-.83.21-1.66.43-2.49.64-3.64.94-7.26,1.93-10.86,2.96ZM1786.17,978.71c1.08.66,2.16,1.3,3.24,1.94,38.95,23.1,65.69,29.8,75.37,31.6,14.35,2.67,20.28.62,21.42-.83.12-.16.38-.49-.1-1.54-1.75-3.79-12.69-13.12-41.57-21.24-16.75-4.71-36.93-8.11-58.36-9.93ZM1544.83,978.71c-21.43,1.82-41.61,5.21-58.36,9.93-28.88,8.13-39.82,17.45-41.57,21.24-.48,1.05-.23,1.38-.1,1.54,1.13,1.46,7.07,3.51,21.42.84,9.69-1.81,36.42-8.5,75.37-31.6,1.08-.64,2.16-1.29,3.24-1.94ZM1650.21,999.01c1.43,3.57,2.82,7.14,4.17,10.71,2.37-2.98,4.78-5.94,7.23-8.88-1.64-1.92-3.28-3.83-4.95-5.74-2.16,1.29-4.31,2.59-6.45,3.91ZM1669.39,1000.84c2.45,2.94,4.86,5.9,7.23,8.88,1.34-3.57,2.73-7.14,4.17-10.71-2.14-1.32-4.29-2.62-6.45-3.91-1.67,1.9-3.31,3.81-4.95,5.74ZM1688.19,996.61c3.21,2.03,6.4,4.09,9.56,6.18.17-3.79.39-7.6.66-11.43-2.42-.58-4.84-1.14-7.29-1.69-.99,2.31-1.97,4.63-2.93,6.95ZM1632.59,991.36c.27,3.83.49,7.64.66,11.43,3.15-2.09,6.34-4.15,9.56-6.18-.96-2.32-1.93-4.64-2.93-6.95-2.44.55-4.87,1.11-7.29,1.69ZM1722.44,991.6c9.12,2.67,18.12,5.61,26.87,8.75-5.67-7.34-11.22-14.98-16.59-22.84-4.59.18-9.22.42-13.88.73.21.83.43,1.66.64,2.49.94,3.64,1.93,7.26,2.96,10.86ZM1598.28,977.51c-5.37,7.86-10.92,15.5-16.59,22.84,8.75-3.15,17.75-6.08,26.87-8.75,1.03-3.6,2.02-7.22,2.96-10.86.22-.83.43-1.66.64-2.49-4.66-.31-9.29-.56-13.88-.73ZM1661.89,992.04c1.21,1.39,2.42,2.79,3.61,4.19,1.2-1.4,2.4-2.8,3.61-4.19-.66-.38-1.33-.77-2-1.15-.54-.31-1.08-.61-1.62-.92-.54.31-1.08.61-1.62.92-.67.38-1.33.76-2,1.15ZM1645.8,988.38c.72,1.68,1.43,3.36,2.13,5.05,1.57-.96,3.14-1.91,4.71-2.86-.91-1.02-1.83-2.03-2.75-3.04-1.37.28-2.73.56-4.09.85ZM1678.36,990.57c1.58.94,3.15,1.89,4.71,2.85.7-1.69,1.41-3.37,2.13-5.05-1.36-.29-2.72-.57-4.09-.85-.92,1.01-1.84,2.02-2.75,3.04ZM1704.72,986.78c1.19.3,2.37.6,3.55.91,2.49.65,4.97,1.31,7.45,2-.69-2.48-1.35-4.96-2-7.45-.31-1.18-.61-2.36-.91-3.55-2.48.2-4.96.41-7.45.64-.23,2.49-.45,4.97-.64,7.45ZM1618.19,978.69c-.3,1.19-.6,2.37-.91,3.55-.65,2.49-1.31,4.97-2,7.45,2.48-.69,4.96-1.35,7.45-2,1.18-.31,2.36-.61,3.55-.91-.2-2.48-.41-4.96-.64-7.45-2.49-.23-4.97-.45-7.45-.64ZM1671.57,986.58c.52.3,1.04.6,1.56.9.38-.43.77-.86,1.16-1.29-.5-.09-.99-.19-1.49-.28-.41.22-.82.44-1.22.67ZM1656.71,986.19c.39.43.77.86,1.16,1.29.52-.3,1.04-.6,1.56-.9-.41-.22-.81-.45-1.22-.67-.5.09-.99.19-1.49.28ZM1693.55,984.11c1.78.4,3.55.81,5.31,1.23.15-1.8.3-3.6.47-5.41-1.37.14-2.74.29-4.11.45-.56,1.24-1.12,2.48-1.67,3.73ZM1631.67,979.93c.17,1.81.32,3.61.47,5.41,1.76-.42,3.53-.83,5.31-1.23-.55-1.24-1.11-2.49-1.67-3.73-1.37-.16-2.74-.31-4.11-.45ZM1642.68,981.21c.24.53.47,1.06.71,1.59.6-.13,1.19-.25,1.79-.38-.32-.34-.63-.67-.95-1.01-.52-.07-1.03-.13-1.55-.2ZM1685.83,982.42c.6.13,1.2.25,1.79.38.23-.53.47-1.06.71-1.59-.52.07-1.03.13-1.55.2-.32.34-.63.67-.95,1.01ZM1653.56,976.69c3.99.58,7.97,1.21,11.94,1.88,3.97-.67,7.95-1.3,11.94-1.88,3.61-1.89,7.26-3.74,10.94-5.55,1.45-1.49,2.91-2.96,4.37-4.42,1.46-1.46,2.94-2.92,4.42-4.37,1.81-3.68,3.67-7.33,5.55-10.94.58-3.99,1.21-7.97,1.88-11.94-.67-3.97-1.3-7.95-1.88-11.94-1.89-3.61-3.74-7.26-5.55-10.94-1.49-1.45-2.96-2.91-4.42-4.37-1.46-1.46-2.92-2.94-4.37-4.42-3.68-1.81-7.32-3.66-10.94-5.55-3.99-.58-7.97-1.21-11.94-1.88-3.97.67-7.95,1.3-11.94,1.88-3.61,1.89-7.26,3.74-10.94,5.55-1.45,1.49-2.91,2.96-4.37,4.42-1.46,1.46-2.94,2.92-4.42,4.37-1.81,3.68-3.66,7.32-5.55,10.94-.58,3.99-1.21,7.97-1.88,11.94.67,3.97,1.3,7.95,1.88,11.94,1.89,3.61,3.74,7.26,5.55,10.94,1.49,1.45,2.96,2.91,4.42,4.37,1.46,1.46,2.92,2.94,4.37,4.43,3.68,1.81,7.32,3.66,10.94,5.55ZM1698.76,972.73c-.21.45-.42.89-.63,1.34.6-.06,1.19-.13,1.79-.19.06-.6.12-1.19.19-1.79-.45.21-.89.42-1.34.63ZM1631.08,973.89c.6.06,1.19.12,1.79.19-.21-.45-.42-.89-.63-1.34-.45-.21-.89-.42-1.34-.63.06.6.13,1.19.19,1.79ZM1706.42,969.19c-.16,1.37-.31,2.74-.45,4.11,1.81-.17,3.61-.32,5.41-.47-.42-1.76-.83-3.53-1.23-5.31-1.24.55-2.49,1.11-3.73,1.67ZM1619.63,972.83c1.8.15,3.6.3,5.41.47-.14-1.37-.29-2.74-.45-4.11-1.24-.56-2.48-1.12-3.73-1.67-.4,1.78-.81,3.55-1.23,5.31ZM1715.7,965.09c.55,2.44,1.11,4.87,1.69,7.29,3.83-.27,7.64-.49,11.43-.66-2.09-3.16-4.15-6.34-6.18-9.56-2.32.96-4.64,1.94-6.95,2.93ZM1602.18,971.72c3.79.17,7.6.39,11.43.66.58-2.42,1.14-4.85,1.69-7.29-2.31-.99-4.63-1.97-6.95-2.93-2.03,3.21-4.09,6.4-6.18,9.56ZM1728.25,959.88c2.47,3.9,4.99,7.76,7.55,11.56,3.16-.1,6.31-.16,9.43-.2,6.28-.07,12.53,0,18.71.19-7.59-5.19-15.18-10.73-22.7-16.54-4.33,1.59-8.66,3.26-13,4.99ZM1581.01,971.23c1.59,0,3.17,0,4.76.02,3.12.03,6.26.1,9.43.2,2.56-3.81,5.09-7.67,7.55-11.56-4.33-1.73-8.67-3.39-13-4.99-7.51,5.81-15.11,11.35-22.7,16.54,4.62-.14,9.27-.22,13.95-.22ZM1622.16,961.59c.53.23,1.06.47,1.59.71-.07-.52-.13-1.03-.2-1.55-.34-.32-.67-.63-1.01-.95-.13.6-.25,1.2-.38,1.79ZM1707.44,960.74c-.07.52-.13,1.03-.2,1.55.53-.24,1.06-.47,1.59-.7-.13-.6-.25-1.19-.38-1.79-.34.32-.67.63-1.01.95ZM1611.54,957.04c1.69.7,3.37,1.41,5.05,2.13.29-1.36.57-2.72.85-4.09-1.01-.92-2.02-1.84-3.04-2.75-.94,1.58-1.89,3.15-2.86,4.71ZM1713.56,955.08c.28,1.37.56,2.73.85,4.09,1.68-.72,3.36-1.43,5.05-2.13-.96-1.57-1.91-3.14-2.85-4.71-1.02.91-2.03,1.83-3.04,2.75ZM1595.25,950.59c3.57,1.34,7.14,2.73,10.71,4.17,1.32-2.14,2.62-4.29,3.91-6.45-1.9-1.67-3.81-3.31-5.74-4.95-2.94,2.45-5.9,4.86-8.88,7.23ZM1721.14,948.31c1.28,2.16,2.59,4.31,3.91,6.45,3.57-1.43,7.14-2.82,10.71-4.17-2.98-2.37-5.94-4.78-8.88-7.23-1.92,1.64-3.83,3.28-5.74,4.95ZM1711.95,946.77c.09.5.19.99.28,1.49.43-.39.86-.77,1.29-1.16-.3-.52-.6-1.04-.9-1.56-.22.41-.45.81-.67,1.22ZM1617.48,947.1c.43.38.86.77,1.29,1.16.09-.5.19-.99.28-1.49-.22-.41-.44-.82-.67-1.22-.3.52-.6,1.04-.9,1.56ZM1471.66,930.75c-2.08,0-4.11.04-6.09.11-24.35.89-32.3,6.71-32.3,8.61s7.95,7.73,32.3,8.61c20.34.74,46.28-2.36,73.1-8.61-24.21-5.65-47.7-8.72-67.01-8.72ZM1792.33,939.47c26.82,6.26,52.76,9.36,73.1,8.61,24.35-.89,32.3-6.71,32.3-8.61s-7.95-7.73-32.3-8.61c-20.34-.74-46.28,2.36-73.1,8.61ZM1731.51,939.47c3.57,2.96,7.17,5.87,10.79,8.71,8.95-3.22,17.86-6.14,26.63-8.71-8.77-2.57-17.68-5.49-26.63-8.71-3.62,2.84-7.22,5.75-10.79,8.71ZM1562.07,939.47c8.77,2.57,17.68,5.49,26.63,8.71,3.62-2.84,7.22-5.75,10.79-8.71-3.57-2.96-7.17-5.87-10.79-8.71-8.95,3.22-17.85,6.14-26.63,8.71ZM1716,939.47c.31.54.61,1.08.92,1.62.38.67.76,1.33,1.15,2,1.39-1.21,2.79-2.42,4.19-3.61-1.4-1.2-2.8-2.4-4.19-3.61-.38.66-.77,1.33-1.15,2-.31.54-.61,1.08-.92,1.62ZM1608.74,939.47c1.4,1.2,2.8,2.4,4.19,3.61.38-.66.77-1.33,1.15-2,.31-.54.62-1.08.92-1.62-.31-.54-.61-1.08-.92-1.62-.38-.67-.76-1.33-1.15-2-1.39,1.21-2.79,2.42-4.19,3.61ZM1721.14,930.63c1.9,1.67,3.81,3.31,5.74,4.95,2.94-2.45,5.9-4.86,8.88-7.23-3.57-1.34-7.14-2.73-10.71-4.17-1.32,2.14-2.62,4.29-3.91,6.45ZM1595.25,928.35c2.98,2.37,5.94,4.78,8.88,7.23,1.92-1.64,3.84-3.28,5.74-4.95-1.28-2.16-2.59-4.31-3.91-6.45-3.57,1.43-7.14,2.82-10.71,4.17ZM1617.48,931.84c.3.52.6,1.04.9,1.56.22-.41.45-.81.67-1.22-.09-.5-.19-.99-.28-1.49-.43.39-.86.77-1.29,1.16ZM1711.95,932.17c.22.41.44.82.67,1.22.3-.52.6-1.04.9-1.56-.43-.38-.86-.77-1.29-1.16-.09.5-.19.99-.28,1.49ZM1713.56,923.86c1.01.92,2.02,1.84,3.04,2.75.94-1.58,1.89-3.15,2.86-4.71-1.69-.7-3.37-1.41-5.05-2.13-.29,1.36-.57,2.72-.85,4.09ZM1611.54,921.9c.96,1.57,1.91,3.14,2.86,4.71,1.02-.91,2.03-1.83,3.04-2.75-.28-1.37-.56-2.73-.85-4.09-1.68.72-3.36,1.43-5.05,2.13ZM1567.06,907.5c7.59,5.19,15.19,10.73,22.7,16.54,4.33-1.59,8.66-3.26,13-4.99-2.47-3.9-4.99-7.76-7.55-11.56-3.16.1-6.31.16-9.43.2-6.28.07-12.53,0-18.71-.19ZM1728.25,919.05c4.33,1.73,8.67,3.39,13,4.99,7.51-5.81,15.11-11.35,22.7-16.54-6.18.19-12.43.26-18.71.19-3.12-.03-6.27-.1-9.43-.2-2.56,3.81-5.08,7.67-7.55,11.56ZM1707.44,918.19c.34.32.67.63,1.01.95.13-.6.25-1.2.38-1.79-.53-.23-1.06-.47-1.59-.7.07.52.13,1.03.2,1.55ZM1622.16,917.35c.13.6.25,1.19.38,1.79.34-.32.67-.63,1.01-.95.07-.52.13-1.03.2-1.55-.53.24-1.06.47-1.59.7ZM1602.18,907.22c2.09,3.15,4.15,6.34,6.18,9.56,2.32-.96,4.64-1.93,6.95-2.93-.55-2.44-1.11-4.87-1.69-7.29-3.83.27-7.64.48-11.43.66ZM1715.7,913.85c2.31.99,4.63,1.97,6.95,2.93,2.03-3.21,4.09-6.4,6.18-9.56-3.79-.17-7.6-.39-11.43-.66-.58,2.42-1.14,4.84-1.69,7.29ZM1619.63,906.11c.42,1.76.83,3.53,1.23,5.31,1.24-.55,2.49-1.11,3.73-1.67.16-1.37.31-2.74.45-4.11-1.81.17-3.61.32-5.41.47ZM1706.42,909.75c1.24.56,2.48,1.12,3.73,1.67.4-1.78.81-3.55,1.23-5.31-1.8-.15-3.6-.3-5.41-.47.14,1.37.29,2.74.45,4.11ZM1631.08,905.05c-.06.6-.12,1.19-.19,1.79.45-.21.89-.42,1.34-.63.21-.45.42-.89.63-1.34-.6.06-1.19.13-1.79.19ZM1698.76,906.21c.45.21.89.42,1.34.63-.06-.6-.13-1.19-.19-1.79-.6-.06-1.19-.12-1.79-.19.21.45.42.89.63,1.34ZM1718.84,900.69c4.66.31,9.29.56,13.88.73,5.37-7.86,10.92-15.5,16.59-22.84-8.75,3.15-17.75,6.08-26.87,8.75-1.03,3.6-2.02,7.22-2.96,10.86-.22.83-.43,1.66-.64,2.49ZM1581.69,878.58c5.67,7.34,11.22,14.98,16.59,22.84,4.59-.18,9.22-.42,13.88-.73-.21-.83-.42-1.66-.64-2.49-.94-3.64-1.93-7.26-2.96-10.86-9.12-2.67-18.12-5.61-26.87-8.75ZM1705.36,899.61c2.49.23,4.97.45,7.45.64.3-1.19.6-2.37.91-3.55.65-2.49,1.31-4.97,2-7.45-2.48.69-4.96,1.35-7.45,2-1.18.31-2.36.61-3.55.91.2,2.48.41,4.96.64,7.45ZM1615.29,889.25c.69,2.48,1.35,4.96,2,7.45.31,1.18.61,2.36.91,3.55,2.48-.2,4.96-.41,7.45-.64.23-2.49.45-4.97.64-7.45-1.19-.3-2.37-.6-3.55-.91-2.49-.65-4.97-1.31-7.45-2ZM1454,865.38c-5.73,0-8.47,1.19-9.2,2.13-.12.16-.38.49.1,1.54,1.75,3.79,12.69,13.12,41.57,21.24,16.75,4.71,36.93,8.11,58.36,9.92-1.08-.66-2.16-1.3-3.24-1.94-38.96-23.1-65.69-29.8-75.37-31.6-5.07-.94-9.09-1.3-12.21-1.3ZM1876.99,865.38c-3.13,0-7.14.35-12.21,1.3-9.69,1.81-36.42,8.5-75.37,31.6-1.08.64-2.16,1.29-3.24,1.94,21.43-1.82,41.61-5.21,58.36-9.92,28.88-8.13,39.82-17.45,41.57-21.24.48-1.05.23-1.38.1-1.54-.73-.94-3.48-2.14-9.21-2.14ZM1695.22,898.55c1.37.16,2.74.31,4.11.45-.17-1.81-.32-3.61-.47-5.41-1.76.42-3.53.83-5.31,1.23.55,1.24,1.11,2.49,1.67,3.73ZM1632.14,893.59c-.15,1.8-.3,3.6-.47,5.41,1.37-.14,2.74-.29,4.11-.45.56-1.24,1.12-2.48,1.67-3.73-1.78-.4-3.55-.81-5.31-1.23ZM1686.78,897.53c.52.07,1.03.13,1.55.2-.24-.53-.47-1.06-.71-1.59-.6.13-1.19.25-1.79.38.32.34.63.67.95,1.01ZM1643.38,896.13c-.23.53-.47,1.06-.7,1.59.52-.07,1.03-.13,1.55-.2.32-.34.63-.67.95-1.01-.6-.13-1.2-.25-1.79-.38ZM1656.71,892.74c.5.09.99.19,1.49.28.41-.22.82-.44,1.22-.67-.52-.3-1.04-.6-1.56-.9-.38.43-.77.86-1.16,1.29ZM1671.57,892.35c.41.22.81.45,1.22.67.5-.09.99-.19,1.49-.28-.39-.43-.77-.86-1.16-1.29-.52.3-1.04.6-1.56.9ZM1645.8,890.56c1.36.29,2.72.57,4.09.85.92-1.01,1.84-2.02,2.75-3.04-1.58-.94-3.15-1.89-4.71-2.86-.7,1.69-1.41,3.37-2.13,5.05ZM1678.36,888.37c.91,1.02,1.83,2.03,2.75,3.04,1.37-.28,2.73-.56,4.09-.85-.72-1.68-1.43-3.36-2.13-5.05-1.57.96-3.14,1.91-4.71,2.85ZM1632.59,887.58c2.42.58,4.84,1.14,7.29,1.69.99-2.31,1.97-4.63,2.93-6.95-3.21-2.03-6.4-4.09-9.56-6.18-.17,3.79-.39,7.6-.66,11.43ZM1688.19,882.33c.96,2.32,1.93,4.64,2.93,6.95,2.44-.55,4.87-1.11,7.29-1.69-.27-3.83-.49-7.64-.66-11.43-3.16,2.09-6.34,4.15-9.56,6.18ZM1661.89,886.9c.66.38,1.33.77,2,1.15.54.31,1.08.62,1.62.92.54-.31,1.08-.61,1.62-.92.67-.38,1.33-.76,2-1.15-1.21-1.39-2.42-2.79-3.61-4.19-1.2,1.4-2.4,2.8-3.61,4.19ZM1613.37,882.53c3.6,1.03,7.22,2.02,10.86,2.96.83.22,1.66.43,2.49.64.31-4.66.56-9.29.73-13.88-7.86-5.37-15.5-10.92-22.84-16.59,3.15,8.75,6.08,17.75,8.75,26.87ZM1703.55,872.25c.18,4.59.42,9.22.73,13.88.83-.21,1.66-.42,2.49-.64,3.64-.94,7.26-1.93,10.86-2.96,2.67-9.12,5.61-18.12,8.75-26.87-7.34,5.67-14.98,11.22-22.84,16.59ZM1650.21,879.93c2.14,1.32,4.29,2.62,6.45,3.91,1.67-1.9,3.31-3.81,4.95-5.74-2.45-2.94-4.86-5.9-7.23-8.88-1.34,3.57-2.73,7.14-4.17,10.71ZM1669.39,878.1c1.64,1.92,3.28,3.83,4.95,5.74,2.16-1.28,4.31-2.59,6.45-3.91-1.43-3.57-2.82-7.14-4.17-10.71-2.37,2.98-4.78,5.94-7.23,8.88ZM1680.93,863.73c1.59,4.33,3.26,8.66,4.99,13,3.9-2.47,7.76-4.99,11.56-7.55-.1-3.16-.16-6.31-.2-9.43-.07-6.28,0-12.53.19-18.71-5.19,7.59-10.73,15.19-16.54,22.7ZM1633.52,869.17c3.81,2.56,7.67,5.08,11.56,7.55,1.73-4.33,3.39-8.67,4.99-13-5.81-7.51-11.35-15.11-16.54-22.7.19,6.18.26,12.43.19,18.71-.03,3.12-.1,6.27-.2,9.43ZM1656.79,862.67c2.84,3.62,5.75,7.22,8.71,10.79,2.96-3.57,5.87-7.17,8.71-10.79-3.22-8.95-6.14-17.86-8.71-26.63-2.57,8.77-5.49,17.68-8.71,26.63ZM1480.46,802.31c-1.64,0-2.48.37-2.75.67-.49.56-.34,2.44,1.17,5.27,5.43,10.16,23.36,25.03,45.68,37.88,11.53,6.64,24.46,12.95,38.29,18.75-5.39-6.26-10.83-12.2-16.28-17.75-30.21-30.73-51.13-40.38-56.83-42.6-4.4-1.72-7.38-2.22-9.29-2.22ZM1850.54,802.31c-1.91,0-4.89.51-9.29,2.22-5.69,2.22-26.62,11.87-56.83,42.6-5.45,5.54-10.89,11.48-16.28,17.75,13.83-5.8,26.76-12.11,38.29-18.75,22.33-12.85,40.26-27.72,45.68-37.88,1.51-2.82,1.66-4.71,1.17-5.27-.27-.3-1.11-.67-2.75-.67ZM1529.96,751.43c-.45,0-.76.09-.95.25-.65.58-1.64,3.87,1.55,12.03,2.22,5.69,11.87,26.61,42.6,56.83,5.54,5.45,11.48,10.89,17.75,16.28-5.8-13.83-12.11-26.76-18.75-38.29-12.85-22.32-27.72-40.26-37.88-45.68-1.91-1.02-3.39-1.42-4.32-1.42ZM1801.04,751.43c-.93,0-2.41.4-4.32,1.42-10.16,5.43-25.03,23.36-37.88,45.68-6.64,11.53-12.95,24.46-18.75,38.29,6.26-5.39,12.2-10.83,17.75-16.28,30.73-30.21,40.38-51.13,42.6-56.83,3.19-8.17,2.2-11.46,1.55-12.03-.18-.16-.5-.25-.94-.25ZM1736.93,718.59c-.23,0-.55.07-1.02.28-3.79,1.75-13.12,12.69-21.24,41.57-4.71,16.75-8.11,36.93-9.93,58.36.66-1.08,1.3-2.16,1.94-3.24,23.1-38.96,29.8-65.69,31.6-75.37,2.67-14.35.62-20.28-.83-21.42-.09-.07-.23-.18-.53-.18ZM1594.07,718.59c-.29,0-.44.11-.53.18-1.46,1.14-3.51,7.07-.84,21.42,1.81,9.68,8.5,36.42,31.6,75.37.64,1.08,1.29,2.16,1.94,3.24-1.82-21.43-5.21-41.61-9.92-58.36-8.13-28.88-17.45-39.82-21.24-41.57-.46-.21-.79-.28-1.02-.28ZM1665.5,707.24c-1.91,0-7.73,7.95-8.61,32.3-.74,20.34,2.36,46.28,8.61,73.1,6.25-26.82,9.35-52.76,8.61-73.1-.89-24.35-6.71-32.3-8.61-32.3Z"/>
          </g>
          <g id="path5617">
            <path class="cls-1" d="M1665.5,1168.55c-3.67,0-7.28-1.27-10.61-3.67-2.31-1.67-4.49-3.88-6.45-6.6-.26-.36-.52-.73-.77-1.11h0s-.02-.03-.03-.04c-4.35-6.51-7.54-15.49-9.27-26.08-1.93-11.86-2.01-25.86-.21-40.46,1.69-13.72,4.96-27.99,9.73-42.5.71-2.16,1.46-4.33,2.23-6.51,2.21-6.16,4.67-12.32,7.37-18.45,1.49-3.37,3.04-6.73,4.67-10.07-2.54-5.09-5.25-10.15-8.13-15.17-.97-1.69-1.96-3.38-2.96-5.06-.78-1.31-1.57-2.61-2.37-3.9-8.89,3.68-17.56,7.71-25.94,12.06-3.61,17.55-8.72,34.3-15.22,49.81-6.4,15.28-14.32,29.55-22.9,41.27-7.89,10.78-16.56,19.73-25.09,25.93-.16.11-.31.23-.47.34-.16.11-.32.23-.48.34-8.19,5.76-16.12,8.92-22.98,9.15-.28,0-.55.01-.82.01h0c-6.75,0-12.09-2.91-15.15-8.26-.08-.13-.15-.27-.23-.41-1.08-2.01-1.82-4.3-2.22-6.83-.71-4.54-.32-9.86,1.2-15.72,2.4-9.28,7.62-19.75,15.08-30.29,6.83-9.65,15.72-19.57,25.93-28.94.04-.04.08-.07.12-.11.33-.3.66-.6.99-.9,1.31-1.19,2.64-2.36,3.99-3.53,13.25-11.46,28.43-22.06,45.14-31.52,2.58-1.46,5.2-2.9,7.84-4.3,1.73-8.85,3.05-17.85,3.97-26.93-4.74-1-9.5-1.91-14.26-2.71-.73-.12-1.46-.24-2.19-.36-3.71-.6-7.42-1.13-11.11-1.6-.27-.03-.55-.07-.82-.1-5.13,4.56-10.39,8.91-15.74,13.06-.04.03-.08.06-.12.09-.68.53-1.36,1.05-2.05,1.57-.01,0-.02.02-.04.03-.02.02-.04.03-.06.05-.04.03-.09.07-.13.1-.02.02-.04.03-.06.05-13.99,10.61-28.42,19.6-42.92,26.73-13.96,6.87-28.1,12-40.94,14.85-.27.06-.53.12-.8.17-.24.05-.48.1-.72.15-11.32,2.37-21.74,3.01-30.29,1.84-.51-.07-1.01-.14-1.5-.23-.52-.09-1.02-.18-1.52-.28-5.21-1.03-9.52-2.77-12.79-5.14-1.68-1.22-3.08-2.6-4.18-4.14,0,0,0,0,0,0,0,0,0,0,0,0-.13-.19-.26-.37-.39-.56,0,0,0-.01-.01-.02-.26-.4-.5-.81-.72-1.22,0,0,0-.01-.01-.02v-.02c-.06-.1-.11-.2-.16-.3-.38-.76-.69-1.55-.93-2.35-1.22-4.11-.6-8.7,1.86-13.35,0,0,0,0,0,0,0,0,0,0,0,0,0-.02.02-.04.03-.05,0-.01.01-.02.02-.04h0c.19-.35.39-.71.6-1.06,0-.01.02-.03.03-.04.05-.08.09-.16.14-.23,0-.01.01-.02.02-.04,0,0,.01-.02.02-.03,0-.01.01-.02.02-.03,0,0,0,0,0,0,0-.01.01-.02.02-.04h0s0,0,0,0c.01-.02.02-.04.03-.06,3.81-6.16,10.71-12.2,19.99-17.49.06-.03.11-.06.17-.1.06-.03.12-.07.18-.1,10.03-5.67,22.82-10.44,37.01-13.83,15.44-3.68,32.41-5.77,50.43-6.2,2.33-.06,4.67-.08,7.01-.08h0c11.96,0,24.18.72,36.52,2.16,6.86-6.2,13.51-12.75,19.88-19.62-6.38-6.87-13.02-13.43-19.88-19.62-4.91.57-9.8,1.03-14.66,1.37-7.36.52-14.66.78-21.86.78h0c-2.21,0-4.41-.02-6.61-.07-.14,0-.27,0-.41,0-.13,0-.25,0-.38,0-3.6-.09-7.16-.25-10.67-.47-13.93-.88-27.13-2.8-39.38-5.72-14.27-3.4-27.14-8.22-37.2-13.93-4.78-2.72-8.94-5.63-12.37-8.66-.24-.21-.48-.43-.71-.64-2.64-2.41-4.82-4.89-6.49-7.39,0,0,0,0,0,0,0,0,0-.01-.01-.02,0,0,0-.01-.01-.02,0,0,0,0,0-.01-.28-.42-.55-.85-.8-1.28-3.11-5.24-3.92-10.46-2.38-15.04.4-1.2.96-2.35,1.68-3.45,2.31-3.53,6.12-6.29,11.19-8.15,0,0,0,0,0,0,2.31-.85,4.88-1.51,7.69-1.97,8.37-1.38,18.67-.95,29.94,1.24.55.11,1.11.22,1.66.34.19.04.37.08.56.12.04,0,.08.02.12.03.04,0,.08.02.12.03.04,0,.07.02.11.02,13.06,2.81,27.49,8.01,41.74,15.02,6.67,3.28,13.33,6.96,19.94,11,8.59,5.26,17.1,11.15,25.44,17.61,4.49,3.48,8.92,7.11,13.26,10.88.83.72,1.66,1.45,2.48,2.18,3.97-.49,7.94-1.06,11.93-1.7,5.49-.89,10.98-1.91,16.45-3.07-.92-9.08-2.24-18.08-3.97-26.93-2.64-1.4-5.25-2.83-7.84-4.3-3.78-2.14-7.49-4.34-11.11-6.6,0,0,0,0,0,0,0,0,0,0-.01,0-5.65-3.52-11.1-7.18-16.33-10.96-2.74-1.98-5.43-4-8.05-6.04-3.31-2.59-6.52-5.23-9.63-7.91-3.26-2.81-6.4-5.69-9.41-8.61-7.6-7.37-14.34-14.99-19.89-22.49,0,0,0,0,0,0,0,0,0,0,0,0-.58-.79-1.16-1.58-1.71-2.37-.52-.73-1.02-1.46-1.51-2.18-2.96-4.35-5.52-8.68-7.65-12.9-2.57-5.08-4.51-10.01-5.77-14.65-.05-.19-.1-.38-.15-.56-.19-.73-.36-1.46-.52-2.17-1.58-7.31-1.34-13.68.72-18.65,0-.02.02-.05.03-.07,0,0,0-.01,0-.02.18-.42.37-.84.57-1.24.07-.13.14-.27.21-.4,3.14-5.83,8.88-8.9,16.2-8.65,2.82.1,5.82.69,8.94,1.75,4.63,1.57,9.53,4.18,14.52,7.74,7.7,5.5,15.51,13.26,22.78,22.59.94,1.2,1.86,2.43,2.78,3.68,8.58,11.72,16.49,25.99,22.9,41.27.02.04.03.08.05.12,6.48,15.48,11.58,32.19,15.18,49.7,8.38,4.35,17.04,8.38,25.94,12.05.8-1.3,1.59-2.6,2.37-3.9,3.99-6.67,7.69-13.42,11.09-20.23-.75-1.53-1.48-3.06-2.19-4.6,0,0,0-.01,0-.02,0,0,0,0,0,0-3.69-7.92-6.97-15.9-9.84-23.89-.49-1.37-.97-2.74-1.43-4.11-5.21-15.34-8.75-30.43-10.53-44.9-1.74-14.11-1.73-27.64.02-39.23.06-.41.13-.82.19-1.23.25-1.51.52-2.99.83-4.44,1.94-9.17,5.05-16.91,9.09-22.59,0,0,0-.01.01-.02,0,0,.01-.02.02-.02h0s.04-.05.05-.08c.02-.03.04-.05.06-.08.14-.19.28-.39.42-.57,4.71-6.26,10.59-9.7,16.63-9.7h0c3.34,0,6.63,1.05,9.71,3.05,2.65,1.72,5.13,4.15,7.35,7.22,2.74,3.8,5.06,8.54,6.88,14.03,1.02,3.08,1.89,6.39,2.58,9.9.21,1.08.41,2.18.6,3.3,1.01,6.16,1.51,12.9,1.51,20h0c0,4.93-.24,10.03-.73,15.24-.16,1.73-.35,3.47-.57,5.22-1.94,15.76-5.96,32.25-11.96,49.01-3.05,8.53-6.59,17.04-10.58,25.49-.48,1.01-.96,2.02-1.46,3.04.58,1.17,1.18,2.34,1.78,3.51,2.09,4.05,4.28,8.07,6.58,12.07.89,1.55,1.8,3.1,2.73,4.65.78,1.31,1.57,2.61,2.37,3.9,8.89-3.68,17.56-7.71,25.94-12.05,3.6-17.55,8.72-34.3,15.22-49.81,6.4-15.28,14.32-29.55,22.9-41.27,8.03-10.98,16.87-20.06,25.56-26.27,8.35-5.97,16.47-9.25,23.46-9.49,2.37-.08,4.58.19,6.58.79,1.37.41,2.65.98,3.83,1.69,2.37,1.44,4.32,3.49,5.74,6.09,0,0,0,0,0,0,0,.01.01.02.02.04l.02.04c1.71,3.18,2.57,7.05,2.57,11.45,0,3.4-.52,7.12-1.55,11.09-.02.08-.04.15-.06.23-2.43,9.22-7.62,19.61-15.02,30.06-7.95,11.23-18.68,22.81-31.02,33.48-4.21,3.64-8.62,7.2-13.22,10.67,0,0,0,0-.01,0-.01.01-.03.02-.04.03s-.03.02-.04.03c0,0-.01,0-.02.01-9.81,7.39-20.46,14.35-31.81,20.77-2.58,1.46-5.2,2.9-7.84,4.3-.31,1.57-.6,3.15-.88,4.73-1.3,7.32-2.33,14.73-3.09,22.2,5.47,1.16,10.96,2.18,16.45,3.07,3.99.64,7.96,1.21,11.93,1.7,5.13-4.55,10.39-8.91,15.74-13.06,14.19-10.99,28.84-20.31,43.59-27.73.59-.3,1.19-.59,1.78-.89,13.99-6.88,28.16-12.02,41.02-14.86.24-.05.48-.11.72-.16.22-.05.44-.09.66-.14,11.98-2.52,22.95-3.09,31.78-1.64.02,0,.05,0,.07.01,2.45.4,4.72.96,6.79,1.65,0,0,0,0,0,0,.02,0,.04.01.06.02,4.08,1.38,7.4,3.32,9.83,5.75.75.74,1.41,1.54,1.98,2.37,0,0,0,0,0,0h0c.07.11.15.22.22.33.94,1.43,1.6,2.96,2,4.55.4,1.61.52,3.28.37,5-.25,2.89-1.28,5.91-3.08,8.94-3.77,6.35-10.83,12.58-20.42,18.02-10.06,5.71-22.92,10.53-37.2,13.93-15.44,3.68-32.41,5.77-50.43,6.2-2.33.06-4.67.08-7.02.08h0c-6.83,0-13.75-.24-20.72-.7-5.24-.35-10.5-.84-15.8-1.45-6.86,6.2-13.51,12.75-19.88,19.62,1.01,1.09,2.03,2.17,3.05,3.24,0,0,.02.02.03.03,0,0,0,0,0,0,3.11,3.26,6.28,6.45,9.51,9.55,2.4,2.31,4.83,4.58,7.3,6.8,13.06-1.52,25.99-2.24,38.61-2.15,1.65.01,3.29.04,4.93.08,1.34.03,2.67.07,4,.12,15.72.6,30.6,2.47,44.31,5.58.71.16,1.43.33,2.13.5,3.65.87,7.21,1.83,10.66,2.88,8.15,2.48,15.64,5.42,22.18,8.72,1.5.76,2.96,1.53,4.35,2.33,8.29,4.71,14.7,10.01,18.72,15.46.63.85,1.2,1.71,1.71,2.57,2.09,3.52,3.14,7.02,3.14,10.33,0,.41-.02.82-.05,1.22h0s0,0,0,0c-.16,2.01-.72,3.93-1.68,5.73,0,0,0,0,0,0,0,0,0,.01-.01.02-.21.38-.43.76-.67,1.13h0s0,.02-.01.03c-3.36,5.14-9.89,8.64-18.89,10.13-8.44,1.4-18.86.94-30.24-1.3-.75-.15-1.51-.3-2.27-.47-.91-.2-1.84-.41-2.76-.63,0,0,0,0,0,0h0c-8.66-2.06-17.85-5.11-27.16-9.01-3.93-1.65-7.88-3.44-11.81-5.38-2.01-.99-4.01-2.01-6.02-3.07,0,0,0,0,0,0,0,0,0,0,0,0-10.96-5.79-21.84-12.61-32.5-20.39-2.29-1.67-4.58-3.39-6.85-5.15-.05-.04-.09-.07-.14-.11-.05-.04-.1-.07-.14-.11-.05-.04-.09-.07-.14-.11-.01,0-.02-.02-.04-.03-.44-.35-.89-.69-1.33-1.04,0,0-.02-.01-.02-.02-.06-.04-.11-.09-.17-.13-4.67-3.68-9.26-7.52-13.75-11.51-3.97.49-7.94,1.06-11.93,1.7-5.49.89-10.98,1.91-16.45,3.07.52,5.19,1.18,10.35,1.97,15.47.59,3.84,1.26,7.66,2,11.46,2.64,1.4,5.25,2.83,7.84,4.3,6.65,3.77,13.06,7.72,19.2,11.83,0,0,0,0,.01,0,0,0,0,0,.01,0,9.18,6.15,17.77,12.66,25.67,19.48h0s.03.03.05.05c.02.01.03.03.05.04.04.04.09.08.13.12,4.53,3.92,8.85,7.96,12.89,12.06.01.01.03.03.04.04l.02.02h0s.08.09.12.13c.32.32.63.65.95.97.01.01.02.03.04.04.12.12.24.24.35.37,0,0,.01.01.02.02.36.37.72.75,1.07,1.12,5.89,6.2,11.13,12.51,15.52,18.72,4.84,6.84,8.73,13.64,11.53,20.11,1.52,3.51,2.71,6.92,3.55,10.18,1.96,7.55,2.05,14.19.31,19.45-.36,1.09-.8,2.12-1.33,3.09-3.02,5.61-8.46,8.67-15.37,8.67-.28,0-.55,0-.82-.01-4.05-.14-8.48-1.3-13.11-3.41-3.29-1.5-6.68-3.48-10.12-5.91,0,0-.02-.01-.03-.02-.07-.05-.14-.1-.21-.15-1.93-1.38-3.88-2.91-5.82-4.56-6.42-5.48-12.8-12.41-18.77-20.39-.33-.44-.65-.88-.98-1.32-4.25-5.8-8.34-12.24-12.16-19.11-3.89-7-7.51-14.45-10.74-22.16-.44-1.05-.88-2.11-1.3-3.18,0-.01,0-.02-.01-.03-.02-.05-.04-.11-.07-.16-3.72-9.25-6.95-18.92-9.67-28.92-.01-.04-.02-.09-.04-.13,0,0,0-.01,0-.02-1.36-5.01-2.59-10.11-3.69-15.28,0,0,0-.02,0-.03-.06-.27-.11-.54-.17-.81,0-.03-.01-.05-.02-.08-.01-.05-.02-.11-.03-.16,0-.01,0-.02,0-.04-.02-.11-.05-.23-.07-.35,0-.04-.02-.08-.03-.12-.02-.09-.04-.18-.06-.27h0c-.02-.08-.03-.16-.05-.24-.33-.17-.65-.34-.98-.51-8.08-4.16-16.41-8.01-24.96-11.55-.8,1.3-1.59,2.6-2.37,3.9-3.99,6.67-7.69,13.42-11.09,20.23,3.52,7.23,6.71,14.52,9.55,21.83.85,2.19,1.67,4.39,2.46,6.58.01.04.03.07.04.11,1.36,3.8,2.62,7.58,3.77,11.34,3.91,12.75,6.65,25.28,8.16,37.38.01.09.02.19.03.28.07.58.14,1.15.2,1.73,1.58,13.98,1.44,27.34-.41,38.73-1.83,11.22-5.31,20.63-10.06,27.22-4.78,6.62-10.83,10.27-17.05,10.27ZM1653.28,1154.79c3.63,5.03,7.97,7.8,12.22,7.8,4.26,0,8.6-2.77,12.22-7.8.07-.09.13-.19.2-.28,4.11-5.83,7.16-14.27,8.81-24.42.25-1.52.47-3.09.65-4.68.3-2.64.52-5.37.65-8.18,0,0,0,0,0,0,0-.01,0-.02,0-.03.09-2.01.13-4.07.13-6.15,0-6.32-.42-12.95-1.25-19.73-.6-4.89-1.41-9.86-2.42-14.89-2.16-10.72-5.25-21.72-9.23-32.85-2.83-7.91-6.09-15.81-9.76-23.66-3.66,7.84-6.92,15.75-9.75,23.66-.02.06-.05.13-.07.19-5.81,16.28-9.71,32.27-11.59,47.54-1.73,14.05-1.67,27.46.18,38.78,1.39,8.54,3.77,15.87,6.94,21.45.66,1.16,1.35,2.24,2.07,3.25ZM1794.92,1121.84c.22.01.44.03.65.03.24,0,.48.01.73,0,3.34-.03,7.52-1.05,9.93-5.37.03-.05.06-.11.09-.16,2.25-4.18,2.45-10.55.57-17.97,0,0,0-.02,0-.03,0,0,0,0,0-.01,0-.01,0-.02,0-.03,0,0,0,0,0-.01-.01-.06-.03-.12-.05-.18-.07-.29-.15-.57-.23-.86,0,0,0-.01,0-.02,0-.04-.02-.07-.03-.11-2.29-8.17-6.94-17.39-13.5-26.77-.01-.01-.02-.03-.03-.05,0,0-.01-.01-.02-.02-.02-.02-.03-.05-.05-.07-.02-.03-.04-.06-.06-.08-.04-.05-.07-.11-.11-.16-.01-.02-.03-.04-.04-.06-.01-.01-.02-.03-.03-.04-.02-.03-.05-.07-.07-.1-5.31-7.51-11.93-15.19-19.48-22.65-3.35-3.31-6.89-6.58-10.58-9.77-2.95-2.55-6.01-5.07-9.16-7.53-2.56-2.01-5.18-3.98-7.87-5.92-8.48-6.14-17.56-11.96-27.15-17.39-1.1-.62-2.2-1.24-3.3-1.85,1.15,5.14,2.43,10.21,3.85,15.19,0,0,0,0,0,0,0,0,0,.02,0,.02,2.82,9.92,6.15,19.49,9.98,28.62,4.17,9.94,8.98,19.43,14.2,28.02,2.58,4.25,5.26,8.28,8.01,12.03,6.06,8.28,12.56,15.4,19.06,20.91,1.72,1.46,3.44,2.8,5.15,4.03,4.26,3.05,8.49,5.33,12.41,6.74,2.53.91,4.93,1.46,7.14,1.61ZM1530.88,1121.36c1.57.45,3.15.56,4.55.52,5.74-.2,12.91-3.17,20.2-8.39,8.02-5.73,16.23-14.14,23.78-24.34.15-.2.29-.4.44-.6,3.88-5.3,7.63-11.15,11.15-17.4,4.02-7.12,7.74-14.74,11.06-22.66,5.75-13.72,10.39-28.43,13.84-43.83-1.11.61-2.21,1.22-3.3,1.85-16.36,9.27-31.23,19.65-44.18,30.85-11.99,10.37-22.38,21.58-30.06,32.42-7.05,9.96-11.95,19.76-14.18,28.35-.67,2.59-1.09,5.06-1.26,7.36-.21,2.86-.03,5.46.54,7.68.27,1.04.62,1.99,1.05,2.86h0c.04.07.07.15.11.22.02.04.04.07.06.11.85,1.58,1.94,2.74,3.13,3.57,0,0,0,0,0,0,0,0,0,0,0,0,.97.67,2.01,1.13,3.06,1.44ZM1451.65,1016.06c2.06.8,4.42,1.42,7.03,1.86,8.27,1.37,18.74.77,30.29-1.71,12.59-2.71,26.55-7.74,40.37-14.54,10.43-5.13,20.83-11.25,31.06-18.27,4.47-3.07,8.91-6.31,13.3-9.71,3.84-2.97,7.63-6.06,11.35-9.25-12.61-1.25-25.06-1.74-37.2-1.46-.04,0-.08,0-.12,0-10.16.24-19.96,1.02-29.33,2.33-6.87.96-13.51,2.2-19.87,3.71-13.74,3.28-26.06,7.88-35.64,13.32-.02,0-.03.02-.05.03,0,0,0,0-.01,0,0,0-.02.01-.03.02-.01,0-.02.01-.04.02h0c-1.11.64-2.19,1.29-3.22,1.94,0,0,0,0-.02,0-.02.01-.05.03-.07.04-.01,0-.02.01-.03.02-.01,0-.03.02-.04.03-6.89,4.37-11.94,9.09-14.73,13.78-1.91,3.22-3.61,7.95-.84,12.19.32.49.69.95,1.1,1.4,1.58,1.71,3.87,3.14,6.74,4.25ZM1801.66,1001.66c13.82,6.8,27.78,11.83,40.37,14.54,11.54,2.49,22.02,3.08,30.29,1.71,7.2-1.19,12.48-3.86,14.87-7.51,1.03-1.58,1.45-3.23,1.46-4.85.01-2.01-.59-3.96-1.4-5.66-.28-.6-.59-1.16-.9-1.69-1.03-1.74-2.38-3.49-4.02-5.22-2.49-2.64-5.66-5.23-9.42-7.73-.67-.44-1.35-.88-2.06-1.32,0,0,0,0,0,0-.09-.06-.18-.11-.27-.17,0,0,0,0,0,0-.04-.02-.08-.05-.12-.07h0s-.04-.03-.06-.04c-.07-.04-.13-.08-.2-.12,0,0-.01,0-.02-.01-.58-.35-1.17-.7-1.77-1.04,0,0-.01,0-.02,0-.03-.02-.05-.03-.08-.05,0,0-.01,0-.02,0-.03-.02-.05-.03-.08-.05,0,0-.02,0-.02-.01-.01,0-.03-.01-.04-.02,0,0-.02-.01-.03-.02-.04-.02-.08-.05-.13-.07-.05-.03-.1-.05-.14-.08-8.89-5.01-20.11-9.3-32.61-12.48-.91-.23-1.83-.46-2.76-.68-2.67-.64-5.39-1.23-8.16-1.76-12.79-2.49-26.56-3.93-41.04-4.27-8.92-.21-18.01,0-27.21.61-3.36.23-6.73.51-10.12.84,3.09,2.65,6.23,5.22,9.4,7.72.65.51,1.3,1.02,1.96,1.53,4.11,3.18,8.26,6.22,12.44,9.11,9.13,6.31,18.4,11.91,27.71,16.74.02,0,.03.02.05.03.01,0,.02.01.04.02,1.37.71,2.75,1.41,4.13,2.08ZM1658.24,993.24c2.54,4.37,4.96,8.78,7.26,13.21,2.9-5.61,6.01-11.17,9.3-16.68.62-1.04,1.25-2.07,1.88-3.1-3.69-1.45-7.42-2.84-11.18-4.18-3.76,1.33-7.49,2.72-11.18,4.18.61.99,1.21,1.98,1.81,2.98.03.04.05.08.08.13.67,1.12,1.33,2.24,1.99,3.37.02.03.04.06.06.1,0,0,0,0,0,0ZM1685.51,983.82c7.26,3.03,14.36,6.28,21.29,9.75-1.31-7.32-2.35-14.72-3.12-22.18-3.94.91-7.87,1.88-11.79,2.93-2.19,3.14-4.31,6.3-6.38,9.5ZM1627.32,971.39c-.77,7.46-1.81,14.87-3.12,22.18,6.93-3.47,14.03-6.73,21.29-9.75-2.07-3.2-4.19-6.37-6.38-9.5-3.91-1.04-7.85-2.02-11.79-2.93ZM1674.5,979.45c1.81.68,3.61,1.38,5.4,2.09,1.01-1.58,2.04-3.15,3.08-4.71-2.84.84-5.66,1.71-8.48,2.62ZM1648.02,976.82c1.04,1.56,2.07,3.14,3.08,4.71,1.79-.71,3.59-1.41,5.4-2.09-2.81-.91-5.64-1.78-8.48-2.62ZM1642.74,969.13c7.66,2.09,15.26,4.45,22.76,7.05,7.5-2.6,15.1-4.96,22.76-7.05,1.62-2.29,3.27-4.56,4.95-6.8,2.92-3.91,5.94-7.77,9.04-11.55-.14-3.76-.2-7.53-.2-11.3,0,0,0,0,0,0,0,0,0,0,0,0,0-3.77.07-7.54.2-11.3-.12-.15-.24-.29-.36-.44-4.75-5.83-9.3-11.8-13.62-17.92-2.58-.71-5.16-1.44-7.73-2.21-5.04-1.5-10.06-3.12-15.03-4.84-7.5,2.6-15.1,4.96-22.76,7.05-4.44,6.27-9.1,12.39-13.99,18.36.14,3.76.2,7.53.2,11.3s-.07,7.54-.2,11.3c.25.3.49.6.74.91,3.71,4.57,7.3,9.23,10.75,13.98.84,1.15,1.67,2.31,2.49,3.47ZM1627.88,965.41c1.94.44,3.87.9,5.81,1.37-1.76-2.37-3.56-4.73-5.39-7.06-.12,1.9-.26,3.79-.42,5.68ZM1702.7,959.73c-1.83,2.33-3.62,4.68-5.39,7.06,1.93-.47,3.87-.93,5.81-1.37-.16-1.89-.3-3.79-.42-5.68ZM1598.85,960.08c2.37.33,4.74.69,7.11,1.07,5.36.86,10.71,1.86,16.05,2.98.3-3.76.54-7.54.7-11.32-2.19-2.64-4.42-5.24-6.7-7.81-.33-.37-.66-.74-.99-1.11-1.54,1.65-3.09,3.28-4.66,4.9-3.76,3.88-7.6,7.64-11.52,11.3ZM1708.29,952.81c.16,3.78.4,7.56.7,11.32,5.34-1.12,10.69-2.11,16.05-2.97,2.37-.38,4.74-.74,7.11-1.07-2.85-2.65-5.65-5.37-8.42-8.14-2.63-2.63-5.21-5.32-7.76-8.06-.15.17-.31.35-.46.52-.18.2-.35.39-.53.59-.41.47-.82.93-1.23,1.4-1.85,2.11-3.67,4.25-5.47,6.41ZM1620.48,941.05c.84.95,1.67,1.9,2.5,2.85.02-1.48.03-2.96.03-4.43s-.01-2.96-.03-4.43c-.83.96-1.66,1.91-2.5,2.85-.47.53-.94,1.06-1.41,1.58.47.53.94,1.05,1.41,1.58ZM1708.03,935.03c-.02,1.48-.03,2.96-.03,4.44s.01,2.96.03,4.43c.83-.96,1.66-1.91,2.5-2.85.47-.53.94-1.06,1.41-1.58-.47-.53-.94-1.05-1.41-1.58-.84-.95-1.67-1.9-2.5-2.85ZM1598.85,918.86c5.55,5.18,10.95,10.58,16.18,16.2.33-.37.66-.74.99-1.11,2.27-2.57,4.51-5.17,6.7-7.81-.16-3.78-.4-7.56-.7-11.32-5.34,1.12-10.69,2.11-16.05,2.97-2.37.38-4.74.74-7.11,1.07ZM1715.86,934.93s.07.08.11.12c5.23-5.61,10.63-11.02,16.18-16.2-1.35-.19-2.7-.39-4.05-.59-.4-.06-.81-.12-1.21-.19-.06,0-.13-.02-.19-.03-.01,0-.03,0-.04,0-.13-.02-.26-.04-.39-.06-.04,0-.07-.01-.11-.02h0c-.1-.02-.2-.03-.3-.05-.27-.04-.55-.09-.82-.13-.21-.03-.42-.07-.63-.1-2.31-.38-4.62-.78-6.93-1.2-2.83-.52-5.66-1.08-8.48-1.67-.3,3.76-.54,7.54-.7,11.32,1.7,2.05,3.43,4.07,5.18,6.08.5.58,1.01,1.15,1.52,1.73.11.13.23.26.34.38.08.09.15.17.23.26.1.11.21.23.31.34ZM1697.31,912.15c1.76,2.38,3.56,4.73,5.39,7.06.12-1.9.26-3.79.42-5.68-1.94-.44-3.87-.9-5.81-1.37ZM1627.88,913.53c.16,1.89.3,3.79.42,5.68,1.83-2.33,3.62-4.68,5.39-7.06-1.93.47-3.87.93-5.81,1.37ZM1548.12,915.97c12.06.27,24.42-.22,36.94-1.46-2.02-1.73-4.05-3.42-6.1-5.08-1.74-1.41-3.49-2.8-5.26-4.17-6.15-4.76-12.38-9.2-18.68-13.3-8.49-5.53-17.07-10.44-25.68-14.67-.09-.05-.18-.09-.27-.14-.06-.03-.12-.06-.18-.09-13.67-6.69-27.47-11.64-39.92-14.32-11.54-2.49-22.02-3.08-30.29-1.71-6.94,1.15-12.1,3.67-14.61,7.12-.09.13-.18.26-.27.39-.07.1-.13.21-.19.31-2.12,3.54-1.24,7.38.22,10.39.26.53.53,1.03.81,1.5,1.19,2,2.8,4.01,4.78,6,.34.34.68.67,1.04,1.01,3.18,2.98,7.22,5.89,11.99,8.63.14.08.29.16.43.25,9.58,5.44,21.9,10.04,35.64,13.32,14.93,3.56,31.36,5.59,48.83,6.03.12,0,.24,0,.36,0,.13,0,.26,0,.39,0ZM1745.94,914.51c12.65,1.26,25.14,1.75,37.33,1.45.58-.01,1.15-.03,1.72-.05.17,0,.34-.01.51-.02.08,0,.16,0,.24,0,16.69-.55,32.39-2.55,46.72-5.97,13.74-3.27,26.06-7.88,35.64-13.32,7.53-4.28,13.28-8.97,16.79-13.71.54-.73,1.03-1.46,1.46-2.18.78-1.31,1.52-2.87,1.94-4.55.36-1.44.49-2.97.19-4.49-.19-.99-.56-1.98-1.16-2.94-.04-.07-.09-.14-.13-.21-.5-.77-1.14-1.5-1.89-2.18-1.89-1.7-4.53-3.1-7.78-4.12-1.6-.5-3.34-.91-5.21-1.22-1.59-.26-3.27-.45-5.02-.57-7.33-.5-15.95.28-25.26,2.29h0c-12.59,2.71-26.55,7.74-40.37,14.54-14.1,6.94-28.14,15.68-41.78,26-.86.65-1.72,1.31-2.58,1.98-3.84,2.97-7.63,6.06-11.35,9.25ZM1697.49,906.06c2.06.51,4.13,1.01,6.19,1.48.77-7.46,1.81-14.87,3.12-22.18-6.93,3.47-14.03,6.73-21.29,9.75.15.24.31.47.46.71,1.92,2.96,3.9,5.89,5.92,8.79,1.86.5,3.73.98,5.59,1.44ZM1624.2,885.36c1.31,7.32,2.35,14.72,3.12,22.18,3.94-.91,7.87-1.88,11.79-2.93,2.19-3.14,4.31-6.3,6.38-9.5-4.33-1.81-8.6-3.69-12.82-5.66-2.85-1.33-5.67-2.69-8.47-4.09ZM1674.5,899.49c2.82.91,5.64,1.78,8.48,2.62-1.04-1.56-2.07-3.14-3.08-4.71-1.79.71-3.59,1.41-5.4,2.09ZM1651.1,897.4c-1.01,1.58-2.04,3.15-3.08,4.71,2.84-.84,5.66-1.71,8.48-2.62-1.81-.68-3.61-1.38-5.4-2.09ZM1661.5,895c1.33.49,2.66.97,4,1.44,3.76-1.33,7.49-2.72,11.18-4.18-.63-1.03-1.26-2.07-1.88-3.1-3.3-5.51-6.4-11.07-9.3-16.68-2.9,5.61-6.01,11.17-9.3,16.68-.62,1.04-1.25,2.07-1.88,3.1,2.38.94,4.77,1.85,7.18,2.73ZM1596.72,862.79c5.11,3.33,10.41,6.55,15.87,9.65,1.1.62,2.2,1.24,3.3,1.85-3.44-15.4-8.09-30.12-13.84-43.83-2.59-6.17-5.42-12.17-8.45-17.89,0,0,0-.02-.01-.03,0,0,0,0,0,0-2.53-4.78-5.2-9.37-7.97-13.69,0,0,0,0,0-.01-.01-.02-.02-.04-.04-.06,0-.01-.01-.02-.02-.03,0-.01-.02-.03-.03-.04,0,0,0-.02-.02-.02-.01-.02-.02-.03-.03-.05,0-.01-.02-.03-.03-.04,0,0-.01-.02-.02-.03,0-.02-.02-.03-.03-.05,0,0-.01-.02-.02-.03-.01-.02-.02-.04-.03-.05,0,0,0-.01-.01-.02-.17-.26-.34-.53-.51-.79,0,0,0,0,0,0-.01-.02-.03-.04-.04-.06,0,0,0,0,0-.01-.12-.18-.24-.36-.36-.54,0-.01-.01-.02-.02-.03,0-.01-.02-.03-.03-.04,0-.01-.01-.02-.02-.03,0-.01-.01-.02-.02-.03-.02-.04-.05-.07-.07-.11-.01-.02-.02-.03-.03-.05,0,0,0-.01-.01-.02,0-.01-.02-.03-.03-.04,0,0-.01-.02-.02-.03l-.02-.03s-.02-.03-.03-.04c0,0,0,0,0,0-1.22-1.85-2.46-3.64-3.72-5.38,0,0-.01-.02-.02-.03-.11-.15-.21-.3-.32-.44,0,0-.01-.02-.02-.03-.02-.03-.05-.06-.07-.1-.04-.05-.07-.1-.11-.15-4.21-5.75-8.63-10.94-13.11-15.42-1.11-1.11-2.22-2.17-3.34-3.19-1.88-1.72-3.77-3.31-5.66-4.76-.62-.48-1.24-.94-1.86-1.39-.05-.04-.1-.07-.15-.11,0,0,0,0,0,0-.03-.02-.06-.04-.09-.07-7.22-5.16-14.33-8.13-20.04-8.38-.05,0-.11,0-.16,0-.03,0-.06,0-.09,0-3.34-.1-7.75.72-10.35,4.99-.11.17-.21.35-.31.54-.28.51-.52,1.06-.73,1.63-1.55,4.18-1.48,9.98.23,16.6.27,1.05.59,2.13.94,3.22,0,0,0,0,0,0,0,0,0,0,0,.01,1.17,3.6,2.77,7.38,4.76,11.27,1.81,3.52,3.94,7.14,6.37,10.79.68,1.02,1.38,2.04,2.1,3.06,4.28,6.05,9.42,12.22,15.2,18.29,0,0,0,.01.01.02,0,.01.02.02.03.03.01.01.02.02.03.03.01.01.03.03.04.04,0,0,.01.01.02.02.03.03.06.06.09.1,2.06,2.16,4.2,4.3,6.42,6.42,2.64,2.53,5.38,5.02,8.22,7.47,8.62,7.45,18.09,14.55,28.28,21.19,0,0,.01,0,.02.01,0,0,0,0,0,0ZM1775.41,765.42l-.04.03c-8.18,5.85-16.55,14.47-24.22,24.94-8.3,11.34-15.98,25.19-22.21,40.05-5.75,13.72-10.39,28.43-13.84,43.83,1.11-.61,2.21-1.22,3.3-1.85,16.36-9.27,31.23-19.65,44.18-30.85,11.55-9.99,21.63-20.77,29.22-31.24.28-.39.57-.79.84-1.18.83-1.17,1.63-2.35,2.41-3.52,5.77-8.74,9.81-17.26,11.77-24.83.02-.06.03-.12.05-.18,0,0,0,0,0-.01,0-.01,0-.02,0-.03,0,0,0-.01,0-.02,0,0,0-.02,0-.03,1.78-7.02,1.7-13.11-.23-17.28-.11-.23-.22-.46-.34-.68-.28-.53-.59-1-.92-1.44-.96-1.26-2.1-2.16-3.3-2.79-2.16-1.12-4.54-1.37-6.52-1.3-4.62.16-10.17,2.12-15.96,5.59,0,0-.01,0-.02.01,0,0-.01,0-.02.01-1.38.83-2.77,1.74-4.16,2.74ZM1644.73,792.35c2.07,13.89,5.76,28.33,11.02,43,2.83,7.91,6.09,15.81,9.75,23.66,3.66-7.84,6.92-15.74,9.76-23.66,5.6-15.64,9.43-31.01,11.4-45.74,0,0,0,0,0-.01.01-.09.02-.17.03-.26,0,0,0,0,0-.01.08-.57.15-1.14.22-1.71.63-5.09,1.02-10.1,1.17-14.95.05-1.61.08-3.2.08-4.77,0-6.78-.48-13.19-1.43-19.05-1.2-7.33-3.12-13.77-5.64-18.98-1.03-2.12-2.15-4.03-3.37-5.72-3.63-5.03-7.97-7.8-12.22-7.8s-8.6,2.77-12.22,7.8c-3.77,5.23-6.66,12.61-8.43,21.49,0,0,0,0,0,.01,0,.04-.01.07-.02.1,0,0,0,.01,0,.02,0,.03-.01.06-.02.09-.19.97-.37,1.97-.53,2.98-.67,4.11-1.1,8.5-1.3,13.09-.08,1.95-.13,3.94-.13,5.96,0,6.17.4,12.64,1.2,19.25.02.16.04.32.06.48.19,1.57.41,3.14.64,4.73Z"/>
          </g>
        </g>
      </g>
    </g>
  </g>
</svg>